G04 #@! TF.GenerationSoftware,KiCad,Pcbnew,(5.1.4)-1*
G04 #@! TF.CreationDate,2020-09-16T17:38:36+01:00*
G04 #@! TF.ProjectId,reflex-io-board,7265666c-6578-42d6-996f-2d626f617264,rev?*
G04 #@! TF.SameCoordinates,Original*
G04 #@! TF.FileFunction,Legend,Top*
G04 #@! TF.FilePolarity,Positive*
%FSLAX46Y46*%
G04 Gerber Fmt 4.6, Leading zero omitted, Abs format (unit mm)*
G04 Created by KiCad (PCBNEW (5.1.4)-1) date 2020-09-16 17:38:36*
%MOMM*%
%LPD*%
G04 APERTURE LIST*
%ADD10C,0.300000*%
%ADD11C,0.150000*%
%ADD12C,0.120000*%
%ADD13C,0.010000*%
G04 APERTURE END LIST*
D10*
X187178571Y-138500000D02*
X186464285Y-139000000D01*
X187178571Y-139357142D02*
X185678571Y-139357142D01*
X185678571Y-138785714D01*
X185750000Y-138642857D01*
X185821428Y-138571428D01*
X185964285Y-138500000D01*
X186178571Y-138500000D01*
X186321428Y-138571428D01*
X186392857Y-138642857D01*
X186464285Y-138785714D01*
X186464285Y-139357142D01*
X187178571Y-137857142D02*
X185678571Y-137857142D01*
X185750000Y-136357142D02*
X185678571Y-136500000D01*
X185678571Y-136714285D01*
X185750000Y-136928571D01*
X185892857Y-137071428D01*
X186035714Y-137142857D01*
X186321428Y-137214285D01*
X186535714Y-137214285D01*
X186821428Y-137142857D01*
X186964285Y-137071428D01*
X187107142Y-136928571D01*
X187178571Y-136714285D01*
X187178571Y-136571428D01*
X187107142Y-136357142D01*
X187035714Y-136285714D01*
X186535714Y-136285714D01*
X186535714Y-136571428D01*
X187178571Y-135642857D02*
X185678571Y-135642857D01*
X186392857Y-135642857D02*
X186392857Y-134785714D01*
X187178571Y-134785714D02*
X185678571Y-134785714D01*
X185678571Y-134285714D02*
X185678571Y-133428571D01*
X187178571Y-133857142D02*
X185678571Y-133857142D01*
X157178571Y-139178571D02*
X158392857Y-139178571D01*
X158535714Y-139107142D01*
X158607142Y-139035714D01*
X158678571Y-138892857D01*
X158678571Y-138607142D01*
X158607142Y-138464285D01*
X158535714Y-138392857D01*
X158392857Y-138321428D01*
X157178571Y-138321428D01*
X158678571Y-137607142D02*
X157178571Y-137607142D01*
X157178571Y-137035714D01*
X157250000Y-136892857D01*
X157321428Y-136821428D01*
X157464285Y-136750000D01*
X157678571Y-136750000D01*
X157821428Y-136821428D01*
X157892857Y-136892857D01*
X157964285Y-137035714D01*
X157964285Y-137607142D01*
X130178571Y-139321428D02*
X128678571Y-139321428D01*
X128678571Y-138964285D01*
X128750000Y-138750000D01*
X128892857Y-138607142D01*
X129035714Y-138535714D01*
X129321428Y-138464285D01*
X129535714Y-138464285D01*
X129821428Y-138535714D01*
X129964285Y-138607142D01*
X130107142Y-138750000D01*
X130178571Y-138964285D01*
X130178571Y-139321428D01*
X128678571Y-137535714D02*
X128678571Y-137250000D01*
X128750000Y-137107142D01*
X128892857Y-136964285D01*
X129178571Y-136892857D01*
X129678571Y-136892857D01*
X129964285Y-136964285D01*
X130107142Y-137107142D01*
X130178571Y-137250000D01*
X130178571Y-137535714D01*
X130107142Y-137678571D01*
X129964285Y-137821428D01*
X129678571Y-137892857D01*
X129178571Y-137892857D01*
X128892857Y-137821428D01*
X128750000Y-137678571D01*
X128678571Y-137535714D01*
X128678571Y-136392857D02*
X130178571Y-136035714D01*
X129107142Y-135750000D01*
X130178571Y-135464285D01*
X128678571Y-135107142D01*
X130178571Y-134535714D02*
X128678571Y-134535714D01*
X130178571Y-133678571D01*
X128678571Y-133678571D01*
X101678571Y-138428571D02*
X101678571Y-139142857D01*
X100178571Y-139142857D01*
X100892857Y-137928571D02*
X100892857Y-137428571D01*
X101678571Y-137214285D02*
X101678571Y-137928571D01*
X100178571Y-137928571D01*
X100178571Y-137214285D01*
X100892857Y-136071428D02*
X100892857Y-136571428D01*
X101678571Y-136571428D02*
X100178571Y-136571428D01*
X100178571Y-135857142D01*
X100178571Y-135500000D02*
X100178571Y-134642857D01*
X101678571Y-135071428D02*
X100178571Y-135071428D01*
D11*
X255833333Y-134127380D02*
X256404761Y-134127380D01*
X256119047Y-135127380D02*
X256119047Y-134127380D01*
X256880952Y-135127380D02*
X256785714Y-135079761D01*
X256738095Y-135032142D01*
X256690476Y-134936904D01*
X256690476Y-134651190D01*
X256738095Y-134555952D01*
X256785714Y-134508333D01*
X256880952Y-134460714D01*
X257023809Y-134460714D01*
X257119047Y-134508333D01*
X257166666Y-134555952D01*
X257214285Y-134651190D01*
X257214285Y-134936904D01*
X257166666Y-135032142D01*
X257119047Y-135079761D01*
X257023809Y-135127380D01*
X256880952Y-135127380D01*
X258261904Y-134460714D02*
X258642857Y-134460714D01*
X258404761Y-134127380D02*
X258404761Y-134984523D01*
X258452380Y-135079761D01*
X258547619Y-135127380D01*
X258642857Y-135127380D01*
X258976190Y-135127380D02*
X258976190Y-134127380D01*
X259404761Y-135127380D02*
X259404761Y-134603571D01*
X259357142Y-134508333D01*
X259261904Y-134460714D01*
X259119047Y-134460714D01*
X259023809Y-134508333D01*
X258976190Y-134555952D01*
X260261904Y-135079761D02*
X260166666Y-135127380D01*
X259976190Y-135127380D01*
X259880952Y-135079761D01*
X259833333Y-134984523D01*
X259833333Y-134603571D01*
X259880952Y-134508333D01*
X259976190Y-134460714D01*
X260166666Y-134460714D01*
X260261904Y-134508333D01*
X260309523Y-134603571D01*
X260309523Y-134698809D01*
X259833333Y-134794047D01*
X261928571Y-135127380D02*
X261928571Y-134127380D01*
X261928571Y-135079761D02*
X261833333Y-135127380D01*
X261642857Y-135127380D01*
X261547619Y-135079761D01*
X261500000Y-135032142D01*
X261452380Y-134936904D01*
X261452380Y-134651190D01*
X261500000Y-134555952D01*
X261547619Y-134508333D01*
X261642857Y-134460714D01*
X261833333Y-134460714D01*
X261928571Y-134508333D01*
X262833333Y-135127380D02*
X262833333Y-134603571D01*
X262785714Y-134508333D01*
X262690476Y-134460714D01*
X262500000Y-134460714D01*
X262404761Y-134508333D01*
X262833333Y-135079761D02*
X262738095Y-135127380D01*
X262500000Y-135127380D01*
X262404761Y-135079761D01*
X262357142Y-134984523D01*
X262357142Y-134889285D01*
X262404761Y-134794047D01*
X262500000Y-134746428D01*
X262738095Y-134746428D01*
X262833333Y-134698809D01*
X263309523Y-134460714D02*
X263309523Y-135127380D01*
X263309523Y-134555952D02*
X263357142Y-134508333D01*
X263452380Y-134460714D01*
X263595238Y-134460714D01*
X263690476Y-134508333D01*
X263738095Y-134603571D01*
X263738095Y-135127380D01*
X264642857Y-135079761D02*
X264547619Y-135127380D01*
X264357142Y-135127380D01*
X264261904Y-135079761D01*
X264214285Y-135032142D01*
X264166666Y-134936904D01*
X264166666Y-134651190D01*
X264214285Y-134555952D01*
X264261904Y-134508333D01*
X264357142Y-134460714D01*
X264547619Y-134460714D01*
X264642857Y-134508333D01*
X265452380Y-135079761D02*
X265357142Y-135127380D01*
X265166666Y-135127380D01*
X265071428Y-135079761D01*
X265023809Y-134984523D01*
X265023809Y-134603571D01*
X265071428Y-134508333D01*
X265166666Y-134460714D01*
X265357142Y-134460714D01*
X265452380Y-134508333D01*
X265500000Y-134603571D01*
X265500000Y-134698809D01*
X265023809Y-134794047D01*
X267119047Y-134460714D02*
X267119047Y-135270238D01*
X267071428Y-135365476D01*
X267023809Y-135413095D01*
X266928571Y-135460714D01*
X266785714Y-135460714D01*
X266690476Y-135413095D01*
X267119047Y-135079761D02*
X267023809Y-135127380D01*
X266833333Y-135127380D01*
X266738095Y-135079761D01*
X266690476Y-135032142D01*
X266642857Y-134936904D01*
X266642857Y-134651190D01*
X266690476Y-134555952D01*
X266738095Y-134508333D01*
X266833333Y-134460714D01*
X267023809Y-134460714D01*
X267119047Y-134508333D01*
X268023809Y-135127380D02*
X268023809Y-134603571D01*
X267976190Y-134508333D01*
X267880952Y-134460714D01*
X267690476Y-134460714D01*
X267595238Y-134508333D01*
X268023809Y-135079761D02*
X267928571Y-135127380D01*
X267690476Y-135127380D01*
X267595238Y-135079761D01*
X267547619Y-134984523D01*
X267547619Y-134889285D01*
X267595238Y-134794047D01*
X267690476Y-134746428D01*
X267928571Y-134746428D01*
X268023809Y-134698809D01*
X268500000Y-135127380D02*
X268500000Y-134460714D01*
X268500000Y-134555952D02*
X268547619Y-134508333D01*
X268642857Y-134460714D01*
X268785714Y-134460714D01*
X268880952Y-134508333D01*
X268928571Y-134603571D01*
X268928571Y-135127380D01*
X268928571Y-134603571D02*
X268976190Y-134508333D01*
X269071428Y-134460714D01*
X269214285Y-134460714D01*
X269309523Y-134508333D01*
X269357142Y-134603571D01*
X269357142Y-135127380D01*
X270214285Y-135079761D02*
X270119047Y-135127380D01*
X269928571Y-135127380D01*
X269833333Y-135079761D01*
X269785714Y-134984523D01*
X269785714Y-134603571D01*
X269833333Y-134508333D01*
X269928571Y-134460714D01*
X270119047Y-134460714D01*
X270214285Y-134508333D01*
X270261904Y-134603571D01*
X270261904Y-134698809D01*
X269785714Y-134794047D01*
X271880952Y-135079761D02*
X271785714Y-135127380D01*
X271595238Y-135127380D01*
X271500000Y-135079761D01*
X271452380Y-135032142D01*
X271404761Y-134936904D01*
X271404761Y-134651190D01*
X271452380Y-134555952D01*
X271500000Y-134508333D01*
X271595238Y-134460714D01*
X271785714Y-134460714D01*
X271880952Y-134508333D01*
X272452380Y-135127380D02*
X272357142Y-135079761D01*
X272309523Y-135032142D01*
X272261904Y-134936904D01*
X272261904Y-134651190D01*
X272309523Y-134555952D01*
X272357142Y-134508333D01*
X272452380Y-134460714D01*
X272595238Y-134460714D01*
X272690476Y-134508333D01*
X272738095Y-134555952D01*
X272785714Y-134651190D01*
X272785714Y-134936904D01*
X272738095Y-135032142D01*
X272690476Y-135079761D01*
X272595238Y-135127380D01*
X272452380Y-135127380D01*
X273214285Y-135127380D02*
X273214285Y-134460714D01*
X273214285Y-134555952D02*
X273261904Y-134508333D01*
X273357142Y-134460714D01*
X273500000Y-134460714D01*
X273595238Y-134508333D01*
X273642857Y-134603571D01*
X273642857Y-135127380D01*
X273642857Y-134603571D02*
X273690476Y-134508333D01*
X273785714Y-134460714D01*
X273928571Y-134460714D01*
X274023809Y-134508333D01*
X274071428Y-134603571D01*
X274071428Y-135127380D01*
X274547619Y-135127380D02*
X274547619Y-134460714D01*
X274547619Y-134555952D02*
X274595238Y-134508333D01*
X274690476Y-134460714D01*
X274833333Y-134460714D01*
X274928571Y-134508333D01*
X274976190Y-134603571D01*
X274976190Y-135127380D01*
X274976190Y-134603571D02*
X275023809Y-134508333D01*
X275119047Y-134460714D01*
X275261904Y-134460714D01*
X275357142Y-134508333D01*
X275404761Y-134603571D01*
X275404761Y-135127380D01*
X276309523Y-134460714D02*
X276309523Y-135127380D01*
X275880952Y-134460714D02*
X275880952Y-134984523D01*
X275928571Y-135079761D01*
X276023809Y-135127380D01*
X276166666Y-135127380D01*
X276261904Y-135079761D01*
X276309523Y-135032142D01*
X276785714Y-134460714D02*
X276785714Y-135127380D01*
X276785714Y-134555952D02*
X276833333Y-134508333D01*
X276928571Y-134460714D01*
X277071428Y-134460714D01*
X277166666Y-134508333D01*
X277214285Y-134603571D01*
X277214285Y-135127380D01*
X277690476Y-135127380D02*
X277690476Y-134460714D01*
X277690476Y-134127380D02*
X277642857Y-134175000D01*
X277690476Y-134222619D01*
X277738095Y-134175000D01*
X277690476Y-134127380D01*
X277690476Y-134222619D01*
X278023809Y-134460714D02*
X278404761Y-134460714D01*
X278166666Y-134127380D02*
X278166666Y-134984523D01*
X278214285Y-135079761D01*
X278309523Y-135127380D01*
X278404761Y-135127380D01*
X278642857Y-134460714D02*
X278880952Y-135127380D01*
X279119047Y-134460714D02*
X278880952Y-135127380D01*
X278785714Y-135365476D01*
X278738095Y-135413095D01*
X278642857Y-135460714D01*
X280261904Y-134746428D02*
X281023809Y-134746428D01*
X259976190Y-135777380D02*
X260214285Y-136777380D01*
X260404761Y-136063095D01*
X260595238Y-136777380D01*
X260833333Y-135777380D01*
X261214285Y-136777380D02*
X261214285Y-136110714D01*
X261214285Y-135777380D02*
X261166666Y-135825000D01*
X261214285Y-135872619D01*
X261261904Y-135825000D01*
X261214285Y-135777380D01*
X261214285Y-135872619D01*
X261547619Y-136110714D02*
X261928571Y-136110714D01*
X261690476Y-135777380D02*
X261690476Y-136634523D01*
X261738095Y-136729761D01*
X261833333Y-136777380D01*
X261928571Y-136777380D01*
X262261904Y-136777380D02*
X262261904Y-135777380D01*
X262690476Y-136777380D02*
X262690476Y-136253571D01*
X262642857Y-136158333D01*
X262547619Y-136110714D01*
X262404761Y-136110714D01*
X262309523Y-136158333D01*
X262261904Y-136205952D01*
X264071428Y-136777380D02*
X263976190Y-136729761D01*
X263928571Y-136634523D01*
X263928571Y-135777380D01*
X264595238Y-136777380D02*
X264500000Y-136729761D01*
X264452380Y-136682142D01*
X264404761Y-136586904D01*
X264404761Y-136301190D01*
X264452380Y-136205952D01*
X264500000Y-136158333D01*
X264595238Y-136110714D01*
X264738095Y-136110714D01*
X264833333Y-136158333D01*
X264880952Y-136205952D01*
X264928571Y-136301190D01*
X264928571Y-136586904D01*
X264880952Y-136682142D01*
X264833333Y-136729761D01*
X264738095Y-136777380D01*
X264595238Y-136777380D01*
X265261904Y-136110714D02*
X265500000Y-136777380D01*
X265738095Y-136110714D01*
X266500000Y-136729761D02*
X266404761Y-136777380D01*
X266214285Y-136777380D01*
X266119047Y-136729761D01*
X266071428Y-136634523D01*
X266071428Y-136253571D01*
X266119047Y-136158333D01*
X266214285Y-136110714D01*
X266404761Y-136110714D01*
X266500000Y-136158333D01*
X266547619Y-136253571D01*
X266547619Y-136348809D01*
X266071428Y-136444047D01*
X267023809Y-136729761D02*
X267023809Y-136777380D01*
X266976190Y-136872619D01*
X266928571Y-136920238D01*
X268642857Y-136777380D02*
X268642857Y-136253571D01*
X268595238Y-136158333D01*
X268500000Y-136110714D01*
X268309523Y-136110714D01*
X268214285Y-136158333D01*
X268642857Y-136729761D02*
X268547619Y-136777380D01*
X268309523Y-136777380D01*
X268214285Y-136729761D01*
X268166666Y-136634523D01*
X268166666Y-136539285D01*
X268214285Y-136444047D01*
X268309523Y-136396428D01*
X268547619Y-136396428D01*
X268642857Y-136348809D01*
X269119047Y-136110714D02*
X269119047Y-136777380D01*
X269119047Y-136205952D02*
X269166666Y-136158333D01*
X269261904Y-136110714D01*
X269404761Y-136110714D01*
X269500000Y-136158333D01*
X269547619Y-136253571D01*
X269547619Y-136777380D01*
X270452380Y-136777380D02*
X270452380Y-135777380D01*
X270452380Y-136729761D02*
X270357142Y-136777380D01*
X270166666Y-136777380D01*
X270071428Y-136729761D01*
X270023809Y-136682142D01*
X269976190Y-136586904D01*
X269976190Y-136301190D01*
X270023809Y-136205952D01*
X270071428Y-136158333D01*
X270166666Y-136110714D01*
X270357142Y-136110714D01*
X270452380Y-136158333D01*
X271642857Y-136729761D02*
X271738095Y-136777380D01*
X271928571Y-136777380D01*
X272023809Y-136729761D01*
X272071428Y-136634523D01*
X272071428Y-136586904D01*
X272023809Y-136491666D01*
X271928571Y-136444047D01*
X271785714Y-136444047D01*
X271690476Y-136396428D01*
X271642857Y-136301190D01*
X271642857Y-136253571D01*
X271690476Y-136158333D01*
X271785714Y-136110714D01*
X271928571Y-136110714D01*
X272023809Y-136158333D01*
X272880952Y-136729761D02*
X272785714Y-136777380D01*
X272595238Y-136777380D01*
X272500000Y-136729761D01*
X272452380Y-136634523D01*
X272452380Y-136253571D01*
X272500000Y-136158333D01*
X272595238Y-136110714D01*
X272785714Y-136110714D01*
X272880952Y-136158333D01*
X272928571Y-136253571D01*
X272928571Y-136348809D01*
X272452380Y-136444047D01*
X273357142Y-136777380D02*
X273357142Y-136110714D01*
X273357142Y-136301190D02*
X273404761Y-136205952D01*
X273452380Y-136158333D01*
X273547619Y-136110714D01*
X273642857Y-136110714D01*
X273880952Y-136110714D02*
X274119047Y-136777380D01*
X274357142Y-136110714D01*
X274738095Y-136777380D02*
X274738095Y-136110714D01*
X274738095Y-135777380D02*
X274690476Y-135825000D01*
X274738095Y-135872619D01*
X274785714Y-135825000D01*
X274738095Y-135777380D01*
X274738095Y-135872619D01*
X275642857Y-136729761D02*
X275547619Y-136777380D01*
X275357142Y-136777380D01*
X275261904Y-136729761D01*
X275214285Y-136682142D01*
X275166666Y-136586904D01*
X275166666Y-136301190D01*
X275214285Y-136205952D01*
X275261904Y-136158333D01*
X275357142Y-136110714D01*
X275547619Y-136110714D01*
X275642857Y-136158333D01*
X276452380Y-136729761D02*
X276357142Y-136777380D01*
X276166666Y-136777380D01*
X276071428Y-136729761D01*
X276023809Y-136634523D01*
X276023809Y-136253571D01*
X276071428Y-136158333D01*
X276166666Y-136110714D01*
X276357142Y-136110714D01*
X276452380Y-136158333D01*
X276500000Y-136253571D01*
X276500000Y-136348809D01*
X276023809Y-136444047D01*
X276928571Y-136682142D02*
X276976190Y-136729761D01*
X276928571Y-136777380D01*
X276880952Y-136729761D01*
X276928571Y-136682142D01*
X276928571Y-136777380D01*
D12*
X273000000Y-131000000D02*
X262500000Y-131000000D01*
X262500000Y-131000000D02*
G75*
G02X262500000Y-115000000I0J8000000D01*
G01*
X273000000Y-115000000D02*
G75*
G02X273000000Y-131000000I0J-8000000D01*
G01*
X273000000Y-115000000D02*
X262500000Y-115000000D01*
X23000000Y-131000000D02*
X33500000Y-131000000D01*
X23000000Y-115000000D02*
X33500000Y-115000000D01*
X33500000Y-115000000D02*
G75*
G02X33500000Y-131000000I0J-8000000D01*
G01*
X23000000Y-131000000D02*
G75*
G02X23000000Y-115000000I0J8000000D01*
G01*
X130500000Y-125500000D02*
X131000000Y-125000000D01*
X130500000Y-124500000D02*
X130500000Y-125500000D01*
X131000000Y-125000000D02*
X130500000Y-124500000D01*
X131185000Y-139080000D02*
X146705000Y-139080000D01*
X146705000Y-121120000D02*
X146705000Y-139080000D01*
X146705000Y-121120000D02*
X131185000Y-121120000D01*
X131185000Y-121120000D02*
X131185000Y-139080000D01*
X188260000Y-114337221D02*
X188260000Y-114662779D01*
X187240000Y-114337221D02*
X187240000Y-114662779D01*
X196010000Y-114337221D02*
X196010000Y-114662779D01*
X194990000Y-114337221D02*
X194990000Y-114662779D01*
X190010000Y-118087221D02*
X190010000Y-118412779D01*
X188990000Y-118087221D02*
X188990000Y-118412779D01*
X180510000Y-111412779D02*
X180510000Y-111087221D01*
X179490000Y-111412779D02*
X179490000Y-111087221D01*
X182260000Y-118087221D02*
X182260000Y-118412779D01*
X181240000Y-118087221D02*
X181240000Y-118412779D01*
X183240000Y-118412779D02*
X183240000Y-118087221D01*
X184260000Y-118412779D02*
X184260000Y-118087221D01*
X190990000Y-118412779D02*
X190990000Y-118087221D01*
X192010000Y-118412779D02*
X192010000Y-118087221D01*
X194010000Y-118412779D02*
X194010000Y-118087221D01*
X192990000Y-118412779D02*
X192990000Y-118087221D01*
X180510000Y-114337221D02*
X180510000Y-114662779D01*
X179490000Y-114337221D02*
X179490000Y-114662779D01*
X194990000Y-110837221D02*
X194990000Y-111162779D01*
X196010000Y-110837221D02*
X196010000Y-111162779D01*
X196740000Y-118087221D02*
X196740000Y-118412779D01*
X197760000Y-118087221D02*
X197760000Y-118412779D01*
X200740000Y-118412779D02*
X200740000Y-118087221D01*
X201760000Y-118412779D02*
X201760000Y-118087221D01*
X198740000Y-118412779D02*
X198740000Y-118087221D01*
X199760000Y-118412779D02*
X199760000Y-118087221D01*
X188260000Y-111412779D02*
X188260000Y-111087221D01*
X187240000Y-111412779D02*
X187240000Y-111087221D01*
X181190000Y-112750000D02*
X181190000Y-114700000D01*
X181190000Y-112750000D02*
X181190000Y-110800000D01*
X186310000Y-112750000D02*
X186310000Y-114700000D01*
X186310000Y-112750000D02*
X186310000Y-109300000D01*
X201810000Y-112750000D02*
X201810000Y-109300000D01*
X201810000Y-112750000D02*
X201810000Y-114700000D01*
X196690000Y-112750000D02*
X196690000Y-110800000D01*
X196690000Y-112750000D02*
X196690000Y-114700000D01*
X186260000Y-118412779D02*
X186260000Y-118087221D01*
X185240000Y-118412779D02*
X185240000Y-118087221D01*
X188940000Y-112750000D02*
X188940000Y-114700000D01*
X188940000Y-112750000D02*
X188940000Y-110800000D01*
X194060000Y-112750000D02*
X194060000Y-114700000D01*
X194060000Y-112750000D02*
X194060000Y-109300000D01*
X102685000Y-121120000D02*
X102685000Y-139080000D01*
X118205000Y-121120000D02*
X102685000Y-121120000D01*
X118205000Y-121120000D02*
X118205000Y-139080000D01*
X102685000Y-139080000D02*
X118205000Y-139080000D01*
X102500000Y-125000000D02*
X102000000Y-124500000D01*
X102000000Y-124500000D02*
X102000000Y-125500000D01*
X102000000Y-125500000D02*
X102500000Y-125000000D01*
D13*
G36*
X48237278Y-108503217D02*
G01*
X48316947Y-108505571D01*
X48367648Y-108510167D01*
X48393826Y-108517225D01*
X48400114Y-108525520D01*
X48394600Y-108549808D01*
X48378916Y-108611761D01*
X48353910Y-108708171D01*
X48320432Y-108835829D01*
X48279330Y-108991525D01*
X48231455Y-109172052D01*
X48177655Y-109374202D01*
X48118781Y-109594764D01*
X48055681Y-109830531D01*
X47989204Y-110078293D01*
X47981178Y-110108166D01*
X47563129Y-111663916D01*
X47886814Y-111669745D01*
X47998479Y-111672702D01*
X48093520Y-111677021D01*
X48164683Y-111682229D01*
X48204712Y-111687852D01*
X48210827Y-111690912D01*
X48205677Y-111715182D01*
X48191128Y-111773851D01*
X48168844Y-111860458D01*
X48140492Y-111968541D01*
X48107736Y-112091638D01*
X48102612Y-112110754D01*
X47994069Y-112515259D01*
X47821826Y-112528669D01*
X47753919Y-112532275D01*
X47651376Y-112535524D01*
X47521893Y-112538279D01*
X47373168Y-112540402D01*
X47212897Y-112541757D01*
X47062209Y-112542206D01*
X46881213Y-112541833D01*
X46738831Y-112540517D01*
X46631348Y-112538091D01*
X46555053Y-112534388D01*
X46506233Y-112529242D01*
X46481173Y-112522485D01*
X46475736Y-112515875D01*
X46481245Y-112492093D01*
X46497013Y-112430257D01*
X46522290Y-112333189D01*
X46556327Y-112203712D01*
X46598374Y-112044649D01*
X46647682Y-111858823D01*
X46703501Y-111649056D01*
X46765081Y-111418172D01*
X46831674Y-111168991D01*
X46902529Y-110904339D01*
X46976897Y-110627036D01*
X47011074Y-110499750D01*
X47545511Y-108510083D01*
X47973255Y-108504353D01*
X48124196Y-108502885D01*
X48237278Y-108503217D01*
X48237278Y-108503217D01*
G37*
X48237278Y-108503217D02*
X48316947Y-108505571D01*
X48367648Y-108510167D01*
X48393826Y-108517225D01*
X48400114Y-108525520D01*
X48394600Y-108549808D01*
X48378916Y-108611761D01*
X48353910Y-108708171D01*
X48320432Y-108835829D01*
X48279330Y-108991525D01*
X48231455Y-109172052D01*
X48177655Y-109374202D01*
X48118781Y-109594764D01*
X48055681Y-109830531D01*
X47989204Y-110078293D01*
X47981178Y-110108166D01*
X47563129Y-111663916D01*
X47886814Y-111669745D01*
X47998479Y-111672702D01*
X48093520Y-111677021D01*
X48164683Y-111682229D01*
X48204712Y-111687852D01*
X48210827Y-111690912D01*
X48205677Y-111715182D01*
X48191128Y-111773851D01*
X48168844Y-111860458D01*
X48140492Y-111968541D01*
X48107736Y-112091638D01*
X48102612Y-112110754D01*
X47994069Y-112515259D01*
X47821826Y-112528669D01*
X47753919Y-112532275D01*
X47651376Y-112535524D01*
X47521893Y-112538279D01*
X47373168Y-112540402D01*
X47212897Y-112541757D01*
X47062209Y-112542206D01*
X46881213Y-112541833D01*
X46738831Y-112540517D01*
X46631348Y-112538091D01*
X46555053Y-112534388D01*
X46506233Y-112529242D01*
X46481173Y-112522485D01*
X46475736Y-112515875D01*
X46481245Y-112492093D01*
X46497013Y-112430257D01*
X46522290Y-112333189D01*
X46556327Y-112203712D01*
X46598374Y-112044649D01*
X46647682Y-111858823D01*
X46703501Y-111649056D01*
X46765081Y-111418172D01*
X46831674Y-111168991D01*
X46902529Y-110904339D01*
X46976897Y-110627036D01*
X47011074Y-110499750D01*
X47545511Y-108510083D01*
X47973255Y-108504353D01*
X48124196Y-108502885D01*
X48237278Y-108503217D01*
G36*
X37029538Y-108909151D02*
G01*
X37329506Y-109319066D01*
X37185357Y-109856455D01*
X37041207Y-110393844D01*
X36509428Y-110764297D01*
X36376215Y-110857308D01*
X36253857Y-110943142D01*
X36146788Y-111018659D01*
X36059441Y-111080715D01*
X35996249Y-111126169D01*
X35961645Y-111151880D01*
X35956818Y-111155916D01*
X35960496Y-111181475D01*
X35986703Y-111242285D01*
X36035208Y-111337902D01*
X36105782Y-111467879D01*
X36198196Y-111631772D01*
X36239008Y-111702881D01*
X36542030Y-112228680D01*
X36506458Y-112369631D01*
X36470886Y-112510583D01*
X35568185Y-112510583D01*
X35196148Y-111859708D01*
X34824112Y-111208833D01*
X33655393Y-111208833D01*
X33489852Y-111827958D01*
X33447978Y-111984554D01*
X33409333Y-112129040D01*
X33375358Y-112256035D01*
X33347492Y-112360159D01*
X33327175Y-112436032D01*
X33315847Y-112478274D01*
X33314271Y-112484125D01*
X33307674Y-112496676D01*
X33291990Y-112506043D01*
X33261750Y-112512684D01*
X33211485Y-112517058D01*
X33135728Y-112519624D01*
X33029010Y-112520840D01*
X32885863Y-112521165D01*
X32872781Y-112521166D01*
X32742873Y-112520426D01*
X32628693Y-112518360D01*
X32536507Y-112515198D01*
X32472579Y-112511172D01*
X32443173Y-112506511D01*
X32441949Y-112505291D01*
X32447410Y-112483031D01*
X32463116Y-112422693D01*
X32488319Y-112327080D01*
X32522273Y-112198996D01*
X32564229Y-112041245D01*
X32613441Y-111856629D01*
X32669160Y-111647952D01*
X32730638Y-111418017D01*
X32797129Y-111169627D01*
X32867885Y-110905587D01*
X32942158Y-110628699D01*
X32976772Y-110499750D01*
X33029886Y-110301925D01*
X33909363Y-110301925D01*
X33913192Y-110315877D01*
X33921824Y-110322112D01*
X33934386Y-110325373D01*
X33937589Y-110326161D01*
X33965935Y-110328203D01*
X34032312Y-110330205D01*
X34132416Y-110332117D01*
X34261944Y-110333887D01*
X34416594Y-110335465D01*
X34592061Y-110336800D01*
X34784044Y-110337842D01*
X34988238Y-110338540D01*
X34989962Y-110338544D01*
X36004006Y-110340999D01*
X36117087Y-110253759D01*
X36173887Y-110209113D01*
X36214484Y-110175631D01*
X36230165Y-110160500D01*
X36230167Y-110160468D01*
X36235391Y-110139032D01*
X36249795Y-110083926D01*
X36271475Y-110002336D01*
X36298525Y-109901448D01*
X36314310Y-109842903D01*
X36398452Y-109531389D01*
X36340768Y-109449670D01*
X36283084Y-109367952D01*
X34147828Y-109377916D01*
X34036059Y-109790666D01*
X33992765Y-109950480D01*
X33959505Y-110074131D01*
X33935407Y-110166360D01*
X33919598Y-110231908D01*
X33911208Y-110275516D01*
X33909363Y-110301925D01*
X33029886Y-110301925D01*
X33510979Y-108510083D01*
X35120274Y-108504660D01*
X36729569Y-108499238D01*
X37029538Y-108909151D01*
X37029538Y-108909151D01*
G37*
X37029538Y-108909151D02*
X37329506Y-109319066D01*
X37185357Y-109856455D01*
X37041207Y-110393844D01*
X36509428Y-110764297D01*
X36376215Y-110857308D01*
X36253857Y-110943142D01*
X36146788Y-111018659D01*
X36059441Y-111080715D01*
X35996249Y-111126169D01*
X35961645Y-111151880D01*
X35956818Y-111155916D01*
X35960496Y-111181475D01*
X35986703Y-111242285D01*
X36035208Y-111337902D01*
X36105782Y-111467879D01*
X36198196Y-111631772D01*
X36239008Y-111702881D01*
X36542030Y-112228680D01*
X36506458Y-112369631D01*
X36470886Y-112510583D01*
X35568185Y-112510583D01*
X35196148Y-111859708D01*
X34824112Y-111208833D01*
X33655393Y-111208833D01*
X33489852Y-111827958D01*
X33447978Y-111984554D01*
X33409333Y-112129040D01*
X33375358Y-112256035D01*
X33347492Y-112360159D01*
X33327175Y-112436032D01*
X33315847Y-112478274D01*
X33314271Y-112484125D01*
X33307674Y-112496676D01*
X33291990Y-112506043D01*
X33261750Y-112512684D01*
X33211485Y-112517058D01*
X33135728Y-112519624D01*
X33029010Y-112520840D01*
X32885863Y-112521165D01*
X32872781Y-112521166D01*
X32742873Y-112520426D01*
X32628693Y-112518360D01*
X32536507Y-112515198D01*
X32472579Y-112511172D01*
X32443173Y-112506511D01*
X32441949Y-112505291D01*
X32447410Y-112483031D01*
X32463116Y-112422693D01*
X32488319Y-112327080D01*
X32522273Y-112198996D01*
X32564229Y-112041245D01*
X32613441Y-111856629D01*
X32669160Y-111647952D01*
X32730638Y-111418017D01*
X32797129Y-111169627D01*
X32867885Y-110905587D01*
X32942158Y-110628699D01*
X32976772Y-110499750D01*
X33029886Y-110301925D01*
X33909363Y-110301925D01*
X33913192Y-110315877D01*
X33921824Y-110322112D01*
X33934386Y-110325373D01*
X33937589Y-110326161D01*
X33965935Y-110328203D01*
X34032312Y-110330205D01*
X34132416Y-110332117D01*
X34261944Y-110333887D01*
X34416594Y-110335465D01*
X34592061Y-110336800D01*
X34784044Y-110337842D01*
X34988238Y-110338540D01*
X34989962Y-110338544D01*
X36004006Y-110340999D01*
X36117087Y-110253759D01*
X36173887Y-110209113D01*
X36214484Y-110175631D01*
X36230165Y-110160500D01*
X36230167Y-110160468D01*
X36235391Y-110139032D01*
X36249795Y-110083926D01*
X36271475Y-110002336D01*
X36298525Y-109901448D01*
X36314310Y-109842903D01*
X36398452Y-109531389D01*
X36340768Y-109449670D01*
X36283084Y-109367952D01*
X34147828Y-109377916D01*
X34036059Y-109790666D01*
X33992765Y-109950480D01*
X33959505Y-110074131D01*
X33935407Y-110166360D01*
X33919598Y-110231908D01*
X33911208Y-110275516D01*
X33909363Y-110301925D01*
X33029886Y-110301925D01*
X33510979Y-108510083D01*
X35120274Y-108504660D01*
X36729569Y-108499238D01*
X37029538Y-108909151D01*
G36*
X41723690Y-108758677D02*
G01*
X41691456Y-108878951D01*
X41657709Y-109004513D01*
X41626863Y-109118959D01*
X41606910Y-109192708D01*
X41559529Y-109367333D01*
X40134524Y-109367333D01*
X39853674Y-109367384D01*
X39612172Y-109367587D01*
X39407035Y-109368020D01*
X39235279Y-109368760D01*
X39093919Y-109369884D01*
X38979971Y-109371468D01*
X38890450Y-109373590D01*
X38822373Y-109376327D01*
X38772755Y-109379755D01*
X38738612Y-109383951D01*
X38716960Y-109388993D01*
X38704813Y-109394958D01*
X38699189Y-109401922D01*
X38698280Y-109404375D01*
X38688914Y-109437676D01*
X38671046Y-109503249D01*
X38647014Y-109592439D01*
X38619157Y-109696597D01*
X38611016Y-109727166D01*
X38582544Y-109833933D01*
X38557298Y-109928128D01*
X38537605Y-110001109D01*
X38525791Y-110044231D01*
X38524213Y-110049772D01*
X38523834Y-110057872D01*
X38530022Y-110064727D01*
X38546069Y-110070462D01*
X38575267Y-110075202D01*
X38620909Y-110079072D01*
X38686288Y-110082196D01*
X38774697Y-110084700D01*
X38889429Y-110086708D01*
X39033776Y-110088346D01*
X39211030Y-110089738D01*
X39424486Y-110091010D01*
X39640166Y-110092105D01*
X40766900Y-110097583D01*
X39679398Y-110954833D01*
X38286617Y-110954833D01*
X38264723Y-111023625D01*
X38250766Y-111070964D01*
X38229147Y-111148377D01*
X38202865Y-111244971D01*
X38176065Y-111345517D01*
X38149535Y-111445124D01*
X38126195Y-111530976D01*
X38108513Y-111594108D01*
X38098960Y-111625557D01*
X38098802Y-111625975D01*
X38103508Y-111631517D01*
X38123924Y-111636297D01*
X38162656Y-111640364D01*
X38222312Y-111643769D01*
X38305500Y-111646563D01*
X38414828Y-111648797D01*
X38552902Y-111650520D01*
X38722331Y-111651785D01*
X38925722Y-111652640D01*
X39165682Y-111653137D01*
X39444819Y-111653327D01*
X39508736Y-111653333D01*
X39789077Y-111653385D01*
X40030046Y-111653592D01*
X40234605Y-111654029D01*
X40405714Y-111654774D01*
X40546334Y-111655902D01*
X40659427Y-111657489D01*
X40747954Y-111659611D01*
X40814876Y-111662345D01*
X40863154Y-111665766D01*
X40895750Y-111669950D01*
X40915624Y-111674974D01*
X40925738Y-111680914D01*
X40929053Y-111687846D01*
X40929167Y-111689833D01*
X40923833Y-111722392D01*
X40909152Y-111787552D01*
X40887101Y-111877123D01*
X40859662Y-111982917D01*
X40846040Y-112033791D01*
X40814663Y-112150045D01*
X40785272Y-112259294D01*
X40760574Y-112351457D01*
X40743273Y-112416454D01*
X40739391Y-112431208D01*
X40715868Y-112521166D01*
X38854018Y-112521166D01*
X38577335Y-112520990D01*
X38313099Y-112520479D01*
X38064328Y-112519658D01*
X37834042Y-112518554D01*
X37625261Y-112517191D01*
X37441004Y-112515597D01*
X37284291Y-112513796D01*
X37158142Y-112511815D01*
X37065576Y-112509679D01*
X37009612Y-112507414D01*
X36993036Y-112505291D01*
X36998535Y-112483031D01*
X37014281Y-112422694D01*
X37039528Y-112327084D01*
X37073526Y-112199003D01*
X37115527Y-112041254D01*
X37164784Y-111856642D01*
X37220547Y-111647969D01*
X37282070Y-111418038D01*
X37348602Y-111169653D01*
X37419397Y-110905617D01*
X37493706Y-110628733D01*
X37528345Y-110499750D01*
X38062785Y-108510083D01*
X39927936Y-108504677D01*
X41793088Y-108499271D01*
X41723690Y-108758677D01*
X41723690Y-108758677D01*
G37*
X41723690Y-108758677D02*
X41691456Y-108878951D01*
X41657709Y-109004513D01*
X41626863Y-109118959D01*
X41606910Y-109192708D01*
X41559529Y-109367333D01*
X40134524Y-109367333D01*
X39853674Y-109367384D01*
X39612172Y-109367587D01*
X39407035Y-109368020D01*
X39235279Y-109368760D01*
X39093919Y-109369884D01*
X38979971Y-109371468D01*
X38890450Y-109373590D01*
X38822373Y-109376327D01*
X38772755Y-109379755D01*
X38738612Y-109383951D01*
X38716960Y-109388993D01*
X38704813Y-109394958D01*
X38699189Y-109401922D01*
X38698280Y-109404375D01*
X38688914Y-109437676D01*
X38671046Y-109503249D01*
X38647014Y-109592439D01*
X38619157Y-109696597D01*
X38611016Y-109727166D01*
X38582544Y-109833933D01*
X38557298Y-109928128D01*
X38537605Y-110001109D01*
X38525791Y-110044231D01*
X38524213Y-110049772D01*
X38523834Y-110057872D01*
X38530022Y-110064727D01*
X38546069Y-110070462D01*
X38575267Y-110075202D01*
X38620909Y-110079072D01*
X38686288Y-110082196D01*
X38774697Y-110084700D01*
X38889429Y-110086708D01*
X39033776Y-110088346D01*
X39211030Y-110089738D01*
X39424486Y-110091010D01*
X39640166Y-110092105D01*
X40766900Y-110097583D01*
X39679398Y-110954833D01*
X38286617Y-110954833D01*
X38264723Y-111023625D01*
X38250766Y-111070964D01*
X38229147Y-111148377D01*
X38202865Y-111244971D01*
X38176065Y-111345517D01*
X38149535Y-111445124D01*
X38126195Y-111530976D01*
X38108513Y-111594108D01*
X38098960Y-111625557D01*
X38098802Y-111625975D01*
X38103508Y-111631517D01*
X38123924Y-111636297D01*
X38162656Y-111640364D01*
X38222312Y-111643769D01*
X38305500Y-111646563D01*
X38414828Y-111648797D01*
X38552902Y-111650520D01*
X38722331Y-111651785D01*
X38925722Y-111652640D01*
X39165682Y-111653137D01*
X39444819Y-111653327D01*
X39508736Y-111653333D01*
X39789077Y-111653385D01*
X40030046Y-111653592D01*
X40234605Y-111654029D01*
X40405714Y-111654774D01*
X40546334Y-111655902D01*
X40659427Y-111657489D01*
X40747954Y-111659611D01*
X40814876Y-111662345D01*
X40863154Y-111665766D01*
X40895750Y-111669950D01*
X40915624Y-111674974D01*
X40925738Y-111680914D01*
X40929053Y-111687846D01*
X40929167Y-111689833D01*
X40923833Y-111722392D01*
X40909152Y-111787552D01*
X40887101Y-111877123D01*
X40859662Y-111982917D01*
X40846040Y-112033791D01*
X40814663Y-112150045D01*
X40785272Y-112259294D01*
X40760574Y-112351457D01*
X40743273Y-112416454D01*
X40739391Y-112431208D01*
X40715868Y-112521166D01*
X38854018Y-112521166D01*
X38577335Y-112520990D01*
X38313099Y-112520479D01*
X38064328Y-112519658D01*
X37834042Y-112518554D01*
X37625261Y-112517191D01*
X37441004Y-112515597D01*
X37284291Y-112513796D01*
X37158142Y-112511815D01*
X37065576Y-112509679D01*
X37009612Y-112507414D01*
X36993036Y-112505291D01*
X36998535Y-112483031D01*
X37014281Y-112422694D01*
X37039528Y-112327084D01*
X37073526Y-112199003D01*
X37115527Y-112041254D01*
X37164784Y-111856642D01*
X37220547Y-111647969D01*
X37282070Y-111418038D01*
X37348602Y-111169653D01*
X37419397Y-110905617D01*
X37493706Y-110628733D01*
X37528345Y-110499750D01*
X38062785Y-108510083D01*
X39927936Y-108504677D01*
X41793088Y-108499271D01*
X41723690Y-108758677D01*
G36*
X45812614Y-108499661D02*
G01*
X46120497Y-108500159D01*
X46389238Y-108501013D01*
X46620432Y-108502244D01*
X46815675Y-108503873D01*
X46976563Y-108505920D01*
X47104690Y-108508404D01*
X47201651Y-108511348D01*
X47269043Y-108514770D01*
X47308460Y-108518691D01*
X47321497Y-108523132D01*
X47321500Y-108523204D01*
X47316242Y-108550099D01*
X47301576Y-108611269D01*
X47279168Y-108700130D01*
X47250684Y-108810097D01*
X47217787Y-108934586D01*
X47211808Y-108956974D01*
X47102116Y-109367039D01*
X45673918Y-109372478D01*
X44245720Y-109377916D01*
X44154266Y-109716583D01*
X44123725Y-109830477D01*
X44097453Y-109929978D01*
X44077300Y-110007950D01*
X44065118Y-110057258D01*
X44062322Y-110070939D01*
X44082746Y-110074022D01*
X44141616Y-110077107D01*
X44235045Y-110080120D01*
X44359146Y-110082989D01*
X44510032Y-110085639D01*
X44683816Y-110087998D01*
X44876611Y-110089993D01*
X45084530Y-110091550D01*
X45185532Y-110092106D01*
X46309230Y-110097583D01*
X45772907Y-110520916D01*
X45236584Y-110944250D01*
X44528591Y-110954833D01*
X43820599Y-110965416D01*
X43627212Y-111685083D01*
X43581561Y-111855091D01*
X43538926Y-112014092D01*
X43500677Y-112156966D01*
X43468182Y-112278590D01*
X43442810Y-112373841D01*
X43425931Y-112437598D01*
X43419343Y-112462958D01*
X43404860Y-112521166D01*
X42971347Y-112521166D01*
X42841049Y-112520429D01*
X42726405Y-112518371D01*
X42633681Y-112515222D01*
X42569142Y-112511210D01*
X42539053Y-112506565D01*
X42537646Y-112505291D01*
X42542983Y-112483031D01*
X42558550Y-112422684D01*
X42583604Y-112327052D01*
X42617402Y-112198934D01*
X42659198Y-112041130D01*
X42708248Y-111856440D01*
X42763810Y-111647665D01*
X42825138Y-111417604D01*
X42891489Y-111169057D01*
X42962118Y-110904824D01*
X43036283Y-110627706D01*
X43071974Y-110494458D01*
X43606490Y-108499500D01*
X45463995Y-108499500D01*
X45812614Y-108499661D01*
X45812614Y-108499661D01*
G37*
X45812614Y-108499661D02*
X46120497Y-108500159D01*
X46389238Y-108501013D01*
X46620432Y-108502244D01*
X46815675Y-108503873D01*
X46976563Y-108505920D01*
X47104690Y-108508404D01*
X47201651Y-108511348D01*
X47269043Y-108514770D01*
X47308460Y-108518691D01*
X47321497Y-108523132D01*
X47321500Y-108523204D01*
X47316242Y-108550099D01*
X47301576Y-108611269D01*
X47279168Y-108700130D01*
X47250684Y-108810097D01*
X47217787Y-108934586D01*
X47211808Y-108956974D01*
X47102116Y-109367039D01*
X45673918Y-109372478D01*
X44245720Y-109377916D01*
X44154266Y-109716583D01*
X44123725Y-109830477D01*
X44097453Y-109929978D01*
X44077300Y-110007950D01*
X44065118Y-110057258D01*
X44062322Y-110070939D01*
X44082746Y-110074022D01*
X44141616Y-110077107D01*
X44235045Y-110080120D01*
X44359146Y-110082989D01*
X44510032Y-110085639D01*
X44683816Y-110087998D01*
X44876611Y-110089993D01*
X45084530Y-110091550D01*
X45185532Y-110092106D01*
X46309230Y-110097583D01*
X45772907Y-110520916D01*
X45236584Y-110944250D01*
X44528591Y-110954833D01*
X43820599Y-110965416D01*
X43627212Y-111685083D01*
X43581561Y-111855091D01*
X43538926Y-112014092D01*
X43500677Y-112156966D01*
X43468182Y-112278590D01*
X43442810Y-112373841D01*
X43425931Y-112437598D01*
X43419343Y-112462958D01*
X43404860Y-112521166D01*
X42971347Y-112521166D01*
X42841049Y-112520429D01*
X42726405Y-112518371D01*
X42633681Y-112515222D01*
X42569142Y-112511210D01*
X42539053Y-112506565D01*
X42537646Y-112505291D01*
X42542983Y-112483031D01*
X42558550Y-112422684D01*
X42583604Y-112327052D01*
X42617402Y-112198934D01*
X42659198Y-112041130D01*
X42708248Y-111856440D01*
X42763810Y-111647665D01*
X42825138Y-111417604D01*
X42891489Y-111169057D01*
X42962118Y-110904824D01*
X43036283Y-110627706D01*
X43071974Y-110494458D01*
X43606490Y-108499500D01*
X45463995Y-108499500D01*
X45812614Y-108499661D01*
G36*
X51991396Y-109657834D02*
G01*
X52074191Y-109771936D01*
X52147612Y-109875976D01*
X52208150Y-109964747D01*
X52252298Y-110033043D01*
X52276548Y-110075654D01*
X52280123Y-110086459D01*
X52273818Y-110117181D01*
X52257962Y-110182162D01*
X52234313Y-110274867D01*
X52204626Y-110388762D01*
X52170659Y-110517310D01*
X52134167Y-110653976D01*
X52096909Y-110792226D01*
X52060640Y-110925522D01*
X52027118Y-111047331D01*
X51998098Y-111151116D01*
X51975339Y-111230343D01*
X51960596Y-111278475D01*
X51957137Y-111288036D01*
X51936898Y-111335488D01*
X50714783Y-111340952D01*
X49492667Y-111346416D01*
X49473711Y-111426582D01*
X49465235Y-111482786D01*
X49474929Y-111529203D01*
X49507322Y-111586162D01*
X49510261Y-111590623D01*
X49565767Y-111674500D01*
X50708467Y-111674500D01*
X50923976Y-111674740D01*
X51126221Y-111675430D01*
X51311345Y-111676525D01*
X51475492Y-111677980D01*
X51614803Y-111679750D01*
X51725423Y-111681790D01*
X51803495Y-111684054D01*
X51845162Y-111686497D01*
X51851167Y-111687868D01*
X51845953Y-111711502D01*
X51831411Y-111769642D01*
X51809186Y-111855907D01*
X51780926Y-111963918D01*
X51748276Y-112087293D01*
X51741911Y-112111201D01*
X51632654Y-112521166D01*
X50371369Y-112520583D01*
X49110084Y-112520001D01*
X48824334Y-112126530D01*
X48742945Y-112013767D01*
X48670781Y-111912457D01*
X48611309Y-111827577D01*
X48567998Y-111764107D01*
X48544316Y-111727026D01*
X48540918Y-111719655D01*
X48546707Y-111696931D01*
X48562244Y-111637720D01*
X48586358Y-111546438D01*
X48617880Y-111427500D01*
X48655639Y-111285319D01*
X48698464Y-111124310D01*
X48745185Y-110948888D01*
X48762250Y-110884867D01*
X48853728Y-110541763D01*
X49713334Y-110541763D01*
X49733728Y-110544218D01*
X49791826Y-110546479D01*
X49882998Y-110548484D01*
X50002612Y-110550168D01*
X50146040Y-110551468D01*
X50308652Y-110552321D01*
X50485816Y-110552663D01*
X50506263Y-110552666D01*
X51299193Y-110552666D01*
X51331763Y-110442991D01*
X51354004Y-110362134D01*
X51361358Y-110307532D01*
X51352608Y-110265374D01*
X51326535Y-110221851D01*
X51310340Y-110200122D01*
X51256346Y-110129333D01*
X49982529Y-110129333D01*
X49882551Y-110205577D01*
X49820977Y-110258092D01*
X49782851Y-110309905D01*
X49755694Y-110379628D01*
X49747953Y-110406341D01*
X49729684Y-110473702D01*
X49717139Y-110523120D01*
X49713334Y-110541763D01*
X48853728Y-110541763D01*
X48981247Y-110063485D01*
X49490165Y-109662692D01*
X49999084Y-109261900D01*
X50849541Y-109261700D01*
X51699999Y-109261499D01*
X51991396Y-109657834D01*
X51991396Y-109657834D01*
G37*
X51991396Y-109657834D02*
X52074191Y-109771936D01*
X52147612Y-109875976D01*
X52208150Y-109964747D01*
X52252298Y-110033043D01*
X52276548Y-110075654D01*
X52280123Y-110086459D01*
X52273818Y-110117181D01*
X52257962Y-110182162D01*
X52234313Y-110274867D01*
X52204626Y-110388762D01*
X52170659Y-110517310D01*
X52134167Y-110653976D01*
X52096909Y-110792226D01*
X52060640Y-110925522D01*
X52027118Y-111047331D01*
X51998098Y-111151116D01*
X51975339Y-111230343D01*
X51960596Y-111278475D01*
X51957137Y-111288036D01*
X51936898Y-111335488D01*
X50714783Y-111340952D01*
X49492667Y-111346416D01*
X49473711Y-111426582D01*
X49465235Y-111482786D01*
X49474929Y-111529203D01*
X49507322Y-111586162D01*
X49510261Y-111590623D01*
X49565767Y-111674500D01*
X50708467Y-111674500D01*
X50923976Y-111674740D01*
X51126221Y-111675430D01*
X51311345Y-111676525D01*
X51475492Y-111677980D01*
X51614803Y-111679750D01*
X51725423Y-111681790D01*
X51803495Y-111684054D01*
X51845162Y-111686497D01*
X51851167Y-111687868D01*
X51845953Y-111711502D01*
X51831411Y-111769642D01*
X51809186Y-111855907D01*
X51780926Y-111963918D01*
X51748276Y-112087293D01*
X51741911Y-112111201D01*
X51632654Y-112521166D01*
X50371369Y-112520583D01*
X49110084Y-112520001D01*
X48824334Y-112126530D01*
X48742945Y-112013767D01*
X48670781Y-111912457D01*
X48611309Y-111827577D01*
X48567998Y-111764107D01*
X48544316Y-111727026D01*
X48540918Y-111719655D01*
X48546707Y-111696931D01*
X48562244Y-111637720D01*
X48586358Y-111546438D01*
X48617880Y-111427500D01*
X48655639Y-111285319D01*
X48698464Y-111124310D01*
X48745185Y-110948888D01*
X48762250Y-110884867D01*
X48853728Y-110541763D01*
X49713334Y-110541763D01*
X49733728Y-110544218D01*
X49791826Y-110546479D01*
X49882998Y-110548484D01*
X50002612Y-110550168D01*
X50146040Y-110551468D01*
X50308652Y-110552321D01*
X50485816Y-110552663D01*
X50506263Y-110552666D01*
X51299193Y-110552666D01*
X51331763Y-110442991D01*
X51354004Y-110362134D01*
X51361358Y-110307532D01*
X51352608Y-110265374D01*
X51326535Y-110221851D01*
X51310340Y-110200122D01*
X51256346Y-110129333D01*
X49982529Y-110129333D01*
X49882551Y-110205577D01*
X49820977Y-110258092D01*
X49782851Y-110309905D01*
X49755694Y-110379628D01*
X49747953Y-110406341D01*
X49729684Y-110473702D01*
X49717139Y-110523120D01*
X49713334Y-110541763D01*
X48853728Y-110541763D01*
X48981247Y-110063485D01*
X49490165Y-109662692D01*
X49999084Y-109261900D01*
X50849541Y-109261700D01*
X51699999Y-109261499D01*
X51991396Y-109657834D01*
G36*
X55935230Y-109262208D02*
G01*
X56053217Y-109264470D01*
X56135923Y-109268488D01*
X56186862Y-109274467D01*
X56209548Y-109282609D01*
X56211500Y-109286569D01*
X56206087Y-109319458D01*
X56192095Y-109378430D01*
X56177862Y-109431526D01*
X56144223Y-109551413D01*
X55406241Y-110211812D01*
X54668259Y-110872212D01*
X54740249Y-111003481D01*
X54769004Y-111055955D01*
X54814758Y-111139499D01*
X54874187Y-111248044D01*
X54943971Y-111375523D01*
X55020787Y-111515868D01*
X55101313Y-111663011D01*
X55117828Y-111693190D01*
X55423417Y-112251631D01*
X55350423Y-112510583D01*
X54907837Y-112516087D01*
X54465250Y-112521591D01*
X54243854Y-112113920D01*
X54176010Y-111989144D01*
X54112299Y-111872242D01*
X54056434Y-111770008D01*
X54012129Y-111689235D01*
X53983098Y-111636715D01*
X53977646Y-111626996D01*
X53932834Y-111547743D01*
X53405292Y-112033597D01*
X52877750Y-112519452D01*
X52438542Y-112520309D01*
X52273443Y-112519736D01*
X52148810Y-112517227D01*
X52062817Y-112512691D01*
X52013637Y-112506034D01*
X51999334Y-112497966D01*
X52004906Y-112466032D01*
X52019268Y-112408202D01*
X52032892Y-112359327D01*
X52041428Y-112331919D01*
X52051961Y-112305944D01*
X52067227Y-112278586D01*
X52089963Y-112247026D01*
X52122905Y-112208445D01*
X52168790Y-112160027D01*
X52230354Y-112098952D01*
X52310333Y-112022403D01*
X52411464Y-111927561D01*
X52536483Y-111811610D01*
X52688127Y-111671730D01*
X52805476Y-111563689D01*
X52954065Y-111426544D01*
X53092673Y-111297868D01*
X53218260Y-111180538D01*
X53327787Y-111077427D01*
X53418214Y-110991412D01*
X53486502Y-110925366D01*
X53529610Y-110882165D01*
X53544500Y-110864712D01*
X53534185Y-110842686D01*
X53504848Y-110788407D01*
X53458901Y-110706130D01*
X53398755Y-110600109D01*
X53326823Y-110474598D01*
X53245517Y-110333850D01*
X53165251Y-110195834D01*
X52786001Y-109545732D01*
X52823455Y-109408908D01*
X52860909Y-109272083D01*
X53739094Y-109272083D01*
X54011125Y-109737750D01*
X54085335Y-109863809D01*
X54152827Y-109976602D01*
X54210633Y-110071315D01*
X54255781Y-110143135D01*
X54285302Y-110187246D01*
X54295931Y-110199350D01*
X54314170Y-110184707D01*
X54360033Y-110145027D01*
X54429740Y-110083664D01*
X54519511Y-110003969D01*
X54625566Y-109909293D01*
X54744126Y-109802989D01*
X54827049Y-109728391D01*
X55345392Y-109261499D01*
X55778446Y-109261499D01*
X55935230Y-109262208D01*
X55935230Y-109262208D01*
G37*
X55935230Y-109262208D02*
X56053217Y-109264470D01*
X56135923Y-109268488D01*
X56186862Y-109274467D01*
X56209548Y-109282609D01*
X56211500Y-109286569D01*
X56206087Y-109319458D01*
X56192095Y-109378430D01*
X56177862Y-109431526D01*
X56144223Y-109551413D01*
X55406241Y-110211812D01*
X54668259Y-110872212D01*
X54740249Y-111003481D01*
X54769004Y-111055955D01*
X54814758Y-111139499D01*
X54874187Y-111248044D01*
X54943971Y-111375523D01*
X55020787Y-111515868D01*
X55101313Y-111663011D01*
X55117828Y-111693190D01*
X55423417Y-112251631D01*
X55350423Y-112510583D01*
X54907837Y-112516087D01*
X54465250Y-112521591D01*
X54243854Y-112113920D01*
X54176010Y-111989144D01*
X54112299Y-111872242D01*
X54056434Y-111770008D01*
X54012129Y-111689235D01*
X53983098Y-111636715D01*
X53977646Y-111626996D01*
X53932834Y-111547743D01*
X53405292Y-112033597D01*
X52877750Y-112519452D01*
X52438542Y-112520309D01*
X52273443Y-112519736D01*
X52148810Y-112517227D01*
X52062817Y-112512691D01*
X52013637Y-112506034D01*
X51999334Y-112497966D01*
X52004906Y-112466032D01*
X52019268Y-112408202D01*
X52032892Y-112359327D01*
X52041428Y-112331919D01*
X52051961Y-112305944D01*
X52067227Y-112278586D01*
X52089963Y-112247026D01*
X52122905Y-112208445D01*
X52168790Y-112160027D01*
X52230354Y-112098952D01*
X52310333Y-112022403D01*
X52411464Y-111927561D01*
X52536483Y-111811610D01*
X52688127Y-111671730D01*
X52805476Y-111563689D01*
X52954065Y-111426544D01*
X53092673Y-111297868D01*
X53218260Y-111180538D01*
X53327787Y-111077427D01*
X53418214Y-110991412D01*
X53486502Y-110925366D01*
X53529610Y-110882165D01*
X53544500Y-110864712D01*
X53534185Y-110842686D01*
X53504848Y-110788407D01*
X53458901Y-110706130D01*
X53398755Y-110600109D01*
X53326823Y-110474598D01*
X53245517Y-110333850D01*
X53165251Y-110195834D01*
X52786001Y-109545732D01*
X52823455Y-109408908D01*
X52860909Y-109272083D01*
X53739094Y-109272083D01*
X54011125Y-109737750D01*
X54085335Y-109863809D01*
X54152827Y-109976602D01*
X54210633Y-110071315D01*
X54255781Y-110143135D01*
X54285302Y-110187246D01*
X54295931Y-110199350D01*
X54314170Y-110184707D01*
X54360033Y-110145027D01*
X54429740Y-110083664D01*
X54519511Y-110003969D01*
X54625566Y-109909293D01*
X54744126Y-109802989D01*
X54827049Y-109728391D01*
X55345392Y-109261499D01*
X55778446Y-109261499D01*
X55935230Y-109262208D01*
G36*
X42182310Y-110891598D02*
G01*
X42287775Y-110892721D01*
X42361806Y-110895190D01*
X42409852Y-110899494D01*
X42437363Y-110906123D01*
X42449786Y-110915566D01*
X42452573Y-110928312D01*
X42452572Y-110928375D01*
X42447076Y-110959904D01*
X42432161Y-111025089D01*
X42409590Y-111116758D01*
X42381129Y-111227738D01*
X42349735Y-111346416D01*
X42247493Y-111727416D01*
X41821163Y-111733146D01*
X41692036Y-111734112D01*
X41578628Y-111733489D01*
X41487252Y-111731433D01*
X41424219Y-111728102D01*
X41395839Y-111723652D01*
X41394872Y-111722563D01*
X41400263Y-111694516D01*
X41414947Y-111633780D01*
X41436750Y-111548418D01*
X41463499Y-111446491D01*
X41493023Y-111336061D01*
X41523148Y-111225192D01*
X41551702Y-111121945D01*
X41576512Y-111034384D01*
X41595406Y-110970569D01*
X41606036Y-110938958D01*
X41614329Y-110922616D01*
X41626831Y-110910518D01*
X41649355Y-110902026D01*
X41687714Y-110896503D01*
X41747721Y-110893309D01*
X41835189Y-110891808D01*
X41955933Y-110891361D01*
X42039963Y-110891333D01*
X42182310Y-110891598D01*
X42182310Y-110891598D01*
G37*
X42182310Y-110891598D02*
X42287775Y-110892721D01*
X42361806Y-110895190D01*
X42409852Y-110899494D01*
X42437363Y-110906123D01*
X42449786Y-110915566D01*
X42452573Y-110928312D01*
X42452572Y-110928375D01*
X42447076Y-110959904D01*
X42432161Y-111025089D01*
X42409590Y-111116758D01*
X42381129Y-111227738D01*
X42349735Y-111346416D01*
X42247493Y-111727416D01*
X41821163Y-111733146D01*
X41692036Y-111734112D01*
X41578628Y-111733489D01*
X41487252Y-111731433D01*
X41424219Y-111728102D01*
X41395839Y-111723652D01*
X41394872Y-111722563D01*
X41400263Y-111694516D01*
X41414947Y-111633780D01*
X41436750Y-111548418D01*
X41463499Y-111446491D01*
X41493023Y-111336061D01*
X41523148Y-111225192D01*
X41551702Y-111121945D01*
X41576512Y-111034384D01*
X41595406Y-110970569D01*
X41606036Y-110938958D01*
X41614329Y-110922616D01*
X41626831Y-110910518D01*
X41649355Y-110902026D01*
X41687714Y-110896503D01*
X41747721Y-110893309D01*
X41835189Y-110891808D01*
X41955933Y-110891361D01*
X42039963Y-110891333D01*
X42182310Y-110891598D01*
G36*
X42712385Y-109287170D02*
G01*
X42803925Y-109289212D01*
X42867135Y-109292525D01*
X42895733Y-109296953D01*
X42896755Y-109298103D01*
X42891191Y-109322636D01*
X42876197Y-109381612D01*
X42853452Y-109468622D01*
X42824632Y-109577259D01*
X42791416Y-109701116D01*
X42784389Y-109727166D01*
X42672935Y-110139916D01*
X42245551Y-110145646D01*
X42116296Y-110146612D01*
X42002790Y-110145993D01*
X41911328Y-110143945D01*
X41848204Y-110140623D01*
X41819709Y-110136185D01*
X41818713Y-110135063D01*
X41824144Y-110110524D01*
X41838980Y-110051535D01*
X41861553Y-109964507D01*
X41890200Y-109855848D01*
X41923253Y-109731969D01*
X41930227Y-109706000D01*
X42041195Y-109293250D01*
X42469431Y-109287520D01*
X42598793Y-109286554D01*
X42712385Y-109287170D01*
X42712385Y-109287170D01*
G37*
X42712385Y-109287170D02*
X42803925Y-109289212D01*
X42867135Y-109292525D01*
X42895733Y-109296953D01*
X42896755Y-109298103D01*
X42891191Y-109322636D01*
X42876197Y-109381612D01*
X42853452Y-109468622D01*
X42824632Y-109577259D01*
X42791416Y-109701116D01*
X42784389Y-109727166D01*
X42672935Y-110139916D01*
X42245551Y-110145646D01*
X42116296Y-110146612D01*
X42002790Y-110145993D01*
X41911328Y-110143945D01*
X41848204Y-110140623D01*
X41819709Y-110136185D01*
X41818713Y-110135063D01*
X41824144Y-110110524D01*
X41838980Y-110051535D01*
X41861553Y-109964507D01*
X41890200Y-109855848D01*
X41923253Y-109731969D01*
X41930227Y-109706000D01*
X42041195Y-109293250D01*
X42469431Y-109287520D01*
X42598793Y-109286554D01*
X42712385Y-109287170D01*
D12*
X187500000Y-125500000D02*
X188000000Y-125000000D01*
X187500000Y-124500000D02*
X187500000Y-125500000D01*
X188000000Y-125000000D02*
X187500000Y-124500000D01*
X188185000Y-139080000D02*
X203705000Y-139080000D01*
X203705000Y-121120000D02*
X203705000Y-139080000D01*
X203705000Y-121120000D02*
X188185000Y-121120000D01*
X188185000Y-121120000D02*
X188185000Y-139080000D01*
X237590000Y-119340000D02*
X237590000Y-123600000D01*
X237590000Y-123600000D02*
X249910000Y-123600000D01*
X249910000Y-123600000D02*
X249910000Y-119340000D01*
X237590000Y-115240000D02*
X237590000Y-106880000D01*
X237590000Y-106880000D02*
X249910000Y-106880000D01*
X249910000Y-106880000D02*
X249910000Y-115240000D01*
X242500000Y-123820000D02*
X242000000Y-124320000D01*
X242000000Y-124320000D02*
X243000000Y-124320000D01*
X243000000Y-124320000D02*
X242500000Y-123820000D01*
X118260000Y-114087221D02*
X118260000Y-114412779D01*
X117240000Y-114087221D02*
X117240000Y-114412779D01*
X172510000Y-114299721D02*
X172510000Y-114625279D01*
X171490000Y-114299721D02*
X171490000Y-114625279D01*
X144010000Y-114087221D02*
X144010000Y-114412779D01*
X142990000Y-114087221D02*
X142990000Y-114412779D01*
X109490000Y-114087221D02*
X109490000Y-114412779D01*
X110510000Y-114087221D02*
X110510000Y-114412779D01*
X164710000Y-114237221D02*
X164710000Y-114562779D01*
X163690000Y-114237221D02*
X163690000Y-114562779D01*
X136260000Y-114087221D02*
X136260000Y-114412779D01*
X135240000Y-114087221D02*
X135240000Y-114412779D01*
X235010000Y-129587221D02*
X235010000Y-129912779D01*
X233990000Y-129587221D02*
X233990000Y-129912779D01*
X102760000Y-113587221D02*
X102760000Y-113912779D01*
X101740000Y-113587221D02*
X101740000Y-113912779D01*
X156910000Y-114237221D02*
X156910000Y-114562779D01*
X155890000Y-114237221D02*
X155890000Y-114562779D01*
X127490000Y-114087221D02*
X127490000Y-114412779D01*
X128510000Y-114087221D02*
X128510000Y-114412779D01*
X235010000Y-126662779D02*
X235010000Y-126337221D01*
X233990000Y-126662779D02*
X233990000Y-126337221D01*
X212240000Y-114162779D02*
X212240000Y-113837221D01*
X213260000Y-114162779D02*
X213260000Y-113837221D01*
X205010000Y-114412779D02*
X205010000Y-114087221D01*
X203990000Y-114412779D02*
X203990000Y-114087221D01*
X232510000Y-138162779D02*
X232510000Y-137837221D01*
X231490000Y-138162779D02*
X231490000Y-137837221D01*
X210740000Y-117662779D02*
X210740000Y-117337221D01*
X211760000Y-117662779D02*
X211760000Y-117337221D01*
X221260000Y-117412779D02*
X221260000Y-117087221D01*
X220240000Y-117412779D02*
X220240000Y-117087221D01*
X221260000Y-128412779D02*
X221260000Y-128087221D01*
X220240000Y-128412779D02*
X220240000Y-128087221D01*
X210337221Y-126990000D02*
X210662779Y-126990000D01*
X210337221Y-128010000D02*
X210662779Y-128010000D01*
X210010000Y-117662779D02*
X210010000Y-117337221D01*
X208990000Y-117662779D02*
X208990000Y-117337221D01*
X245250000Y-129000000D02*
X247250000Y-129000000D01*
X247250000Y-129000000D02*
X247250000Y-125100000D01*
X245250000Y-129000000D02*
X245250000Y-125100000D01*
X231950000Y-114735000D02*
X234235000Y-114735000D01*
X234235000Y-114735000D02*
X234235000Y-113265000D01*
X234235000Y-113265000D02*
X231950000Y-113265000D01*
X231950000Y-116485000D02*
X234235000Y-116485000D01*
X234235000Y-116485000D02*
X234235000Y-115015000D01*
X234235000Y-115015000D02*
X231950000Y-115015000D01*
X234235000Y-116765000D02*
X231950000Y-116765000D01*
X234235000Y-118235000D02*
X234235000Y-116765000D01*
X231950000Y-118235000D02*
X234235000Y-118235000D01*
X159685000Y-121120000D02*
X159685000Y-139080000D01*
X175205000Y-121120000D02*
X159685000Y-121120000D01*
X175205000Y-121120000D02*
X175205000Y-139080000D01*
X159685000Y-139080000D02*
X175205000Y-139080000D01*
X159500000Y-125000000D02*
X159000000Y-124500000D01*
X159000000Y-124500000D02*
X159000000Y-125500000D01*
X159000000Y-125500000D02*
X159500000Y-125000000D01*
X219740000Y-137580000D02*
X219740000Y-132380000D01*
X209520000Y-137580000D02*
X219740000Y-137580000D01*
X206920000Y-132380000D02*
X219740000Y-132380000D01*
X209520000Y-137580000D02*
X209520000Y-134980000D01*
X209520000Y-134980000D02*
X206920000Y-134980000D01*
X206920000Y-134980000D02*
X206920000Y-132380000D01*
X208250000Y-137580000D02*
X206920000Y-137580000D01*
X206920000Y-137580000D02*
X206920000Y-136250000D01*
X54350000Y-130700000D02*
X54350000Y-139200000D01*
X54350000Y-139200000D02*
X45150000Y-139200000D01*
X45150000Y-139200000D02*
X45150000Y-124500000D01*
X52250000Y-124500000D02*
X54350000Y-124500000D01*
X54350000Y-124500000D02*
X54350000Y-126300000D01*
X46550000Y-124200000D02*
X44850000Y-124200000D01*
X44850000Y-124200000D02*
X44850000Y-125800000D01*
X45150000Y-124500000D02*
X47250000Y-124500000D01*
X59400000Y-124500000D02*
X61500000Y-124500000D01*
X59100000Y-124200000D02*
X59100000Y-125800000D01*
X60800000Y-124200000D02*
X59100000Y-124200000D01*
X68600000Y-124500000D02*
X68600000Y-126300000D01*
X66500000Y-124500000D02*
X68600000Y-124500000D01*
X59400000Y-139200000D02*
X59400000Y-124500000D01*
X68600000Y-139200000D02*
X59400000Y-139200000D01*
X68600000Y-130700000D02*
X68600000Y-139200000D01*
X82600000Y-130700000D02*
X82600000Y-139200000D01*
X82600000Y-139200000D02*
X73400000Y-139200000D01*
X73400000Y-139200000D02*
X73400000Y-124500000D01*
X80500000Y-124500000D02*
X82600000Y-124500000D01*
X82600000Y-124500000D02*
X82600000Y-126300000D01*
X74800000Y-124200000D02*
X73100000Y-124200000D01*
X73100000Y-124200000D02*
X73100000Y-125800000D01*
X73400000Y-124500000D02*
X75500000Y-124500000D01*
X96600000Y-130700000D02*
X96600000Y-139200000D01*
X96600000Y-139200000D02*
X87400000Y-139200000D01*
X87400000Y-139200000D02*
X87400000Y-124500000D01*
X94500000Y-124500000D02*
X96600000Y-124500000D01*
X96600000Y-124500000D02*
X96600000Y-126300000D01*
X88800000Y-124200000D02*
X87100000Y-124200000D01*
X87100000Y-124200000D02*
X87100000Y-125800000D01*
X87400000Y-124500000D02*
X89500000Y-124500000D01*
X75600000Y-121500000D02*
X73500000Y-121500000D01*
X75900000Y-121800000D02*
X75900000Y-120200000D01*
X74200000Y-121800000D02*
X75900000Y-121800000D01*
X66400000Y-121500000D02*
X66400000Y-119700000D01*
X68500000Y-121500000D02*
X66400000Y-121500000D01*
X75600000Y-106800000D02*
X75600000Y-121500000D01*
X66400000Y-106800000D02*
X75600000Y-106800000D01*
X66400000Y-115300000D02*
X66400000Y-106800000D01*
X233700000Y-111830000D02*
X233700000Y-106630000D01*
X226020000Y-111830000D02*
X233700000Y-111830000D01*
X223420000Y-106630000D02*
X233700000Y-106630000D01*
X226020000Y-111830000D02*
X226020000Y-109230000D01*
X226020000Y-109230000D02*
X223420000Y-109230000D01*
X223420000Y-109230000D02*
X223420000Y-106630000D01*
X224750000Y-111830000D02*
X223420000Y-111830000D01*
X223420000Y-111830000D02*
X223420000Y-110500000D01*
X117240000Y-110837221D02*
X117240000Y-111162779D01*
X118260000Y-110837221D02*
X118260000Y-111162779D01*
X171490000Y-111087221D02*
X171490000Y-111412779D01*
X172510000Y-111087221D02*
X172510000Y-111412779D01*
X142990000Y-110837221D02*
X142990000Y-111162779D01*
X144010000Y-110837221D02*
X144010000Y-111162779D01*
X120010000Y-118087221D02*
X120010000Y-118412779D01*
X118990000Y-118087221D02*
X118990000Y-118412779D01*
X120990000Y-118412779D02*
X120990000Y-118087221D01*
X122010000Y-118412779D02*
X122010000Y-118087221D01*
X124010000Y-118412779D02*
X124010000Y-118087221D01*
X122990000Y-118412779D02*
X122990000Y-118087221D01*
X173290000Y-118037221D02*
X173290000Y-118362779D01*
X174310000Y-118037221D02*
X174310000Y-118362779D01*
X175290000Y-118362779D02*
X175290000Y-118037221D01*
X176310000Y-118362779D02*
X176310000Y-118037221D01*
X178310000Y-118362779D02*
X178310000Y-118037221D01*
X177290000Y-118362779D02*
X177290000Y-118037221D01*
X145760000Y-118124721D02*
X145760000Y-118450279D01*
X144740000Y-118124721D02*
X144740000Y-118450279D01*
X146740000Y-118412779D02*
X146740000Y-118087221D01*
X147760000Y-118412779D02*
X147760000Y-118087221D01*
X149760000Y-118412779D02*
X149760000Y-118087221D01*
X148740000Y-118412779D02*
X148740000Y-118087221D01*
X109490000Y-111162779D02*
X109490000Y-110837221D01*
X110510000Y-111162779D02*
X110510000Y-110837221D01*
X163690000Y-111362779D02*
X163690000Y-111037221D01*
X164710000Y-111362779D02*
X164710000Y-111037221D01*
X136260000Y-111162779D02*
X136260000Y-110837221D01*
X135240000Y-111162779D02*
X135240000Y-110837221D01*
X233912779Y-122740000D02*
X233587221Y-122740000D01*
X233912779Y-123760000D02*
X233587221Y-123760000D01*
X233912779Y-122010000D02*
X233587221Y-122010000D01*
X233912779Y-120990000D02*
X233587221Y-120990000D01*
X233912779Y-119240000D02*
X233587221Y-119240000D01*
X233912779Y-120260000D02*
X233587221Y-120260000D01*
X111240000Y-118087221D02*
X111240000Y-118412779D01*
X112260000Y-118087221D02*
X112260000Y-118412779D01*
X113240000Y-118412779D02*
X113240000Y-118087221D01*
X114260000Y-118412779D02*
X114260000Y-118087221D01*
X116260000Y-118412779D02*
X116260000Y-118087221D01*
X115240000Y-118412779D02*
X115240000Y-118087221D01*
X166510000Y-118037221D02*
X166510000Y-118362779D01*
X165490000Y-118037221D02*
X165490000Y-118362779D01*
X168510000Y-118362779D02*
X168510000Y-118037221D01*
X167490000Y-118362779D02*
X167490000Y-118037221D01*
X170510000Y-118362779D02*
X170510000Y-118037221D01*
X169490000Y-118362779D02*
X169490000Y-118037221D01*
X137760000Y-118087221D02*
X137760000Y-118412779D01*
X136740000Y-118087221D02*
X136740000Y-118412779D01*
X138740000Y-118412779D02*
X138740000Y-118087221D01*
X139760000Y-118412779D02*
X139760000Y-118087221D01*
X140740000Y-118412779D02*
X140740000Y-118087221D01*
X141760000Y-118412779D02*
X141760000Y-118087221D01*
X102760000Y-110337221D02*
X102760000Y-110662779D01*
X101740000Y-110337221D02*
X101740000Y-110662779D01*
X155890000Y-111362779D02*
X155890000Y-111037221D01*
X156910000Y-111362779D02*
X156910000Y-111037221D01*
X127490000Y-111162779D02*
X127490000Y-110837221D01*
X128510000Y-111162779D02*
X128510000Y-110837221D01*
X103490000Y-118087221D02*
X103490000Y-118412779D01*
X104510000Y-118087221D02*
X104510000Y-118412779D01*
X106510000Y-118412779D02*
X106510000Y-118087221D01*
X105490000Y-118412779D02*
X105490000Y-118087221D01*
X107490000Y-118412779D02*
X107490000Y-118087221D01*
X108510000Y-118412779D02*
X108510000Y-118087221D01*
X158710000Y-118037221D02*
X158710000Y-118362779D01*
X157690000Y-118037221D02*
X157690000Y-118362779D01*
X160710000Y-118362779D02*
X160710000Y-118037221D01*
X159690000Y-118362779D02*
X159690000Y-118037221D01*
X161690000Y-118362779D02*
X161690000Y-118037221D01*
X162710000Y-118362779D02*
X162710000Y-118037221D01*
X130260000Y-118087221D02*
X130260000Y-118412779D01*
X129240000Y-118087221D02*
X129240000Y-118412779D01*
X131240000Y-118412779D02*
X131240000Y-118087221D01*
X132260000Y-118412779D02*
X132260000Y-118087221D01*
X134010000Y-118412779D02*
X134010000Y-118087221D01*
X132990000Y-118412779D02*
X132990000Y-118087221D01*
X254010000Y-137837221D02*
X254010000Y-138162779D01*
X252990000Y-137837221D02*
X252990000Y-138162779D01*
X229662779Y-114510000D02*
X229337221Y-114510000D01*
X229662779Y-113490000D02*
X229337221Y-113490000D01*
X229662779Y-116260000D02*
X229337221Y-116260000D01*
X229662779Y-115240000D02*
X229337221Y-115240000D01*
X229662779Y-116990000D02*
X229337221Y-116990000D01*
X229662779Y-118010000D02*
X229337221Y-118010000D01*
X204837221Y-117760000D02*
X205162779Y-117760000D01*
X204837221Y-116740000D02*
X205162779Y-116740000D01*
X235500000Y-139000000D02*
X240000000Y-139000000D01*
X234250000Y-135000000D02*
X234250000Y-136500000D01*
X240000000Y-132500000D02*
X235500000Y-132500000D01*
X241250000Y-136500000D02*
X241250000Y-135000000D01*
X251250000Y-136500000D02*
X251250000Y-135000000D01*
X250000000Y-132500000D02*
X245500000Y-132500000D01*
X244250000Y-135000000D02*
X244250000Y-136500000D01*
X245500000Y-139000000D02*
X250000000Y-139000000D01*
X118940000Y-112750000D02*
X118940000Y-114700000D01*
X118940000Y-112750000D02*
X118940000Y-110800000D01*
X124060000Y-112750000D02*
X124060000Y-114700000D01*
X124060000Y-112750000D02*
X124060000Y-109300000D01*
X178310000Y-112750000D02*
X178310000Y-109300000D01*
X178310000Y-112750000D02*
X178310000Y-114700000D01*
X173190000Y-112750000D02*
X173190000Y-110800000D01*
X173190000Y-112750000D02*
X173190000Y-114700000D01*
X144690000Y-112750000D02*
X144690000Y-114700000D01*
X144690000Y-112750000D02*
X144690000Y-110800000D01*
X149810000Y-112750000D02*
X149810000Y-114700000D01*
X149810000Y-112750000D02*
X149810000Y-109300000D01*
X116310000Y-112750000D02*
X116310000Y-109300000D01*
X116310000Y-112750000D02*
X116310000Y-114700000D01*
X111190000Y-112750000D02*
X111190000Y-110800000D01*
X111190000Y-112750000D02*
X111190000Y-114700000D01*
X165440000Y-112800000D02*
X165440000Y-114750000D01*
X165440000Y-112800000D02*
X165440000Y-110850000D01*
X170560000Y-112800000D02*
X170560000Y-114750000D01*
X170560000Y-112800000D02*
X170560000Y-109350000D01*
X142060000Y-112750000D02*
X142060000Y-109300000D01*
X142060000Y-112750000D02*
X142060000Y-114700000D01*
X136940000Y-112750000D02*
X136940000Y-110800000D01*
X136940000Y-112750000D02*
X136940000Y-114700000D01*
X103440000Y-112750000D02*
X103440000Y-114700000D01*
X103440000Y-112750000D02*
X103440000Y-110800000D01*
X108560000Y-112750000D02*
X108560000Y-114700000D01*
X108560000Y-112750000D02*
X108560000Y-109300000D01*
X157640000Y-112800000D02*
X157640000Y-114750000D01*
X157640000Y-112800000D02*
X157640000Y-110850000D01*
X162760000Y-112800000D02*
X162760000Y-114750000D01*
X162760000Y-112800000D02*
X162760000Y-109350000D01*
X129190000Y-112750000D02*
X129190000Y-114700000D01*
X129190000Y-112750000D02*
X129190000Y-110800000D01*
X134310000Y-112750000D02*
X134310000Y-114700000D01*
X134310000Y-112750000D02*
X134310000Y-109300000D01*
X241910000Y-131410000D02*
X241910000Y-130150000D01*
X241910000Y-124590000D02*
X241910000Y-125850000D01*
X238150000Y-131410000D02*
X241910000Y-131410000D01*
X235900000Y-124590000D02*
X241910000Y-124590000D01*
X219160000Y-126360000D02*
X219610000Y-126360000D01*
X219610000Y-126360000D02*
X219610000Y-125910000D01*
X212840000Y-126360000D02*
X212390000Y-126360000D01*
X212390000Y-126360000D02*
X212390000Y-125910000D01*
X219160000Y-119140000D02*
X219610000Y-119140000D01*
X219610000Y-119140000D02*
X219610000Y-119590000D01*
X212840000Y-119140000D02*
X212390000Y-119140000D01*
X212390000Y-119140000D02*
X212390000Y-119590000D01*
X212390000Y-119590000D02*
X211100000Y-119590000D01*
X205800000Y-115800000D02*
X211550000Y-115800000D01*
X211550000Y-115800000D02*
X211550000Y-112200000D01*
X211550000Y-112200000D02*
X205800000Y-112200000D01*
D11*
X129166666Y-130452380D02*
X129166666Y-131166666D01*
X129119047Y-131309523D01*
X129023809Y-131404761D01*
X128880952Y-131452380D01*
X128785714Y-131452380D01*
X129595238Y-130547619D02*
X129642857Y-130500000D01*
X129738095Y-130452380D01*
X129976190Y-130452380D01*
X130071428Y-130500000D01*
X130119047Y-130547619D01*
X130166666Y-130642857D01*
X130166666Y-130738095D01*
X130119047Y-130880952D01*
X129547619Y-131452380D01*
X130166666Y-131452380D01*
X187607142Y-116916666D02*
X187654761Y-116964285D01*
X187702380Y-117107142D01*
X187702380Y-117202380D01*
X187654761Y-117345238D01*
X187559523Y-117440476D01*
X187464285Y-117488095D01*
X187273809Y-117535714D01*
X187130952Y-117535714D01*
X186940476Y-117488095D01*
X186845238Y-117440476D01*
X186750000Y-117345238D01*
X186702380Y-117202380D01*
X186702380Y-117107142D01*
X186750000Y-116964285D01*
X186797619Y-116916666D01*
X186702380Y-116583333D02*
X186702380Y-115916666D01*
X187702380Y-116345238D01*
X195107142Y-116916666D02*
X195154761Y-116964285D01*
X195202380Y-117107142D01*
X195202380Y-117202380D01*
X195154761Y-117345238D01*
X195059523Y-117440476D01*
X194964285Y-117488095D01*
X194773809Y-117535714D01*
X194630952Y-117535714D01*
X194440476Y-117488095D01*
X194345238Y-117440476D01*
X194250000Y-117345238D01*
X194202380Y-117202380D01*
X194202380Y-117107142D01*
X194250000Y-116964285D01*
X194297619Y-116916666D01*
X194202380Y-116583333D02*
X194202380Y-115964285D01*
X194583333Y-116297619D01*
X194583333Y-116154761D01*
X194630952Y-116059523D01*
X194678571Y-116011904D01*
X194773809Y-115964285D01*
X195011904Y-115964285D01*
X195107142Y-116011904D01*
X195154761Y-116059523D01*
X195202380Y-116154761D01*
X195202380Y-116440476D01*
X195154761Y-116535714D01*
X195107142Y-116583333D01*
X188357142Y-120952380D02*
X188023809Y-120476190D01*
X187785714Y-120952380D02*
X187785714Y-119952380D01*
X188166666Y-119952380D01*
X188261904Y-120000000D01*
X188309523Y-120047619D01*
X188357142Y-120142857D01*
X188357142Y-120285714D01*
X188309523Y-120380952D01*
X188261904Y-120428571D01*
X188166666Y-120476190D01*
X187785714Y-120476190D01*
X188690476Y-119952380D02*
X189309523Y-119952380D01*
X188976190Y-120333333D01*
X189119047Y-120333333D01*
X189214285Y-120380952D01*
X189261904Y-120428571D01*
X189309523Y-120523809D01*
X189309523Y-120761904D01*
X189261904Y-120857142D01*
X189214285Y-120904761D01*
X189119047Y-120952380D01*
X188833333Y-120952380D01*
X188738095Y-120904761D01*
X188690476Y-120857142D01*
X189928571Y-119952380D02*
X190023809Y-119952380D01*
X190119047Y-120000000D01*
X190166666Y-120047619D01*
X190214285Y-120142857D01*
X190261904Y-120333333D01*
X190261904Y-120571428D01*
X190214285Y-120761904D01*
X190166666Y-120857142D01*
X190119047Y-120904761D01*
X190023809Y-120952380D01*
X189928571Y-120952380D01*
X189833333Y-120904761D01*
X189785714Y-120857142D01*
X189738095Y-120761904D01*
X189690476Y-120571428D01*
X189690476Y-120333333D01*
X189738095Y-120142857D01*
X189785714Y-120047619D01*
X189833333Y-120000000D01*
X189928571Y-119952380D01*
X179357142Y-109452380D02*
X179023809Y-108976190D01*
X178785714Y-109452380D02*
X178785714Y-108452380D01*
X179166666Y-108452380D01*
X179261904Y-108500000D01*
X179309523Y-108547619D01*
X179357142Y-108642857D01*
X179357142Y-108785714D01*
X179309523Y-108880952D01*
X179261904Y-108928571D01*
X179166666Y-108976190D01*
X178785714Y-108976190D01*
X179690476Y-108452380D02*
X180309523Y-108452380D01*
X179976190Y-108833333D01*
X180119047Y-108833333D01*
X180214285Y-108880952D01*
X180261904Y-108928571D01*
X180309523Y-109023809D01*
X180309523Y-109261904D01*
X180261904Y-109357142D01*
X180214285Y-109404761D01*
X180119047Y-109452380D01*
X179833333Y-109452380D01*
X179738095Y-109404761D01*
X179690476Y-109357142D01*
X180880952Y-108880952D02*
X180785714Y-108833333D01*
X180738095Y-108785714D01*
X180690476Y-108690476D01*
X180690476Y-108642857D01*
X180738095Y-108547619D01*
X180785714Y-108500000D01*
X180880952Y-108452380D01*
X181071428Y-108452380D01*
X181166666Y-108500000D01*
X181214285Y-108547619D01*
X181261904Y-108642857D01*
X181261904Y-108690476D01*
X181214285Y-108785714D01*
X181166666Y-108833333D01*
X181071428Y-108880952D01*
X180880952Y-108880952D01*
X180785714Y-108928571D01*
X180738095Y-108976190D01*
X180690476Y-109071428D01*
X180690476Y-109261904D01*
X180738095Y-109357142D01*
X180785714Y-109404761D01*
X180880952Y-109452380D01*
X181071428Y-109452380D01*
X181166666Y-109404761D01*
X181214285Y-109357142D01*
X181261904Y-109261904D01*
X181261904Y-109071428D01*
X181214285Y-108976190D01*
X181166666Y-108928571D01*
X181071428Y-108880952D01*
X180107142Y-120952380D02*
X179773809Y-120476190D01*
X179535714Y-120952380D02*
X179535714Y-119952380D01*
X179916666Y-119952380D01*
X180011904Y-120000000D01*
X180059523Y-120047619D01*
X180107142Y-120142857D01*
X180107142Y-120285714D01*
X180059523Y-120380952D01*
X180011904Y-120428571D01*
X179916666Y-120476190D01*
X179535714Y-120476190D01*
X180964285Y-120285714D02*
X180964285Y-120952380D01*
X180726190Y-119904761D02*
X180488095Y-120619047D01*
X181107142Y-120619047D01*
X181916666Y-119952380D02*
X181726190Y-119952380D01*
X181630952Y-120000000D01*
X181583333Y-120047619D01*
X181488095Y-120190476D01*
X181440476Y-120380952D01*
X181440476Y-120761904D01*
X181488095Y-120857142D01*
X181535714Y-120904761D01*
X181630952Y-120952380D01*
X181821428Y-120952380D01*
X181916666Y-120904761D01*
X181964285Y-120857142D01*
X182011904Y-120761904D01*
X182011904Y-120523809D01*
X181964285Y-120428571D01*
X181916666Y-120380952D01*
X181821428Y-120333333D01*
X181630952Y-120333333D01*
X181535714Y-120380952D01*
X181488095Y-120428571D01*
X181440476Y-120523809D01*
X182857142Y-120952380D02*
X182523809Y-120476190D01*
X182285714Y-120952380D02*
X182285714Y-119952380D01*
X182666666Y-119952380D01*
X182761904Y-120000000D01*
X182809523Y-120047619D01*
X182857142Y-120142857D01*
X182857142Y-120285714D01*
X182809523Y-120380952D01*
X182761904Y-120428571D01*
X182666666Y-120476190D01*
X182285714Y-120476190D01*
X183714285Y-120285714D02*
X183714285Y-120952380D01*
X183476190Y-119904761D02*
X183238095Y-120619047D01*
X183857142Y-120619047D01*
X184142857Y-119952380D02*
X184809523Y-119952380D01*
X184380952Y-120952380D01*
X191107142Y-120952380D02*
X190773809Y-120476190D01*
X190535714Y-120952380D02*
X190535714Y-119952380D01*
X190916666Y-119952380D01*
X191011904Y-120000000D01*
X191059523Y-120047619D01*
X191107142Y-120142857D01*
X191107142Y-120285714D01*
X191059523Y-120380952D01*
X191011904Y-120428571D01*
X190916666Y-120476190D01*
X190535714Y-120476190D01*
X191440476Y-119952380D02*
X192059523Y-119952380D01*
X191726190Y-120333333D01*
X191869047Y-120333333D01*
X191964285Y-120380952D01*
X192011904Y-120428571D01*
X192059523Y-120523809D01*
X192059523Y-120761904D01*
X192011904Y-120857142D01*
X191964285Y-120904761D01*
X191869047Y-120952380D01*
X191583333Y-120952380D01*
X191488095Y-120904761D01*
X191440476Y-120857142D01*
X193011904Y-120952380D02*
X192440476Y-120952380D01*
X192726190Y-120952380D02*
X192726190Y-119952380D01*
X192630952Y-120095238D01*
X192535714Y-120190476D01*
X192440476Y-120238095D01*
X193857142Y-120952380D02*
X193523809Y-120476190D01*
X193285714Y-120952380D02*
X193285714Y-119952380D01*
X193666666Y-119952380D01*
X193761904Y-120000000D01*
X193809523Y-120047619D01*
X193857142Y-120142857D01*
X193857142Y-120285714D01*
X193809523Y-120380952D01*
X193761904Y-120428571D01*
X193666666Y-120476190D01*
X193285714Y-120476190D01*
X194190476Y-119952380D02*
X194809523Y-119952380D01*
X194476190Y-120333333D01*
X194619047Y-120333333D01*
X194714285Y-120380952D01*
X194761904Y-120428571D01*
X194809523Y-120523809D01*
X194809523Y-120761904D01*
X194761904Y-120857142D01*
X194714285Y-120904761D01*
X194619047Y-120952380D01*
X194333333Y-120952380D01*
X194238095Y-120904761D01*
X194190476Y-120857142D01*
X195190476Y-120047619D02*
X195238095Y-120000000D01*
X195333333Y-119952380D01*
X195571428Y-119952380D01*
X195666666Y-120000000D01*
X195714285Y-120047619D01*
X195761904Y-120142857D01*
X195761904Y-120238095D01*
X195714285Y-120380952D01*
X195142857Y-120952380D01*
X195761904Y-120952380D01*
X179607142Y-117892857D02*
X179654761Y-117940476D01*
X179702380Y-118083333D01*
X179702380Y-118178571D01*
X179654761Y-118321428D01*
X179559523Y-118416666D01*
X179464285Y-118464285D01*
X179273809Y-118511904D01*
X179130952Y-118511904D01*
X178940476Y-118464285D01*
X178845238Y-118416666D01*
X178750000Y-118321428D01*
X178702380Y-118178571D01*
X178702380Y-118083333D01*
X178750000Y-117940476D01*
X178797619Y-117892857D01*
X179702380Y-116940476D02*
X179702380Y-117511904D01*
X179702380Y-117226190D02*
X178702380Y-117226190D01*
X178845238Y-117321428D01*
X178940476Y-117416666D01*
X178988095Y-117511904D01*
X178797619Y-116559523D02*
X178750000Y-116511904D01*
X178702380Y-116416666D01*
X178702380Y-116178571D01*
X178750000Y-116083333D01*
X178797619Y-116035714D01*
X178892857Y-115988095D01*
X178988095Y-115988095D01*
X179130952Y-116035714D01*
X179702380Y-116607142D01*
X179702380Y-115988095D01*
X195083333Y-109452380D02*
X194750000Y-108976190D01*
X194511904Y-109452380D02*
X194511904Y-108452380D01*
X194892857Y-108452380D01*
X194988095Y-108500000D01*
X195035714Y-108547619D01*
X195083333Y-108642857D01*
X195083333Y-108785714D01*
X195035714Y-108880952D01*
X194988095Y-108928571D01*
X194892857Y-108976190D01*
X194511904Y-108976190D01*
X195416666Y-108452380D02*
X196035714Y-108452380D01*
X195702380Y-108833333D01*
X195845238Y-108833333D01*
X195940476Y-108880952D01*
X195988095Y-108928571D01*
X196035714Y-109023809D01*
X196035714Y-109261904D01*
X195988095Y-109357142D01*
X195940476Y-109404761D01*
X195845238Y-109452380D01*
X195559523Y-109452380D01*
X195464285Y-109404761D01*
X195416666Y-109357142D01*
X196607142Y-120952380D02*
X196273809Y-120476190D01*
X196035714Y-120952380D02*
X196035714Y-119952380D01*
X196416666Y-119952380D01*
X196511904Y-120000000D01*
X196559523Y-120047619D01*
X196607142Y-120142857D01*
X196607142Y-120285714D01*
X196559523Y-120380952D01*
X196511904Y-120428571D01*
X196416666Y-120476190D01*
X196035714Y-120476190D01*
X197559523Y-120952380D02*
X196988095Y-120952380D01*
X197273809Y-120952380D02*
X197273809Y-119952380D01*
X197178571Y-120095238D01*
X197083333Y-120190476D01*
X196988095Y-120238095D01*
X198511904Y-120952380D02*
X197940476Y-120952380D01*
X198226190Y-120952380D02*
X198226190Y-119952380D01*
X198130952Y-120095238D01*
X198035714Y-120190476D01*
X197940476Y-120238095D01*
X202107142Y-120952380D02*
X201773809Y-120476190D01*
X201535714Y-120952380D02*
X201535714Y-119952380D01*
X201916666Y-119952380D01*
X202011904Y-120000000D01*
X202059523Y-120047619D01*
X202107142Y-120142857D01*
X202107142Y-120285714D01*
X202059523Y-120380952D01*
X202011904Y-120428571D01*
X201916666Y-120476190D01*
X201535714Y-120476190D01*
X203059523Y-120952380D02*
X202488095Y-120952380D01*
X202773809Y-120952380D02*
X202773809Y-119952380D01*
X202678571Y-120095238D01*
X202583333Y-120190476D01*
X202488095Y-120238095D01*
X203392857Y-119952380D02*
X204011904Y-119952380D01*
X203678571Y-120333333D01*
X203821428Y-120333333D01*
X203916666Y-120380952D01*
X203964285Y-120428571D01*
X204011904Y-120523809D01*
X204011904Y-120761904D01*
X203964285Y-120857142D01*
X203916666Y-120904761D01*
X203821428Y-120952380D01*
X203535714Y-120952380D01*
X203440476Y-120904761D01*
X203392857Y-120857142D01*
X199357142Y-120952380D02*
X199023809Y-120476190D01*
X198785714Y-120952380D02*
X198785714Y-119952380D01*
X199166666Y-119952380D01*
X199261904Y-120000000D01*
X199309523Y-120047619D01*
X199357142Y-120142857D01*
X199357142Y-120285714D01*
X199309523Y-120380952D01*
X199261904Y-120428571D01*
X199166666Y-120476190D01*
X198785714Y-120476190D01*
X200309523Y-120952380D02*
X199738095Y-120952380D01*
X200023809Y-120952380D02*
X200023809Y-119952380D01*
X199928571Y-120095238D01*
X199833333Y-120190476D01*
X199738095Y-120238095D01*
X200690476Y-120047619D02*
X200738095Y-120000000D01*
X200833333Y-119952380D01*
X201071428Y-119952380D01*
X201166666Y-120000000D01*
X201214285Y-120047619D01*
X201261904Y-120142857D01*
X201261904Y-120238095D01*
X201214285Y-120380952D01*
X200642857Y-120952380D01*
X201261904Y-120952380D01*
X187107142Y-109702380D02*
X186773809Y-109226190D01*
X186535714Y-109702380D02*
X186535714Y-108702380D01*
X186916666Y-108702380D01*
X187011904Y-108750000D01*
X187059523Y-108797619D01*
X187107142Y-108892857D01*
X187107142Y-109035714D01*
X187059523Y-109130952D01*
X187011904Y-109178571D01*
X186916666Y-109226190D01*
X186535714Y-109226190D01*
X188059523Y-109702380D02*
X187488095Y-109702380D01*
X187773809Y-109702380D02*
X187773809Y-108702380D01*
X187678571Y-108845238D01*
X187583333Y-108940476D01*
X187488095Y-108988095D01*
X188535714Y-109702380D02*
X188726190Y-109702380D01*
X188821428Y-109654761D01*
X188869047Y-109607142D01*
X188964285Y-109464285D01*
X189011904Y-109273809D01*
X189011904Y-108892857D01*
X188964285Y-108797619D01*
X188916666Y-108750000D01*
X188821428Y-108702380D01*
X188630952Y-108702380D01*
X188535714Y-108750000D01*
X188488095Y-108797619D01*
X188440476Y-108892857D01*
X188440476Y-109130952D01*
X188488095Y-109226190D01*
X188535714Y-109273809D01*
X188630952Y-109321428D01*
X188821428Y-109321428D01*
X188916666Y-109273809D01*
X188964285Y-109226190D01*
X189011904Y-109130952D01*
X183261904Y-107952380D02*
X183261904Y-108761904D01*
X183309523Y-108857142D01*
X183357142Y-108904761D01*
X183452380Y-108952380D01*
X183642857Y-108952380D01*
X183738095Y-108904761D01*
X183785714Y-108857142D01*
X183833333Y-108761904D01*
X183833333Y-107952380D01*
X184833333Y-108952380D02*
X184261904Y-108952380D01*
X184547619Y-108952380D02*
X184547619Y-107952380D01*
X184452380Y-108095238D01*
X184357142Y-108190476D01*
X184261904Y-108238095D01*
X185785714Y-108952380D02*
X185214285Y-108952380D01*
X185500000Y-108952380D02*
X185500000Y-107952380D01*
X185404761Y-108095238D01*
X185309523Y-108190476D01*
X185214285Y-108238095D01*
X198488095Y-107702380D02*
X198488095Y-108511904D01*
X198535714Y-108607142D01*
X198583333Y-108654761D01*
X198678571Y-108702380D01*
X198869047Y-108702380D01*
X198964285Y-108654761D01*
X199011904Y-108607142D01*
X199059523Y-108511904D01*
X199059523Y-107702380D01*
X199440476Y-107702380D02*
X200059523Y-107702380D01*
X199726190Y-108083333D01*
X199869047Y-108083333D01*
X199964285Y-108130952D01*
X200011904Y-108178571D01*
X200059523Y-108273809D01*
X200059523Y-108511904D01*
X200011904Y-108607142D01*
X199964285Y-108654761D01*
X199869047Y-108702380D01*
X199583333Y-108702380D01*
X199488095Y-108654761D01*
X199440476Y-108607142D01*
X185607142Y-120952380D02*
X185273809Y-120476190D01*
X185035714Y-120952380D02*
X185035714Y-119952380D01*
X185416666Y-119952380D01*
X185511904Y-120000000D01*
X185559523Y-120047619D01*
X185607142Y-120142857D01*
X185607142Y-120285714D01*
X185559523Y-120380952D01*
X185511904Y-120428571D01*
X185416666Y-120476190D01*
X185035714Y-120476190D01*
X186464285Y-120285714D02*
X186464285Y-120952380D01*
X186226190Y-119904761D02*
X185988095Y-120619047D01*
X186607142Y-120619047D01*
X187130952Y-120380952D02*
X187035714Y-120333333D01*
X186988095Y-120285714D01*
X186940476Y-120190476D01*
X186940476Y-120142857D01*
X186988095Y-120047619D01*
X187035714Y-120000000D01*
X187130952Y-119952380D01*
X187321428Y-119952380D01*
X187416666Y-120000000D01*
X187464285Y-120047619D01*
X187511904Y-120142857D01*
X187511904Y-120190476D01*
X187464285Y-120285714D01*
X187416666Y-120333333D01*
X187321428Y-120380952D01*
X187130952Y-120380952D01*
X187035714Y-120428571D01*
X186988095Y-120476190D01*
X186940476Y-120571428D01*
X186940476Y-120761904D01*
X186988095Y-120857142D01*
X187035714Y-120904761D01*
X187130952Y-120952380D01*
X187321428Y-120952380D01*
X187416666Y-120904761D01*
X187464285Y-120857142D01*
X187511904Y-120761904D01*
X187511904Y-120571428D01*
X187464285Y-120476190D01*
X187416666Y-120428571D01*
X187321428Y-120380952D01*
X191238095Y-107952380D02*
X191238095Y-108761904D01*
X191285714Y-108857142D01*
X191333333Y-108904761D01*
X191428571Y-108952380D01*
X191619047Y-108952380D01*
X191714285Y-108904761D01*
X191761904Y-108857142D01*
X191809523Y-108761904D01*
X191809523Y-107952380D01*
X192190476Y-107952380D02*
X192857142Y-107952380D01*
X192428571Y-108952380D01*
X100916666Y-130702380D02*
X100916666Y-131416666D01*
X100869047Y-131559523D01*
X100773809Y-131654761D01*
X100630952Y-131702380D01*
X100535714Y-131702380D01*
X101916666Y-131702380D02*
X101345238Y-131702380D01*
X101630952Y-131702380D02*
X101630952Y-130702380D01*
X101535714Y-130845238D01*
X101440476Y-130940476D01*
X101345238Y-130988095D01*
X186416666Y-129202380D02*
X186416666Y-129916666D01*
X186369047Y-130059523D01*
X186273809Y-130154761D01*
X186130952Y-130202380D01*
X186035714Y-130202380D01*
X187321428Y-129535714D02*
X187321428Y-130202380D01*
X187083333Y-129154761D02*
X186845238Y-129869047D01*
X187464285Y-129869047D01*
X236166666Y-107202380D02*
X236166666Y-107916666D01*
X236119047Y-108059523D01*
X236023809Y-108154761D01*
X235880952Y-108202380D01*
X235785714Y-108202380D01*
X237119047Y-107202380D02*
X236642857Y-107202380D01*
X236595238Y-107678571D01*
X236642857Y-107630952D01*
X236738095Y-107583333D01*
X236976190Y-107583333D01*
X237071428Y-107630952D01*
X237119047Y-107678571D01*
X237166666Y-107773809D01*
X237166666Y-108011904D01*
X237119047Y-108107142D01*
X237071428Y-108154761D01*
X236976190Y-108202380D01*
X236738095Y-108202380D01*
X236642857Y-108154761D01*
X236595238Y-108107142D01*
X117583333Y-117607142D02*
X117535714Y-117654761D01*
X117392857Y-117702380D01*
X117297619Y-117702380D01*
X117154761Y-117654761D01*
X117059523Y-117559523D01*
X117011904Y-117464285D01*
X116964285Y-117273809D01*
X116964285Y-117130952D01*
X117011904Y-116940476D01*
X117059523Y-116845238D01*
X117154761Y-116750000D01*
X117297619Y-116702380D01*
X117392857Y-116702380D01*
X117535714Y-116750000D01*
X117583333Y-116797619D01*
X118535714Y-117702380D02*
X117964285Y-117702380D01*
X118250000Y-117702380D02*
X118250000Y-116702380D01*
X118154761Y-116845238D01*
X118059523Y-116940476D01*
X117964285Y-116988095D01*
X171607142Y-116916666D02*
X171654761Y-116964285D01*
X171702380Y-117107142D01*
X171702380Y-117202380D01*
X171654761Y-117345238D01*
X171559523Y-117440476D01*
X171464285Y-117488095D01*
X171273809Y-117535714D01*
X171130952Y-117535714D01*
X170940476Y-117488095D01*
X170845238Y-117440476D01*
X170750000Y-117345238D01*
X170702380Y-117202380D01*
X170702380Y-117107142D01*
X170750000Y-116964285D01*
X170797619Y-116916666D01*
X170797619Y-116535714D02*
X170750000Y-116488095D01*
X170702380Y-116392857D01*
X170702380Y-116154761D01*
X170750000Y-116059523D01*
X170797619Y-116011904D01*
X170892857Y-115964285D01*
X170988095Y-115964285D01*
X171130952Y-116011904D01*
X171702380Y-116583333D01*
X171702380Y-115964285D01*
X143107142Y-116916666D02*
X143154761Y-116964285D01*
X143202380Y-117107142D01*
X143202380Y-117202380D01*
X143154761Y-117345238D01*
X143059523Y-117440476D01*
X142964285Y-117488095D01*
X142773809Y-117535714D01*
X142630952Y-117535714D01*
X142440476Y-117488095D01*
X142345238Y-117440476D01*
X142250000Y-117345238D01*
X142202380Y-117202380D01*
X142202380Y-117107142D01*
X142250000Y-116964285D01*
X142297619Y-116916666D01*
X142535714Y-116059523D02*
X143202380Y-116059523D01*
X142154761Y-116297619D02*
X142869047Y-116535714D01*
X142869047Y-115916666D01*
X109833333Y-116857142D02*
X109785714Y-116904761D01*
X109642857Y-116952380D01*
X109547619Y-116952380D01*
X109404761Y-116904761D01*
X109309523Y-116809523D01*
X109261904Y-116714285D01*
X109214285Y-116523809D01*
X109214285Y-116380952D01*
X109261904Y-116190476D01*
X109309523Y-116095238D01*
X109404761Y-116000000D01*
X109547619Y-115952380D01*
X109642857Y-115952380D01*
X109785714Y-116000000D01*
X109833333Y-116047619D01*
X110738095Y-115952380D02*
X110261904Y-115952380D01*
X110214285Y-116428571D01*
X110261904Y-116380952D01*
X110357142Y-116333333D01*
X110595238Y-116333333D01*
X110690476Y-116380952D01*
X110738095Y-116428571D01*
X110785714Y-116523809D01*
X110785714Y-116761904D01*
X110738095Y-116857142D01*
X110690476Y-116904761D01*
X110595238Y-116952380D01*
X110357142Y-116952380D01*
X110261904Y-116904761D01*
X110214285Y-116857142D01*
X164107142Y-116916666D02*
X164154761Y-116964285D01*
X164202380Y-117107142D01*
X164202380Y-117202380D01*
X164154761Y-117345238D01*
X164059523Y-117440476D01*
X163964285Y-117488095D01*
X163773809Y-117535714D01*
X163630952Y-117535714D01*
X163440476Y-117488095D01*
X163345238Y-117440476D01*
X163250000Y-117345238D01*
X163202380Y-117202380D01*
X163202380Y-117107142D01*
X163250000Y-116964285D01*
X163297619Y-116916666D01*
X163202380Y-116059523D02*
X163202380Y-116250000D01*
X163250000Y-116345238D01*
X163297619Y-116392857D01*
X163440476Y-116488095D01*
X163630952Y-116535714D01*
X164011904Y-116535714D01*
X164107142Y-116488095D01*
X164154761Y-116440476D01*
X164202380Y-116345238D01*
X164202380Y-116154761D01*
X164154761Y-116059523D01*
X164107142Y-116011904D01*
X164011904Y-115964285D01*
X163773809Y-115964285D01*
X163678571Y-116011904D01*
X163630952Y-116059523D01*
X163583333Y-116154761D01*
X163583333Y-116345238D01*
X163630952Y-116440476D01*
X163678571Y-116488095D01*
X163773809Y-116535714D01*
X135083333Y-117107142D02*
X135035714Y-117154761D01*
X134892857Y-117202380D01*
X134797619Y-117202380D01*
X134654761Y-117154761D01*
X134559523Y-117059523D01*
X134511904Y-116964285D01*
X134464285Y-116773809D01*
X134464285Y-116630952D01*
X134511904Y-116440476D01*
X134559523Y-116345238D01*
X134654761Y-116250000D01*
X134797619Y-116202380D01*
X134892857Y-116202380D01*
X135035714Y-116250000D01*
X135083333Y-116297619D01*
X135654761Y-116630952D02*
X135559523Y-116583333D01*
X135511904Y-116535714D01*
X135464285Y-116440476D01*
X135464285Y-116392857D01*
X135511904Y-116297619D01*
X135559523Y-116250000D01*
X135654761Y-116202380D01*
X135845238Y-116202380D01*
X135940476Y-116250000D01*
X135988095Y-116297619D01*
X136035714Y-116392857D01*
X136035714Y-116440476D01*
X135988095Y-116535714D01*
X135940476Y-116583333D01*
X135845238Y-116630952D01*
X135654761Y-116630952D01*
X135559523Y-116678571D01*
X135511904Y-116726190D01*
X135464285Y-116821428D01*
X135464285Y-117011904D01*
X135511904Y-117107142D01*
X135559523Y-117154761D01*
X135654761Y-117202380D01*
X135845238Y-117202380D01*
X135940476Y-117154761D01*
X135988095Y-117107142D01*
X136035714Y-117011904D01*
X136035714Y-116821428D01*
X135988095Y-116726190D01*
X135940476Y-116678571D01*
X135845238Y-116630952D01*
X233357142Y-129916666D02*
X233404761Y-129964285D01*
X233452380Y-130107142D01*
X233452380Y-130202380D01*
X233404761Y-130345238D01*
X233309523Y-130440476D01*
X233214285Y-130488095D01*
X233023809Y-130535714D01*
X232880952Y-130535714D01*
X232690476Y-130488095D01*
X232595238Y-130440476D01*
X232500000Y-130345238D01*
X232452380Y-130202380D01*
X232452380Y-130107142D01*
X232500000Y-129964285D01*
X232547619Y-129916666D01*
X233452380Y-129440476D02*
X233452380Y-129250000D01*
X233404761Y-129154761D01*
X233357142Y-129107142D01*
X233214285Y-129011904D01*
X233023809Y-128964285D01*
X232642857Y-128964285D01*
X232547619Y-129011904D01*
X232500000Y-129059523D01*
X232452380Y-129154761D01*
X232452380Y-129345238D01*
X232500000Y-129440476D01*
X232547619Y-129488095D01*
X232642857Y-129535714D01*
X232880952Y-129535714D01*
X232976190Y-129488095D01*
X233023809Y-129440476D01*
X233071428Y-129345238D01*
X233071428Y-129154761D01*
X233023809Y-129059523D01*
X232976190Y-129011904D01*
X232880952Y-128964285D01*
X101107142Y-116607142D02*
X101059523Y-116654761D01*
X100916666Y-116702380D01*
X100821428Y-116702380D01*
X100678571Y-116654761D01*
X100583333Y-116559523D01*
X100535714Y-116464285D01*
X100488095Y-116273809D01*
X100488095Y-116130952D01*
X100535714Y-115940476D01*
X100583333Y-115845238D01*
X100678571Y-115750000D01*
X100821428Y-115702380D01*
X100916666Y-115702380D01*
X101059523Y-115750000D01*
X101107142Y-115797619D01*
X102059523Y-116702380D02*
X101488095Y-116702380D01*
X101773809Y-116702380D02*
X101773809Y-115702380D01*
X101678571Y-115845238D01*
X101583333Y-115940476D01*
X101488095Y-115988095D01*
X102678571Y-115702380D02*
X102773809Y-115702380D01*
X102869047Y-115750000D01*
X102916666Y-115797619D01*
X102964285Y-115892857D01*
X103011904Y-116083333D01*
X103011904Y-116321428D01*
X102964285Y-116511904D01*
X102916666Y-116607142D01*
X102869047Y-116654761D01*
X102773809Y-116702380D01*
X102678571Y-116702380D01*
X102583333Y-116654761D01*
X102535714Y-116607142D01*
X102488095Y-116511904D01*
X102440476Y-116321428D01*
X102440476Y-116083333D01*
X102488095Y-115892857D01*
X102535714Y-115797619D01*
X102583333Y-115750000D01*
X102678571Y-115702380D01*
X153357142Y-114857142D02*
X153309523Y-114904761D01*
X153166666Y-114952380D01*
X153071428Y-114952380D01*
X152928571Y-114904761D01*
X152833333Y-114809523D01*
X152785714Y-114714285D01*
X152738095Y-114523809D01*
X152738095Y-114380952D01*
X152785714Y-114190476D01*
X152833333Y-114095238D01*
X152928571Y-114000000D01*
X153071428Y-113952380D01*
X153166666Y-113952380D01*
X153309523Y-114000000D01*
X153357142Y-114047619D01*
X154309523Y-114952380D02*
X153738095Y-114952380D01*
X154023809Y-114952380D02*
X154023809Y-113952380D01*
X153928571Y-114095238D01*
X153833333Y-114190476D01*
X153738095Y-114238095D01*
X155261904Y-114952380D02*
X154690476Y-114952380D01*
X154976190Y-114952380D02*
X154976190Y-113952380D01*
X154880952Y-114095238D01*
X154785714Y-114190476D01*
X154690476Y-114238095D01*
X126857142Y-115142857D02*
X126904761Y-115190476D01*
X126952380Y-115333333D01*
X126952380Y-115428571D01*
X126904761Y-115571428D01*
X126809523Y-115666666D01*
X126714285Y-115714285D01*
X126523809Y-115761904D01*
X126380952Y-115761904D01*
X126190476Y-115714285D01*
X126095238Y-115666666D01*
X126000000Y-115571428D01*
X125952380Y-115428571D01*
X125952380Y-115333333D01*
X126000000Y-115190476D01*
X126047619Y-115142857D01*
X126952380Y-114190476D02*
X126952380Y-114761904D01*
X126952380Y-114476190D02*
X125952380Y-114476190D01*
X126095238Y-114571428D01*
X126190476Y-114666666D01*
X126238095Y-114761904D01*
X125952380Y-113857142D02*
X125952380Y-113238095D01*
X126333333Y-113571428D01*
X126333333Y-113428571D01*
X126380952Y-113333333D01*
X126428571Y-113285714D01*
X126523809Y-113238095D01*
X126761904Y-113238095D01*
X126857142Y-113285714D01*
X126904761Y-113333333D01*
X126952380Y-113428571D01*
X126952380Y-113714285D01*
X126904761Y-113809523D01*
X126857142Y-113857142D01*
X233427142Y-127142857D02*
X233474761Y-127190476D01*
X233522380Y-127333333D01*
X233522380Y-127428571D01*
X233474761Y-127571428D01*
X233379523Y-127666666D01*
X233284285Y-127714285D01*
X233093809Y-127761904D01*
X232950952Y-127761904D01*
X232760476Y-127714285D01*
X232665238Y-127666666D01*
X232570000Y-127571428D01*
X232522380Y-127428571D01*
X232522380Y-127333333D01*
X232570000Y-127190476D01*
X232617619Y-127142857D01*
X233522380Y-126190476D02*
X233522380Y-126761904D01*
X233522380Y-126476190D02*
X232522380Y-126476190D01*
X232665238Y-126571428D01*
X232760476Y-126666666D01*
X232808095Y-126761904D01*
X232855714Y-125333333D02*
X233522380Y-125333333D01*
X232474761Y-125571428D02*
X233189047Y-125809523D01*
X233189047Y-125190476D01*
X214607142Y-114642857D02*
X214654761Y-114690476D01*
X214702380Y-114833333D01*
X214702380Y-114928571D01*
X214654761Y-115071428D01*
X214559523Y-115166666D01*
X214464285Y-115214285D01*
X214273809Y-115261904D01*
X214130952Y-115261904D01*
X213940476Y-115214285D01*
X213845238Y-115166666D01*
X213750000Y-115071428D01*
X213702380Y-114928571D01*
X213702380Y-114833333D01*
X213750000Y-114690476D01*
X213797619Y-114642857D01*
X214702380Y-113690476D02*
X214702380Y-114261904D01*
X214702380Y-113976190D02*
X213702380Y-113976190D01*
X213845238Y-114071428D01*
X213940476Y-114166666D01*
X213988095Y-114261904D01*
X213702380Y-112785714D02*
X213702380Y-113261904D01*
X214178571Y-113309523D01*
X214130952Y-113261904D01*
X214083333Y-113166666D01*
X214083333Y-112928571D01*
X214130952Y-112833333D01*
X214178571Y-112785714D01*
X214273809Y-112738095D01*
X214511904Y-112738095D01*
X214607142Y-112785714D01*
X214654761Y-112833333D01*
X214702380Y-112928571D01*
X214702380Y-113166666D01*
X214654761Y-113261904D01*
X214607142Y-113309523D01*
X203357142Y-114892857D02*
X203404761Y-114940476D01*
X203452380Y-115083333D01*
X203452380Y-115178571D01*
X203404761Y-115321428D01*
X203309523Y-115416666D01*
X203214285Y-115464285D01*
X203023809Y-115511904D01*
X202880952Y-115511904D01*
X202690476Y-115464285D01*
X202595238Y-115416666D01*
X202500000Y-115321428D01*
X202452380Y-115178571D01*
X202452380Y-115083333D01*
X202500000Y-114940476D01*
X202547619Y-114892857D01*
X203452380Y-113940476D02*
X203452380Y-114511904D01*
X203452380Y-114226190D02*
X202452380Y-114226190D01*
X202595238Y-114321428D01*
X202690476Y-114416666D01*
X202738095Y-114511904D01*
X202452380Y-113083333D02*
X202452380Y-113273809D01*
X202500000Y-113369047D01*
X202547619Y-113416666D01*
X202690476Y-113511904D01*
X202880952Y-113559523D01*
X203261904Y-113559523D01*
X203357142Y-113511904D01*
X203404761Y-113464285D01*
X203452380Y-113369047D01*
X203452380Y-113178571D01*
X203404761Y-113083333D01*
X203357142Y-113035714D01*
X203261904Y-112988095D01*
X203023809Y-112988095D01*
X202928571Y-113035714D01*
X202880952Y-113083333D01*
X202833333Y-113178571D01*
X202833333Y-113369047D01*
X202880952Y-113464285D01*
X202928571Y-113511904D01*
X203023809Y-113559523D01*
X229107142Y-139107142D02*
X229059523Y-139154761D01*
X228916666Y-139202380D01*
X228821428Y-139202380D01*
X228678571Y-139154761D01*
X228583333Y-139059523D01*
X228535714Y-138964285D01*
X228488095Y-138773809D01*
X228488095Y-138630952D01*
X228535714Y-138440476D01*
X228583333Y-138345238D01*
X228678571Y-138250000D01*
X228821428Y-138202380D01*
X228916666Y-138202380D01*
X229059523Y-138250000D01*
X229107142Y-138297619D01*
X230059523Y-139202380D02*
X229488095Y-139202380D01*
X229773809Y-139202380D02*
X229773809Y-138202380D01*
X229678571Y-138345238D01*
X229583333Y-138440476D01*
X229488095Y-138488095D01*
X230392857Y-138202380D02*
X231059523Y-138202380D01*
X230630952Y-139202380D01*
X212607142Y-117357142D02*
X212559523Y-117404761D01*
X212416666Y-117452380D01*
X212321428Y-117452380D01*
X212178571Y-117404761D01*
X212083333Y-117309523D01*
X212035714Y-117214285D01*
X211988095Y-117023809D01*
X211988095Y-116880952D01*
X212035714Y-116690476D01*
X212083333Y-116595238D01*
X212178571Y-116500000D01*
X212321428Y-116452380D01*
X212416666Y-116452380D01*
X212559523Y-116500000D01*
X212607142Y-116547619D01*
X213559523Y-117452380D02*
X212988095Y-117452380D01*
X213273809Y-117452380D02*
X213273809Y-116452380D01*
X213178571Y-116595238D01*
X213083333Y-116690476D01*
X212988095Y-116738095D01*
X214130952Y-116880952D02*
X214035714Y-116833333D01*
X213988095Y-116785714D01*
X213940476Y-116690476D01*
X213940476Y-116642857D01*
X213988095Y-116547619D01*
X214035714Y-116500000D01*
X214130952Y-116452380D01*
X214321428Y-116452380D01*
X214416666Y-116500000D01*
X214464285Y-116547619D01*
X214511904Y-116642857D01*
X214511904Y-116690476D01*
X214464285Y-116785714D01*
X214416666Y-116833333D01*
X214321428Y-116880952D01*
X214130952Y-116880952D01*
X214035714Y-116928571D01*
X213988095Y-116976190D01*
X213940476Y-117071428D01*
X213940476Y-117261904D01*
X213988095Y-117357142D01*
X214035714Y-117404761D01*
X214130952Y-117452380D01*
X214321428Y-117452380D01*
X214416666Y-117404761D01*
X214464285Y-117357142D01*
X214511904Y-117261904D01*
X214511904Y-117071428D01*
X214464285Y-116976190D01*
X214416666Y-116928571D01*
X214321428Y-116880952D01*
X219857142Y-115357142D02*
X219809523Y-115404761D01*
X219666666Y-115452380D01*
X219571428Y-115452380D01*
X219428571Y-115404761D01*
X219333333Y-115309523D01*
X219285714Y-115214285D01*
X219238095Y-115023809D01*
X219238095Y-114880952D01*
X219285714Y-114690476D01*
X219333333Y-114595238D01*
X219428571Y-114500000D01*
X219571428Y-114452380D01*
X219666666Y-114452380D01*
X219809523Y-114500000D01*
X219857142Y-114547619D01*
X220809523Y-115452380D02*
X220238095Y-115452380D01*
X220523809Y-115452380D02*
X220523809Y-114452380D01*
X220428571Y-114595238D01*
X220333333Y-114690476D01*
X220238095Y-114738095D01*
X221285714Y-115452380D02*
X221476190Y-115452380D01*
X221571428Y-115404761D01*
X221619047Y-115357142D01*
X221714285Y-115214285D01*
X221761904Y-115023809D01*
X221761904Y-114642857D01*
X221714285Y-114547619D01*
X221666666Y-114500000D01*
X221571428Y-114452380D01*
X221380952Y-114452380D01*
X221285714Y-114500000D01*
X221238095Y-114547619D01*
X221190476Y-114642857D01*
X221190476Y-114880952D01*
X221238095Y-114976190D01*
X221285714Y-115023809D01*
X221380952Y-115071428D01*
X221571428Y-115071428D01*
X221666666Y-115023809D01*
X221714285Y-114976190D01*
X221761904Y-114880952D01*
X219607142Y-130857142D02*
X219559523Y-130904761D01*
X219416666Y-130952380D01*
X219321428Y-130952380D01*
X219178571Y-130904761D01*
X219083333Y-130809523D01*
X219035714Y-130714285D01*
X218988095Y-130523809D01*
X218988095Y-130380952D01*
X219035714Y-130190476D01*
X219083333Y-130095238D01*
X219178571Y-130000000D01*
X219321428Y-129952380D01*
X219416666Y-129952380D01*
X219559523Y-130000000D01*
X219607142Y-130047619D01*
X219988095Y-130047619D02*
X220035714Y-130000000D01*
X220130952Y-129952380D01*
X220369047Y-129952380D01*
X220464285Y-130000000D01*
X220511904Y-130047619D01*
X220559523Y-130142857D01*
X220559523Y-130238095D01*
X220511904Y-130380952D01*
X219940476Y-130952380D01*
X220559523Y-130952380D01*
X221178571Y-129952380D02*
X221273809Y-129952380D01*
X221369047Y-130000000D01*
X221416666Y-130047619D01*
X221464285Y-130142857D01*
X221511904Y-130333333D01*
X221511904Y-130571428D01*
X221464285Y-130761904D01*
X221416666Y-130857142D01*
X221369047Y-130904761D01*
X221273809Y-130952380D01*
X221178571Y-130952380D01*
X221083333Y-130904761D01*
X221035714Y-130857142D01*
X220988095Y-130761904D01*
X220940476Y-130571428D01*
X220940476Y-130333333D01*
X220988095Y-130142857D01*
X221035714Y-130047619D01*
X221083333Y-130000000D01*
X221178571Y-129952380D01*
X209857142Y-130357142D02*
X209809523Y-130404761D01*
X209666666Y-130452380D01*
X209571428Y-130452380D01*
X209428571Y-130404761D01*
X209333333Y-130309523D01*
X209285714Y-130214285D01*
X209238095Y-130023809D01*
X209238095Y-129880952D01*
X209285714Y-129690476D01*
X209333333Y-129595238D01*
X209428571Y-129500000D01*
X209571428Y-129452380D01*
X209666666Y-129452380D01*
X209809523Y-129500000D01*
X209857142Y-129547619D01*
X210238095Y-129547619D02*
X210285714Y-129500000D01*
X210380952Y-129452380D01*
X210619047Y-129452380D01*
X210714285Y-129500000D01*
X210761904Y-129547619D01*
X210809523Y-129642857D01*
X210809523Y-129738095D01*
X210761904Y-129880952D01*
X210190476Y-130452380D01*
X210809523Y-130452380D01*
X211761904Y-130452380D02*
X211190476Y-130452380D01*
X211476190Y-130452380D02*
X211476190Y-129452380D01*
X211380952Y-129595238D01*
X211285714Y-129690476D01*
X211190476Y-129738095D01*
X207857142Y-120107142D02*
X207809523Y-120154761D01*
X207666666Y-120202380D01*
X207571428Y-120202380D01*
X207428571Y-120154761D01*
X207333333Y-120059523D01*
X207285714Y-119964285D01*
X207238095Y-119773809D01*
X207238095Y-119630952D01*
X207285714Y-119440476D01*
X207333333Y-119345238D01*
X207428571Y-119250000D01*
X207571428Y-119202380D01*
X207666666Y-119202380D01*
X207809523Y-119250000D01*
X207857142Y-119297619D01*
X208238095Y-119297619D02*
X208285714Y-119250000D01*
X208380952Y-119202380D01*
X208619047Y-119202380D01*
X208714285Y-119250000D01*
X208761904Y-119297619D01*
X208809523Y-119392857D01*
X208809523Y-119488095D01*
X208761904Y-119630952D01*
X208190476Y-120202380D01*
X208809523Y-120202380D01*
X209190476Y-119297619D02*
X209238095Y-119250000D01*
X209333333Y-119202380D01*
X209571428Y-119202380D01*
X209666666Y-119250000D01*
X209714285Y-119297619D01*
X209761904Y-119392857D01*
X209761904Y-119488095D01*
X209714285Y-119630952D01*
X209142857Y-120202380D01*
X209761904Y-120202380D01*
X245511904Y-130452380D02*
X245511904Y-129452380D01*
X245750000Y-129452380D01*
X245892857Y-129500000D01*
X245988095Y-129595238D01*
X246035714Y-129690476D01*
X246083333Y-129880952D01*
X246083333Y-130023809D01*
X246035714Y-130214285D01*
X245988095Y-130309523D01*
X245892857Y-130404761D01*
X245750000Y-130452380D01*
X245511904Y-130452380D01*
X247035714Y-130452380D02*
X246464285Y-130452380D01*
X246750000Y-130452380D02*
X246750000Y-129452380D01*
X246654761Y-129595238D01*
X246559523Y-129690476D01*
X246464285Y-129738095D01*
X234261904Y-112952380D02*
X234261904Y-111952380D01*
X234500000Y-111952380D01*
X234642857Y-112000000D01*
X234738095Y-112095238D01*
X234785714Y-112190476D01*
X234833333Y-112380952D01*
X234833333Y-112523809D01*
X234785714Y-112714285D01*
X234738095Y-112809523D01*
X234642857Y-112904761D01*
X234500000Y-112952380D01*
X234261904Y-112952380D01*
X235214285Y-112047619D02*
X235261904Y-112000000D01*
X235357142Y-111952380D01*
X235595238Y-111952380D01*
X235690476Y-112000000D01*
X235738095Y-112047619D01*
X235785714Y-112142857D01*
X235785714Y-112238095D01*
X235738095Y-112380952D01*
X235166666Y-112952380D01*
X235785714Y-112952380D01*
X235511904Y-115452380D02*
X235511904Y-114452380D01*
X235750000Y-114452380D01*
X235892857Y-114500000D01*
X235988095Y-114595238D01*
X236035714Y-114690476D01*
X236083333Y-114880952D01*
X236083333Y-115023809D01*
X236035714Y-115214285D01*
X235988095Y-115309523D01*
X235892857Y-115404761D01*
X235750000Y-115452380D01*
X235511904Y-115452380D01*
X236416666Y-114452380D02*
X237035714Y-114452380D01*
X236702380Y-114833333D01*
X236845238Y-114833333D01*
X236940476Y-114880952D01*
X236988095Y-114928571D01*
X237035714Y-115023809D01*
X237035714Y-115261904D01*
X236988095Y-115357142D01*
X236940476Y-115404761D01*
X236845238Y-115452380D01*
X236559523Y-115452380D01*
X236464285Y-115404761D01*
X236416666Y-115357142D01*
X234511904Y-118952380D02*
X234511904Y-117952380D01*
X234750000Y-117952380D01*
X234892857Y-118000000D01*
X234988095Y-118095238D01*
X235035714Y-118190476D01*
X235083333Y-118380952D01*
X235083333Y-118523809D01*
X235035714Y-118714285D01*
X234988095Y-118809523D01*
X234892857Y-118904761D01*
X234750000Y-118952380D01*
X234511904Y-118952380D01*
X235940476Y-118285714D02*
X235940476Y-118952380D01*
X235702380Y-117904761D02*
X235464285Y-118619047D01*
X236083333Y-118619047D01*
X158166666Y-131202380D02*
X158166666Y-131916666D01*
X158119047Y-132059523D01*
X158023809Y-132154761D01*
X157880952Y-132202380D01*
X157785714Y-132202380D01*
X158547619Y-131202380D02*
X159166666Y-131202380D01*
X158833333Y-131583333D01*
X158976190Y-131583333D01*
X159071428Y-131630952D01*
X159119047Y-131678571D01*
X159166666Y-131773809D01*
X159166666Y-132011904D01*
X159119047Y-132107142D01*
X159071428Y-132154761D01*
X158976190Y-132202380D01*
X158690476Y-132202380D01*
X158595238Y-132154761D01*
X158547619Y-132107142D01*
X205372380Y-135313333D02*
X206086666Y-135313333D01*
X206229523Y-135360952D01*
X206324761Y-135456190D01*
X206372380Y-135599047D01*
X206372380Y-135694285D01*
X205372380Y-134408571D02*
X205372380Y-134599047D01*
X205420000Y-134694285D01*
X205467619Y-134741904D01*
X205610476Y-134837142D01*
X205800952Y-134884761D01*
X206181904Y-134884761D01*
X206277142Y-134837142D01*
X206324761Y-134789523D01*
X206372380Y-134694285D01*
X206372380Y-134503809D01*
X206324761Y-134408571D01*
X206277142Y-134360952D01*
X206181904Y-134313333D01*
X205943809Y-134313333D01*
X205848571Y-134360952D01*
X205800952Y-134408571D01*
X205753333Y-134503809D01*
X205753333Y-134694285D01*
X205800952Y-134789523D01*
X205848571Y-134837142D01*
X205943809Y-134884761D01*
X49416666Y-122452380D02*
X49416666Y-123166666D01*
X49369047Y-123309523D01*
X49273809Y-123404761D01*
X49130952Y-123452380D01*
X49035714Y-123452380D01*
X49797619Y-122452380D02*
X50464285Y-122452380D01*
X50035714Y-123452380D01*
X63666666Y-122452380D02*
X63666666Y-123166666D01*
X63619047Y-123309523D01*
X63523809Y-123404761D01*
X63380952Y-123452380D01*
X63285714Y-123452380D01*
X64285714Y-122880952D02*
X64190476Y-122833333D01*
X64142857Y-122785714D01*
X64095238Y-122690476D01*
X64095238Y-122642857D01*
X64142857Y-122547619D01*
X64190476Y-122500000D01*
X64285714Y-122452380D01*
X64476190Y-122452380D01*
X64571428Y-122500000D01*
X64619047Y-122547619D01*
X64666666Y-122642857D01*
X64666666Y-122690476D01*
X64619047Y-122785714D01*
X64571428Y-122833333D01*
X64476190Y-122880952D01*
X64285714Y-122880952D01*
X64190476Y-122928571D01*
X64142857Y-122976190D01*
X64095238Y-123071428D01*
X64095238Y-123261904D01*
X64142857Y-123357142D01*
X64190476Y-123404761D01*
X64285714Y-123452380D01*
X64476190Y-123452380D01*
X64571428Y-123404761D01*
X64619047Y-123357142D01*
X64666666Y-123261904D01*
X64666666Y-123071428D01*
X64619047Y-122976190D01*
X64571428Y-122928571D01*
X64476190Y-122880952D01*
X77666666Y-122452380D02*
X77666666Y-123166666D01*
X77619047Y-123309523D01*
X77523809Y-123404761D01*
X77380952Y-123452380D01*
X77285714Y-123452380D01*
X78190476Y-123452380D02*
X78380952Y-123452380D01*
X78476190Y-123404761D01*
X78523809Y-123357142D01*
X78619047Y-123214285D01*
X78666666Y-123023809D01*
X78666666Y-122642857D01*
X78619047Y-122547619D01*
X78571428Y-122500000D01*
X78476190Y-122452380D01*
X78285714Y-122452380D01*
X78190476Y-122500000D01*
X78142857Y-122547619D01*
X78095238Y-122642857D01*
X78095238Y-122880952D01*
X78142857Y-122976190D01*
X78190476Y-123023809D01*
X78285714Y-123071428D01*
X78476190Y-123071428D01*
X78571428Y-123023809D01*
X78619047Y-122976190D01*
X78666666Y-122880952D01*
X91190476Y-122452380D02*
X91190476Y-123166666D01*
X91142857Y-123309523D01*
X91047619Y-123404761D01*
X90904761Y-123452380D01*
X90809523Y-123452380D01*
X92190476Y-123452380D02*
X91619047Y-123452380D01*
X91904761Y-123452380D02*
X91904761Y-122452380D01*
X91809523Y-122595238D01*
X91714285Y-122690476D01*
X91619047Y-122738095D01*
X92809523Y-122452380D02*
X92904761Y-122452380D01*
X93000000Y-122500000D01*
X93047619Y-122547619D01*
X93095238Y-122642857D01*
X93142857Y-122833333D01*
X93142857Y-123071428D01*
X93095238Y-123261904D01*
X93047619Y-123357142D01*
X93000000Y-123404761D01*
X92904761Y-123452380D01*
X92809523Y-123452380D01*
X92714285Y-123404761D01*
X92666666Y-123357142D01*
X92619047Y-123261904D01*
X92571428Y-123071428D01*
X92571428Y-122833333D01*
X92619047Y-122642857D01*
X92666666Y-122547619D01*
X92714285Y-122500000D01*
X92809523Y-122452380D01*
X70190476Y-122452380D02*
X70190476Y-123166666D01*
X70142857Y-123309523D01*
X70047619Y-123404761D01*
X69904761Y-123452380D01*
X69809523Y-123452380D01*
X71190476Y-123452380D02*
X70619047Y-123452380D01*
X70904761Y-123452380D02*
X70904761Y-122452380D01*
X70809523Y-122595238D01*
X70714285Y-122690476D01*
X70619047Y-122738095D01*
X72142857Y-123452380D02*
X71571428Y-123452380D01*
X71857142Y-123452380D02*
X71857142Y-122452380D01*
X71761904Y-122595238D01*
X71666666Y-122690476D01*
X71571428Y-122738095D01*
X221872380Y-110039523D02*
X222586666Y-110039523D01*
X222729523Y-110087142D01*
X222824761Y-110182380D01*
X222872380Y-110325238D01*
X222872380Y-110420476D01*
X222872380Y-109039523D02*
X222872380Y-109610952D01*
X222872380Y-109325238D02*
X221872380Y-109325238D01*
X222015238Y-109420476D01*
X222110476Y-109515714D01*
X222158095Y-109610952D01*
X221967619Y-108658571D02*
X221920000Y-108610952D01*
X221872380Y-108515714D01*
X221872380Y-108277619D01*
X221920000Y-108182380D01*
X221967619Y-108134761D01*
X222062857Y-108087142D01*
X222158095Y-108087142D01*
X222300952Y-108134761D01*
X222872380Y-108706190D01*
X222872380Y-108087142D01*
X118833333Y-108702380D02*
X118500000Y-108226190D01*
X118261904Y-108702380D02*
X118261904Y-107702380D01*
X118642857Y-107702380D01*
X118738095Y-107750000D01*
X118785714Y-107797619D01*
X118833333Y-107892857D01*
X118833333Y-108035714D01*
X118785714Y-108130952D01*
X118738095Y-108178571D01*
X118642857Y-108226190D01*
X118261904Y-108226190D01*
X119785714Y-108702380D02*
X119214285Y-108702380D01*
X119500000Y-108702380D02*
X119500000Y-107702380D01*
X119404761Y-107845238D01*
X119309523Y-107940476D01*
X119214285Y-107988095D01*
X171583333Y-109452380D02*
X171250000Y-108976190D01*
X171011904Y-109452380D02*
X171011904Y-108452380D01*
X171392857Y-108452380D01*
X171488095Y-108500000D01*
X171535714Y-108547619D01*
X171583333Y-108642857D01*
X171583333Y-108785714D01*
X171535714Y-108880952D01*
X171488095Y-108928571D01*
X171392857Y-108976190D01*
X171011904Y-108976190D01*
X171964285Y-108547619D02*
X172011904Y-108500000D01*
X172107142Y-108452380D01*
X172345238Y-108452380D01*
X172440476Y-108500000D01*
X172488095Y-108547619D01*
X172535714Y-108642857D01*
X172535714Y-108738095D01*
X172488095Y-108880952D01*
X171916666Y-109452380D01*
X172535714Y-109452380D01*
X143333333Y-109202380D02*
X143000000Y-108726190D01*
X142761904Y-109202380D02*
X142761904Y-108202380D01*
X143142857Y-108202380D01*
X143238095Y-108250000D01*
X143285714Y-108297619D01*
X143333333Y-108392857D01*
X143333333Y-108535714D01*
X143285714Y-108630952D01*
X143238095Y-108678571D01*
X143142857Y-108726190D01*
X142761904Y-108726190D01*
X144190476Y-108535714D02*
X144190476Y-109202380D01*
X143952380Y-108154761D02*
X143714285Y-108869047D01*
X144333333Y-108869047D01*
X119083333Y-120952380D02*
X118750000Y-120476190D01*
X118511904Y-120952380D02*
X118511904Y-119952380D01*
X118892857Y-119952380D01*
X118988095Y-120000000D01*
X119035714Y-120047619D01*
X119083333Y-120142857D01*
X119083333Y-120285714D01*
X119035714Y-120380952D01*
X118988095Y-120428571D01*
X118892857Y-120476190D01*
X118511904Y-120476190D01*
X119988095Y-119952380D02*
X119511904Y-119952380D01*
X119464285Y-120428571D01*
X119511904Y-120380952D01*
X119607142Y-120333333D01*
X119845238Y-120333333D01*
X119940476Y-120380952D01*
X119988095Y-120428571D01*
X120035714Y-120523809D01*
X120035714Y-120761904D01*
X119988095Y-120857142D01*
X119940476Y-120904761D01*
X119845238Y-120952380D01*
X119607142Y-120952380D01*
X119511904Y-120904761D01*
X119464285Y-120857142D01*
X121333333Y-120952380D02*
X121000000Y-120476190D01*
X120761904Y-120952380D02*
X120761904Y-119952380D01*
X121142857Y-119952380D01*
X121238095Y-120000000D01*
X121285714Y-120047619D01*
X121333333Y-120142857D01*
X121333333Y-120285714D01*
X121285714Y-120380952D01*
X121238095Y-120428571D01*
X121142857Y-120476190D01*
X120761904Y-120476190D01*
X122190476Y-119952380D02*
X122000000Y-119952380D01*
X121904761Y-120000000D01*
X121857142Y-120047619D01*
X121761904Y-120190476D01*
X121714285Y-120380952D01*
X121714285Y-120761904D01*
X121761904Y-120857142D01*
X121809523Y-120904761D01*
X121904761Y-120952380D01*
X122095238Y-120952380D01*
X122190476Y-120904761D01*
X122238095Y-120857142D01*
X122285714Y-120761904D01*
X122285714Y-120523809D01*
X122238095Y-120428571D01*
X122190476Y-120380952D01*
X122095238Y-120333333D01*
X121904761Y-120333333D01*
X121809523Y-120380952D01*
X121761904Y-120428571D01*
X121714285Y-120523809D01*
X123583333Y-120952380D02*
X123250000Y-120476190D01*
X123011904Y-120952380D02*
X123011904Y-119952380D01*
X123392857Y-119952380D01*
X123488095Y-120000000D01*
X123535714Y-120047619D01*
X123583333Y-120142857D01*
X123583333Y-120285714D01*
X123535714Y-120380952D01*
X123488095Y-120428571D01*
X123392857Y-120476190D01*
X123011904Y-120476190D01*
X123916666Y-119952380D02*
X124583333Y-119952380D01*
X124154761Y-120952380D01*
X173083333Y-120952380D02*
X172750000Y-120476190D01*
X172511904Y-120952380D02*
X172511904Y-119952380D01*
X172892857Y-119952380D01*
X172988095Y-120000000D01*
X173035714Y-120047619D01*
X173083333Y-120142857D01*
X173083333Y-120285714D01*
X173035714Y-120380952D01*
X172988095Y-120428571D01*
X172892857Y-120476190D01*
X172511904Y-120476190D01*
X173654761Y-120380952D02*
X173559523Y-120333333D01*
X173511904Y-120285714D01*
X173464285Y-120190476D01*
X173464285Y-120142857D01*
X173511904Y-120047619D01*
X173559523Y-120000000D01*
X173654761Y-119952380D01*
X173845238Y-119952380D01*
X173940476Y-120000000D01*
X173988095Y-120047619D01*
X174035714Y-120142857D01*
X174035714Y-120190476D01*
X173988095Y-120285714D01*
X173940476Y-120333333D01*
X173845238Y-120380952D01*
X173654761Y-120380952D01*
X173559523Y-120428571D01*
X173511904Y-120476190D01*
X173464285Y-120571428D01*
X173464285Y-120761904D01*
X173511904Y-120857142D01*
X173559523Y-120904761D01*
X173654761Y-120952380D01*
X173845238Y-120952380D01*
X173940476Y-120904761D01*
X173988095Y-120857142D01*
X174035714Y-120761904D01*
X174035714Y-120571428D01*
X173988095Y-120476190D01*
X173940476Y-120428571D01*
X173845238Y-120380952D01*
X175083333Y-120952380D02*
X174750000Y-120476190D01*
X174511904Y-120952380D02*
X174511904Y-119952380D01*
X174892857Y-119952380D01*
X174988095Y-120000000D01*
X175035714Y-120047619D01*
X175083333Y-120142857D01*
X175083333Y-120285714D01*
X175035714Y-120380952D01*
X174988095Y-120428571D01*
X174892857Y-120476190D01*
X174511904Y-120476190D01*
X175559523Y-120952380D02*
X175750000Y-120952380D01*
X175845238Y-120904761D01*
X175892857Y-120857142D01*
X175988095Y-120714285D01*
X176035714Y-120523809D01*
X176035714Y-120142857D01*
X175988095Y-120047619D01*
X175940476Y-120000000D01*
X175845238Y-119952380D01*
X175654761Y-119952380D01*
X175559523Y-120000000D01*
X175511904Y-120047619D01*
X175464285Y-120142857D01*
X175464285Y-120380952D01*
X175511904Y-120476190D01*
X175559523Y-120523809D01*
X175654761Y-120571428D01*
X175845238Y-120571428D01*
X175940476Y-120523809D01*
X175988095Y-120476190D01*
X176035714Y-120380952D01*
X176857142Y-120952380D02*
X176523809Y-120476190D01*
X176285714Y-120952380D02*
X176285714Y-119952380D01*
X176666666Y-119952380D01*
X176761904Y-120000000D01*
X176809523Y-120047619D01*
X176857142Y-120142857D01*
X176857142Y-120285714D01*
X176809523Y-120380952D01*
X176761904Y-120428571D01*
X176666666Y-120476190D01*
X176285714Y-120476190D01*
X177809523Y-120952380D02*
X177238095Y-120952380D01*
X177523809Y-120952380D02*
X177523809Y-119952380D01*
X177428571Y-120095238D01*
X177333333Y-120190476D01*
X177238095Y-120238095D01*
X178428571Y-119952380D02*
X178523809Y-119952380D01*
X178619047Y-120000000D01*
X178666666Y-120047619D01*
X178714285Y-120142857D01*
X178761904Y-120333333D01*
X178761904Y-120571428D01*
X178714285Y-120761904D01*
X178666666Y-120857142D01*
X178619047Y-120904761D01*
X178523809Y-120952380D01*
X178428571Y-120952380D01*
X178333333Y-120904761D01*
X178285714Y-120857142D01*
X178238095Y-120761904D01*
X178190476Y-120571428D01*
X178190476Y-120333333D01*
X178238095Y-120142857D01*
X178285714Y-120047619D01*
X178333333Y-120000000D01*
X178428571Y-119952380D01*
X144607142Y-120952380D02*
X144273809Y-120476190D01*
X144035714Y-120952380D02*
X144035714Y-119952380D01*
X144416666Y-119952380D01*
X144511904Y-120000000D01*
X144559523Y-120047619D01*
X144607142Y-120142857D01*
X144607142Y-120285714D01*
X144559523Y-120380952D01*
X144511904Y-120428571D01*
X144416666Y-120476190D01*
X144035714Y-120476190D01*
X145559523Y-120952380D02*
X144988095Y-120952380D01*
X145273809Y-120952380D02*
X145273809Y-119952380D01*
X145178571Y-120095238D01*
X145083333Y-120190476D01*
X144988095Y-120238095D01*
X146416666Y-120285714D02*
X146416666Y-120952380D01*
X146178571Y-119904761D02*
X145940476Y-120619047D01*
X146559523Y-120619047D01*
X147607142Y-120952380D02*
X147273809Y-120476190D01*
X147035714Y-120952380D02*
X147035714Y-119952380D01*
X147416666Y-119952380D01*
X147511904Y-120000000D01*
X147559523Y-120047619D01*
X147607142Y-120142857D01*
X147607142Y-120285714D01*
X147559523Y-120380952D01*
X147511904Y-120428571D01*
X147416666Y-120476190D01*
X147035714Y-120476190D01*
X148559523Y-120952380D02*
X147988095Y-120952380D01*
X148273809Y-120952380D02*
X148273809Y-119952380D01*
X148178571Y-120095238D01*
X148083333Y-120190476D01*
X147988095Y-120238095D01*
X149464285Y-119952380D02*
X148988095Y-119952380D01*
X148940476Y-120428571D01*
X148988095Y-120380952D01*
X149083333Y-120333333D01*
X149321428Y-120333333D01*
X149416666Y-120380952D01*
X149464285Y-120428571D01*
X149511904Y-120523809D01*
X149511904Y-120761904D01*
X149464285Y-120857142D01*
X149416666Y-120904761D01*
X149321428Y-120952380D01*
X149083333Y-120952380D01*
X148988095Y-120904761D01*
X148940476Y-120857142D01*
X150607142Y-120952380D02*
X150273809Y-120476190D01*
X150035714Y-120952380D02*
X150035714Y-119952380D01*
X150416666Y-119952380D01*
X150511904Y-120000000D01*
X150559523Y-120047619D01*
X150607142Y-120142857D01*
X150607142Y-120285714D01*
X150559523Y-120380952D01*
X150511904Y-120428571D01*
X150416666Y-120476190D01*
X150035714Y-120476190D01*
X151559523Y-120952380D02*
X150988095Y-120952380D01*
X151273809Y-120952380D02*
X151273809Y-119952380D01*
X151178571Y-120095238D01*
X151083333Y-120190476D01*
X150988095Y-120238095D01*
X152416666Y-119952380D02*
X152226190Y-119952380D01*
X152130952Y-120000000D01*
X152083333Y-120047619D01*
X151988095Y-120190476D01*
X151940476Y-120380952D01*
X151940476Y-120761904D01*
X151988095Y-120857142D01*
X152035714Y-120904761D01*
X152130952Y-120952380D01*
X152321428Y-120952380D01*
X152416666Y-120904761D01*
X152464285Y-120857142D01*
X152511904Y-120761904D01*
X152511904Y-120523809D01*
X152464285Y-120428571D01*
X152416666Y-120380952D01*
X152321428Y-120333333D01*
X152130952Y-120333333D01*
X152035714Y-120380952D01*
X151988095Y-120428571D01*
X151940476Y-120523809D01*
X109257142Y-109352380D02*
X108923809Y-108876190D01*
X108685714Y-109352380D02*
X108685714Y-108352380D01*
X109066666Y-108352380D01*
X109161904Y-108400000D01*
X109209523Y-108447619D01*
X109257142Y-108542857D01*
X109257142Y-108685714D01*
X109209523Y-108780952D01*
X109161904Y-108828571D01*
X109066666Y-108876190D01*
X108685714Y-108876190D01*
X110209523Y-109352380D02*
X109638095Y-109352380D01*
X109923809Y-109352380D02*
X109923809Y-108352380D01*
X109828571Y-108495238D01*
X109733333Y-108590476D01*
X109638095Y-108638095D01*
X110542857Y-108352380D02*
X111209523Y-108352380D01*
X110780952Y-109352380D01*
X163607142Y-109452380D02*
X163273809Y-108976190D01*
X163035714Y-109452380D02*
X163035714Y-108452380D01*
X163416666Y-108452380D01*
X163511904Y-108500000D01*
X163559523Y-108547619D01*
X163607142Y-108642857D01*
X163607142Y-108785714D01*
X163559523Y-108880952D01*
X163511904Y-108928571D01*
X163416666Y-108976190D01*
X163035714Y-108976190D01*
X164559523Y-109452380D02*
X163988095Y-109452380D01*
X164273809Y-109452380D02*
X164273809Y-108452380D01*
X164178571Y-108595238D01*
X164083333Y-108690476D01*
X163988095Y-108738095D01*
X165130952Y-108880952D02*
X165035714Y-108833333D01*
X164988095Y-108785714D01*
X164940476Y-108690476D01*
X164940476Y-108642857D01*
X164988095Y-108547619D01*
X165035714Y-108500000D01*
X165130952Y-108452380D01*
X165321428Y-108452380D01*
X165416666Y-108500000D01*
X165464285Y-108547619D01*
X165511904Y-108642857D01*
X165511904Y-108690476D01*
X165464285Y-108785714D01*
X165416666Y-108833333D01*
X165321428Y-108880952D01*
X165130952Y-108880952D01*
X165035714Y-108928571D01*
X164988095Y-108976190D01*
X164940476Y-109071428D01*
X164940476Y-109261904D01*
X164988095Y-109357142D01*
X165035714Y-109404761D01*
X165130952Y-109452380D01*
X165321428Y-109452380D01*
X165416666Y-109404761D01*
X165464285Y-109357142D01*
X165511904Y-109261904D01*
X165511904Y-109071428D01*
X165464285Y-108976190D01*
X165416666Y-108928571D01*
X165321428Y-108880952D01*
X135107142Y-108952380D02*
X134773809Y-108476190D01*
X134535714Y-108952380D02*
X134535714Y-107952380D01*
X134916666Y-107952380D01*
X135011904Y-108000000D01*
X135059523Y-108047619D01*
X135107142Y-108142857D01*
X135107142Y-108285714D01*
X135059523Y-108380952D01*
X135011904Y-108428571D01*
X134916666Y-108476190D01*
X134535714Y-108476190D01*
X135488095Y-108047619D02*
X135535714Y-108000000D01*
X135630952Y-107952380D01*
X135869047Y-107952380D01*
X135964285Y-108000000D01*
X136011904Y-108047619D01*
X136059523Y-108142857D01*
X136059523Y-108238095D01*
X136011904Y-108380952D01*
X135440476Y-108952380D01*
X136059523Y-108952380D01*
X136678571Y-107952380D02*
X136773809Y-107952380D01*
X136869047Y-108000000D01*
X136916666Y-108047619D01*
X136964285Y-108142857D01*
X137011904Y-108333333D01*
X137011904Y-108571428D01*
X136964285Y-108761904D01*
X136916666Y-108857142D01*
X136869047Y-108904761D01*
X136773809Y-108952380D01*
X136678571Y-108952380D01*
X136583333Y-108904761D01*
X136535714Y-108857142D01*
X136488095Y-108761904D01*
X136440476Y-108571428D01*
X136440476Y-108333333D01*
X136488095Y-108142857D01*
X136535714Y-108047619D01*
X136583333Y-108000000D01*
X136678571Y-107952380D01*
X230107142Y-123452380D02*
X229773809Y-122976190D01*
X229535714Y-123452380D02*
X229535714Y-122452380D01*
X229916666Y-122452380D01*
X230011904Y-122500000D01*
X230059523Y-122547619D01*
X230107142Y-122642857D01*
X230107142Y-122785714D01*
X230059523Y-122880952D01*
X230011904Y-122928571D01*
X229916666Y-122976190D01*
X229535714Y-122976190D01*
X230488095Y-122547619D02*
X230535714Y-122500000D01*
X230630952Y-122452380D01*
X230869047Y-122452380D01*
X230964285Y-122500000D01*
X231011904Y-122547619D01*
X231059523Y-122642857D01*
X231059523Y-122738095D01*
X231011904Y-122880952D01*
X230440476Y-123452380D01*
X231059523Y-123452380D01*
X232011904Y-123452380D02*
X231440476Y-123452380D01*
X231726190Y-123452380D02*
X231726190Y-122452380D01*
X231630952Y-122595238D01*
X231535714Y-122690476D01*
X231440476Y-122738095D01*
X230107142Y-121952380D02*
X229773809Y-121476190D01*
X229535714Y-121952380D02*
X229535714Y-120952380D01*
X229916666Y-120952380D01*
X230011904Y-121000000D01*
X230059523Y-121047619D01*
X230107142Y-121142857D01*
X230107142Y-121285714D01*
X230059523Y-121380952D01*
X230011904Y-121428571D01*
X229916666Y-121476190D01*
X229535714Y-121476190D01*
X230488095Y-121047619D02*
X230535714Y-121000000D01*
X230630952Y-120952380D01*
X230869047Y-120952380D01*
X230964285Y-121000000D01*
X231011904Y-121047619D01*
X231059523Y-121142857D01*
X231059523Y-121238095D01*
X231011904Y-121380952D01*
X230440476Y-121952380D01*
X231059523Y-121952380D01*
X231440476Y-121047619D02*
X231488095Y-121000000D01*
X231583333Y-120952380D01*
X231821428Y-120952380D01*
X231916666Y-121000000D01*
X231964285Y-121047619D01*
X232011904Y-121142857D01*
X232011904Y-121238095D01*
X231964285Y-121380952D01*
X231392857Y-121952380D01*
X232011904Y-121952380D01*
X230107142Y-120702380D02*
X229773809Y-120226190D01*
X229535714Y-120702380D02*
X229535714Y-119702380D01*
X229916666Y-119702380D01*
X230011904Y-119750000D01*
X230059523Y-119797619D01*
X230107142Y-119892857D01*
X230107142Y-120035714D01*
X230059523Y-120130952D01*
X230011904Y-120178571D01*
X229916666Y-120226190D01*
X229535714Y-120226190D01*
X230488095Y-119797619D02*
X230535714Y-119750000D01*
X230630952Y-119702380D01*
X230869047Y-119702380D01*
X230964285Y-119750000D01*
X231011904Y-119797619D01*
X231059523Y-119892857D01*
X231059523Y-119988095D01*
X231011904Y-120130952D01*
X230440476Y-120702380D01*
X231059523Y-120702380D01*
X231392857Y-119702380D02*
X232011904Y-119702380D01*
X231678571Y-120083333D01*
X231821428Y-120083333D01*
X231916666Y-120130952D01*
X231964285Y-120178571D01*
X232011904Y-120273809D01*
X232011904Y-120511904D01*
X231964285Y-120607142D01*
X231916666Y-120654761D01*
X231821428Y-120702380D01*
X231535714Y-120702380D01*
X231440476Y-120654761D01*
X231392857Y-120607142D01*
X110357142Y-120952380D02*
X110023809Y-120476190D01*
X109785714Y-120952380D02*
X109785714Y-119952380D01*
X110166666Y-119952380D01*
X110261904Y-120000000D01*
X110309523Y-120047619D01*
X110357142Y-120142857D01*
X110357142Y-120285714D01*
X110309523Y-120380952D01*
X110261904Y-120428571D01*
X110166666Y-120476190D01*
X109785714Y-120476190D01*
X110738095Y-120047619D02*
X110785714Y-120000000D01*
X110880952Y-119952380D01*
X111119047Y-119952380D01*
X111214285Y-120000000D01*
X111261904Y-120047619D01*
X111309523Y-120142857D01*
X111309523Y-120238095D01*
X111261904Y-120380952D01*
X110690476Y-120952380D01*
X111309523Y-120952380D01*
X112166666Y-120285714D02*
X112166666Y-120952380D01*
X111928571Y-119904761D02*
X111690476Y-120619047D01*
X112309523Y-120619047D01*
X113107142Y-120952380D02*
X112773809Y-120476190D01*
X112535714Y-120952380D02*
X112535714Y-119952380D01*
X112916666Y-119952380D01*
X113011904Y-120000000D01*
X113059523Y-120047619D01*
X113107142Y-120142857D01*
X113107142Y-120285714D01*
X113059523Y-120380952D01*
X113011904Y-120428571D01*
X112916666Y-120476190D01*
X112535714Y-120476190D01*
X113488095Y-120047619D02*
X113535714Y-120000000D01*
X113630952Y-119952380D01*
X113869047Y-119952380D01*
X113964285Y-120000000D01*
X114011904Y-120047619D01*
X114059523Y-120142857D01*
X114059523Y-120238095D01*
X114011904Y-120380952D01*
X113440476Y-120952380D01*
X114059523Y-120952380D01*
X114964285Y-119952380D02*
X114488095Y-119952380D01*
X114440476Y-120428571D01*
X114488095Y-120380952D01*
X114583333Y-120333333D01*
X114821428Y-120333333D01*
X114916666Y-120380952D01*
X114964285Y-120428571D01*
X115011904Y-120523809D01*
X115011904Y-120761904D01*
X114964285Y-120857142D01*
X114916666Y-120904761D01*
X114821428Y-120952380D01*
X114583333Y-120952380D01*
X114488095Y-120904761D01*
X114440476Y-120857142D01*
X115857142Y-120952380D02*
X115523809Y-120476190D01*
X115285714Y-120952380D02*
X115285714Y-119952380D01*
X115666666Y-119952380D01*
X115761904Y-120000000D01*
X115809523Y-120047619D01*
X115857142Y-120142857D01*
X115857142Y-120285714D01*
X115809523Y-120380952D01*
X115761904Y-120428571D01*
X115666666Y-120476190D01*
X115285714Y-120476190D01*
X116238095Y-120047619D02*
X116285714Y-120000000D01*
X116380952Y-119952380D01*
X116619047Y-119952380D01*
X116714285Y-120000000D01*
X116761904Y-120047619D01*
X116809523Y-120142857D01*
X116809523Y-120238095D01*
X116761904Y-120380952D01*
X116190476Y-120952380D01*
X116809523Y-120952380D01*
X117666666Y-119952380D02*
X117476190Y-119952380D01*
X117380952Y-120000000D01*
X117333333Y-120047619D01*
X117238095Y-120190476D01*
X117190476Y-120380952D01*
X117190476Y-120761904D01*
X117238095Y-120857142D01*
X117285714Y-120904761D01*
X117380952Y-120952380D01*
X117571428Y-120952380D01*
X117666666Y-120904761D01*
X117714285Y-120857142D01*
X117761904Y-120761904D01*
X117761904Y-120523809D01*
X117714285Y-120428571D01*
X117666666Y-120380952D01*
X117571428Y-120333333D01*
X117380952Y-120333333D01*
X117285714Y-120380952D01*
X117238095Y-120428571D01*
X117190476Y-120523809D01*
X164607142Y-120952380D02*
X164273809Y-120476190D01*
X164035714Y-120952380D02*
X164035714Y-119952380D01*
X164416666Y-119952380D01*
X164511904Y-120000000D01*
X164559523Y-120047619D01*
X164607142Y-120142857D01*
X164607142Y-120285714D01*
X164559523Y-120380952D01*
X164511904Y-120428571D01*
X164416666Y-120476190D01*
X164035714Y-120476190D01*
X164988095Y-120047619D02*
X165035714Y-120000000D01*
X165130952Y-119952380D01*
X165369047Y-119952380D01*
X165464285Y-120000000D01*
X165511904Y-120047619D01*
X165559523Y-120142857D01*
X165559523Y-120238095D01*
X165511904Y-120380952D01*
X164940476Y-120952380D01*
X165559523Y-120952380D01*
X165892857Y-119952380D02*
X166559523Y-119952380D01*
X166130952Y-120952380D01*
X167357142Y-120952380D02*
X167023809Y-120476190D01*
X166785714Y-120952380D02*
X166785714Y-119952380D01*
X167166666Y-119952380D01*
X167261904Y-120000000D01*
X167309523Y-120047619D01*
X167357142Y-120142857D01*
X167357142Y-120285714D01*
X167309523Y-120380952D01*
X167261904Y-120428571D01*
X167166666Y-120476190D01*
X166785714Y-120476190D01*
X167738095Y-120047619D02*
X167785714Y-120000000D01*
X167880952Y-119952380D01*
X168119047Y-119952380D01*
X168214285Y-120000000D01*
X168261904Y-120047619D01*
X168309523Y-120142857D01*
X168309523Y-120238095D01*
X168261904Y-120380952D01*
X167690476Y-120952380D01*
X168309523Y-120952380D01*
X168880952Y-120380952D02*
X168785714Y-120333333D01*
X168738095Y-120285714D01*
X168690476Y-120190476D01*
X168690476Y-120142857D01*
X168738095Y-120047619D01*
X168785714Y-120000000D01*
X168880952Y-119952380D01*
X169071428Y-119952380D01*
X169166666Y-120000000D01*
X169214285Y-120047619D01*
X169261904Y-120142857D01*
X169261904Y-120190476D01*
X169214285Y-120285714D01*
X169166666Y-120333333D01*
X169071428Y-120380952D01*
X168880952Y-120380952D01*
X168785714Y-120428571D01*
X168738095Y-120476190D01*
X168690476Y-120571428D01*
X168690476Y-120761904D01*
X168738095Y-120857142D01*
X168785714Y-120904761D01*
X168880952Y-120952380D01*
X169071428Y-120952380D01*
X169166666Y-120904761D01*
X169214285Y-120857142D01*
X169261904Y-120761904D01*
X169261904Y-120571428D01*
X169214285Y-120476190D01*
X169166666Y-120428571D01*
X169071428Y-120380952D01*
X170107142Y-120952380D02*
X169773809Y-120476190D01*
X169535714Y-120952380D02*
X169535714Y-119952380D01*
X169916666Y-119952380D01*
X170011904Y-120000000D01*
X170059523Y-120047619D01*
X170107142Y-120142857D01*
X170107142Y-120285714D01*
X170059523Y-120380952D01*
X170011904Y-120428571D01*
X169916666Y-120476190D01*
X169535714Y-120476190D01*
X170488095Y-120047619D02*
X170535714Y-120000000D01*
X170630952Y-119952380D01*
X170869047Y-119952380D01*
X170964285Y-120000000D01*
X171011904Y-120047619D01*
X171059523Y-120142857D01*
X171059523Y-120238095D01*
X171011904Y-120380952D01*
X170440476Y-120952380D01*
X171059523Y-120952380D01*
X171535714Y-120952380D02*
X171726190Y-120952380D01*
X171821428Y-120904761D01*
X171869047Y-120857142D01*
X171964285Y-120714285D01*
X172011904Y-120523809D01*
X172011904Y-120142857D01*
X171964285Y-120047619D01*
X171916666Y-120000000D01*
X171821428Y-119952380D01*
X171630952Y-119952380D01*
X171535714Y-120000000D01*
X171488095Y-120047619D01*
X171440476Y-120142857D01*
X171440476Y-120380952D01*
X171488095Y-120476190D01*
X171535714Y-120523809D01*
X171630952Y-120571428D01*
X171821428Y-120571428D01*
X171916666Y-120523809D01*
X171964285Y-120476190D01*
X172011904Y-120380952D01*
X138857142Y-120952380D02*
X138523809Y-120476190D01*
X138285714Y-120952380D02*
X138285714Y-119952380D01*
X138666666Y-119952380D01*
X138761904Y-120000000D01*
X138809523Y-120047619D01*
X138857142Y-120142857D01*
X138857142Y-120285714D01*
X138809523Y-120380952D01*
X138761904Y-120428571D01*
X138666666Y-120476190D01*
X138285714Y-120476190D01*
X139190476Y-119952380D02*
X139809523Y-119952380D01*
X139476190Y-120333333D01*
X139619047Y-120333333D01*
X139714285Y-120380952D01*
X139761904Y-120428571D01*
X139809523Y-120523809D01*
X139809523Y-120761904D01*
X139761904Y-120857142D01*
X139714285Y-120904761D01*
X139619047Y-120952380D01*
X139333333Y-120952380D01*
X139238095Y-120904761D01*
X139190476Y-120857142D01*
X140142857Y-119952380D02*
X140761904Y-119952380D01*
X140428571Y-120333333D01*
X140571428Y-120333333D01*
X140666666Y-120380952D01*
X140714285Y-120428571D01*
X140761904Y-120523809D01*
X140761904Y-120761904D01*
X140714285Y-120857142D01*
X140666666Y-120904761D01*
X140571428Y-120952380D01*
X140285714Y-120952380D01*
X140190476Y-120904761D01*
X140142857Y-120857142D01*
X136107142Y-120952380D02*
X135773809Y-120476190D01*
X135535714Y-120952380D02*
X135535714Y-119952380D01*
X135916666Y-119952380D01*
X136011904Y-120000000D01*
X136059523Y-120047619D01*
X136107142Y-120142857D01*
X136107142Y-120285714D01*
X136059523Y-120380952D01*
X136011904Y-120428571D01*
X135916666Y-120476190D01*
X135535714Y-120476190D01*
X136440476Y-119952380D02*
X137059523Y-119952380D01*
X136726190Y-120333333D01*
X136869047Y-120333333D01*
X136964285Y-120380952D01*
X137011904Y-120428571D01*
X137059523Y-120523809D01*
X137059523Y-120761904D01*
X137011904Y-120857142D01*
X136964285Y-120904761D01*
X136869047Y-120952380D01*
X136583333Y-120952380D01*
X136488095Y-120904761D01*
X136440476Y-120857142D01*
X137916666Y-120285714D02*
X137916666Y-120952380D01*
X137678571Y-119904761D02*
X137440476Y-120619047D01*
X138059523Y-120619047D01*
X141857142Y-120952380D02*
X141523809Y-120476190D01*
X141285714Y-120952380D02*
X141285714Y-119952380D01*
X141666666Y-119952380D01*
X141761904Y-120000000D01*
X141809523Y-120047619D01*
X141857142Y-120142857D01*
X141857142Y-120285714D01*
X141809523Y-120380952D01*
X141761904Y-120428571D01*
X141666666Y-120476190D01*
X141285714Y-120476190D01*
X142190476Y-119952380D02*
X142809523Y-119952380D01*
X142476190Y-120333333D01*
X142619047Y-120333333D01*
X142714285Y-120380952D01*
X142761904Y-120428571D01*
X142809523Y-120523809D01*
X142809523Y-120761904D01*
X142761904Y-120857142D01*
X142714285Y-120904761D01*
X142619047Y-120952380D01*
X142333333Y-120952380D01*
X142238095Y-120904761D01*
X142190476Y-120857142D01*
X143714285Y-119952380D02*
X143238095Y-119952380D01*
X143190476Y-120428571D01*
X143238095Y-120380952D01*
X143333333Y-120333333D01*
X143571428Y-120333333D01*
X143666666Y-120380952D01*
X143714285Y-120428571D01*
X143761904Y-120523809D01*
X143761904Y-120761904D01*
X143714285Y-120857142D01*
X143666666Y-120904761D01*
X143571428Y-120952380D01*
X143333333Y-120952380D01*
X143238095Y-120904761D01*
X143190476Y-120857142D01*
X101107142Y-108702380D02*
X100773809Y-108226190D01*
X100535714Y-108702380D02*
X100535714Y-107702380D01*
X100916666Y-107702380D01*
X101011904Y-107750000D01*
X101059523Y-107797619D01*
X101107142Y-107892857D01*
X101107142Y-108035714D01*
X101059523Y-108130952D01*
X101011904Y-108178571D01*
X100916666Y-108226190D01*
X100535714Y-108226190D01*
X101440476Y-107702380D02*
X102059523Y-107702380D01*
X101726190Y-108083333D01*
X101869047Y-108083333D01*
X101964285Y-108130952D01*
X102011904Y-108178571D01*
X102059523Y-108273809D01*
X102059523Y-108511904D01*
X102011904Y-108607142D01*
X101964285Y-108654761D01*
X101869047Y-108702380D01*
X101583333Y-108702380D01*
X101488095Y-108654761D01*
X101440476Y-108607142D01*
X102916666Y-107702380D02*
X102726190Y-107702380D01*
X102630952Y-107750000D01*
X102583333Y-107797619D01*
X102488095Y-107940476D01*
X102440476Y-108130952D01*
X102440476Y-108511904D01*
X102488095Y-108607142D01*
X102535714Y-108654761D01*
X102630952Y-108702380D01*
X102821428Y-108702380D01*
X102916666Y-108654761D01*
X102964285Y-108607142D01*
X103011904Y-108511904D01*
X103011904Y-108273809D01*
X102964285Y-108178571D01*
X102916666Y-108130952D01*
X102821428Y-108083333D01*
X102630952Y-108083333D01*
X102535714Y-108130952D01*
X102488095Y-108178571D01*
X102440476Y-108273809D01*
X153607142Y-111702380D02*
X153273809Y-111226190D01*
X153035714Y-111702380D02*
X153035714Y-110702380D01*
X153416666Y-110702380D01*
X153511904Y-110750000D01*
X153559523Y-110797619D01*
X153607142Y-110892857D01*
X153607142Y-111035714D01*
X153559523Y-111130952D01*
X153511904Y-111178571D01*
X153416666Y-111226190D01*
X153035714Y-111226190D01*
X153940476Y-110702380D02*
X154559523Y-110702380D01*
X154226190Y-111083333D01*
X154369047Y-111083333D01*
X154464285Y-111130952D01*
X154511904Y-111178571D01*
X154559523Y-111273809D01*
X154559523Y-111511904D01*
X154511904Y-111607142D01*
X154464285Y-111654761D01*
X154369047Y-111702380D01*
X154083333Y-111702380D01*
X153988095Y-111654761D01*
X153940476Y-111607142D01*
X154892857Y-110702380D02*
X155559523Y-110702380D01*
X155130952Y-111702380D01*
X127107142Y-109202380D02*
X126773809Y-108726190D01*
X126535714Y-109202380D02*
X126535714Y-108202380D01*
X126916666Y-108202380D01*
X127011904Y-108250000D01*
X127059523Y-108297619D01*
X127107142Y-108392857D01*
X127107142Y-108535714D01*
X127059523Y-108630952D01*
X127011904Y-108678571D01*
X126916666Y-108726190D01*
X126535714Y-108726190D01*
X127440476Y-108202380D02*
X128059523Y-108202380D01*
X127726190Y-108583333D01*
X127869047Y-108583333D01*
X127964285Y-108630952D01*
X128011904Y-108678571D01*
X128059523Y-108773809D01*
X128059523Y-109011904D01*
X128011904Y-109107142D01*
X127964285Y-109154761D01*
X127869047Y-109202380D01*
X127583333Y-109202380D01*
X127488095Y-109154761D01*
X127440476Y-109107142D01*
X128535714Y-109202380D02*
X128726190Y-109202380D01*
X128821428Y-109154761D01*
X128869047Y-109107142D01*
X128964285Y-108964285D01*
X129011904Y-108773809D01*
X129011904Y-108392857D01*
X128964285Y-108297619D01*
X128916666Y-108250000D01*
X128821428Y-108202380D01*
X128630952Y-108202380D01*
X128535714Y-108250000D01*
X128488095Y-108297619D01*
X128440476Y-108392857D01*
X128440476Y-108630952D01*
X128488095Y-108726190D01*
X128535714Y-108773809D01*
X128630952Y-108821428D01*
X128821428Y-108821428D01*
X128916666Y-108773809D01*
X128964285Y-108726190D01*
X129011904Y-108630952D01*
X102107142Y-120952380D02*
X101773809Y-120476190D01*
X101535714Y-120952380D02*
X101535714Y-119952380D01*
X101916666Y-119952380D01*
X102011904Y-120000000D01*
X102059523Y-120047619D01*
X102107142Y-120142857D01*
X102107142Y-120285714D01*
X102059523Y-120380952D01*
X102011904Y-120428571D01*
X101916666Y-120476190D01*
X101535714Y-120476190D01*
X102964285Y-120285714D02*
X102964285Y-120952380D01*
X102726190Y-119904761D02*
X102488095Y-120619047D01*
X103107142Y-120619047D01*
X103678571Y-119952380D02*
X103773809Y-119952380D01*
X103869047Y-120000000D01*
X103916666Y-120047619D01*
X103964285Y-120142857D01*
X104011904Y-120333333D01*
X104011904Y-120571428D01*
X103964285Y-120761904D01*
X103916666Y-120857142D01*
X103869047Y-120904761D01*
X103773809Y-120952380D01*
X103678571Y-120952380D01*
X103583333Y-120904761D01*
X103535714Y-120857142D01*
X103488095Y-120761904D01*
X103440476Y-120571428D01*
X103440476Y-120333333D01*
X103488095Y-120142857D01*
X103535714Y-120047619D01*
X103583333Y-120000000D01*
X103678571Y-119952380D01*
X104857142Y-120952380D02*
X104523809Y-120476190D01*
X104285714Y-120952380D02*
X104285714Y-119952380D01*
X104666666Y-119952380D01*
X104761904Y-120000000D01*
X104809523Y-120047619D01*
X104857142Y-120142857D01*
X104857142Y-120285714D01*
X104809523Y-120380952D01*
X104761904Y-120428571D01*
X104666666Y-120476190D01*
X104285714Y-120476190D01*
X105714285Y-120285714D02*
X105714285Y-120952380D01*
X105476190Y-119904761D02*
X105238095Y-120619047D01*
X105857142Y-120619047D01*
X106761904Y-120952380D02*
X106190476Y-120952380D01*
X106476190Y-120952380D02*
X106476190Y-119952380D01*
X106380952Y-120095238D01*
X106285714Y-120190476D01*
X106190476Y-120238095D01*
X107607142Y-120952380D02*
X107273809Y-120476190D01*
X107035714Y-120952380D02*
X107035714Y-119952380D01*
X107416666Y-119952380D01*
X107511904Y-120000000D01*
X107559523Y-120047619D01*
X107607142Y-120142857D01*
X107607142Y-120285714D01*
X107559523Y-120380952D01*
X107511904Y-120428571D01*
X107416666Y-120476190D01*
X107035714Y-120476190D01*
X108464285Y-120285714D02*
X108464285Y-120952380D01*
X108226190Y-119904761D02*
X107988095Y-120619047D01*
X108607142Y-120619047D01*
X108940476Y-120047619D02*
X108988095Y-120000000D01*
X109083333Y-119952380D01*
X109321428Y-119952380D01*
X109416666Y-120000000D01*
X109464285Y-120047619D01*
X109511904Y-120142857D01*
X109511904Y-120238095D01*
X109464285Y-120380952D01*
X108892857Y-120952380D01*
X109511904Y-120952380D01*
X156107142Y-120952380D02*
X155773809Y-120476190D01*
X155535714Y-120952380D02*
X155535714Y-119952380D01*
X155916666Y-119952380D01*
X156011904Y-120000000D01*
X156059523Y-120047619D01*
X156107142Y-120142857D01*
X156107142Y-120285714D01*
X156059523Y-120380952D01*
X156011904Y-120428571D01*
X155916666Y-120476190D01*
X155535714Y-120476190D01*
X156964285Y-120285714D02*
X156964285Y-120952380D01*
X156726190Y-119904761D02*
X156488095Y-120619047D01*
X157107142Y-120619047D01*
X157392857Y-119952380D02*
X158011904Y-119952380D01*
X157678571Y-120333333D01*
X157821428Y-120333333D01*
X157916666Y-120380952D01*
X157964285Y-120428571D01*
X158011904Y-120523809D01*
X158011904Y-120761904D01*
X157964285Y-120857142D01*
X157916666Y-120904761D01*
X157821428Y-120952380D01*
X157535714Y-120952380D01*
X157440476Y-120904761D01*
X157392857Y-120857142D01*
X159107142Y-120952380D02*
X158773809Y-120476190D01*
X158535714Y-120952380D02*
X158535714Y-119952380D01*
X158916666Y-119952380D01*
X159011904Y-120000000D01*
X159059523Y-120047619D01*
X159107142Y-120142857D01*
X159107142Y-120285714D01*
X159059523Y-120380952D01*
X159011904Y-120428571D01*
X158916666Y-120476190D01*
X158535714Y-120476190D01*
X159964285Y-120285714D02*
X159964285Y-120952380D01*
X159726190Y-119904761D02*
X159488095Y-120619047D01*
X160107142Y-120619047D01*
X160916666Y-120285714D02*
X160916666Y-120952380D01*
X160678571Y-119904761D02*
X160440476Y-120619047D01*
X161059523Y-120619047D01*
X161857142Y-120952380D02*
X161523809Y-120476190D01*
X161285714Y-120952380D02*
X161285714Y-119952380D01*
X161666666Y-119952380D01*
X161761904Y-120000000D01*
X161809523Y-120047619D01*
X161857142Y-120142857D01*
X161857142Y-120285714D01*
X161809523Y-120380952D01*
X161761904Y-120428571D01*
X161666666Y-120476190D01*
X161285714Y-120476190D01*
X162714285Y-120285714D02*
X162714285Y-120952380D01*
X162476190Y-119904761D02*
X162238095Y-120619047D01*
X162857142Y-120619047D01*
X163714285Y-119952380D02*
X163238095Y-119952380D01*
X163190476Y-120428571D01*
X163238095Y-120380952D01*
X163333333Y-120333333D01*
X163571428Y-120333333D01*
X163666666Y-120380952D01*
X163714285Y-120428571D01*
X163761904Y-120523809D01*
X163761904Y-120761904D01*
X163714285Y-120857142D01*
X163666666Y-120904761D01*
X163571428Y-120952380D01*
X163333333Y-120952380D01*
X163238095Y-120904761D01*
X163190476Y-120857142D01*
X126857142Y-119952380D02*
X126523809Y-119476190D01*
X126285714Y-119952380D02*
X126285714Y-118952380D01*
X126666666Y-118952380D01*
X126761904Y-119000000D01*
X126809523Y-119047619D01*
X126857142Y-119142857D01*
X126857142Y-119285714D01*
X126809523Y-119380952D01*
X126761904Y-119428571D01*
X126666666Y-119476190D01*
X126285714Y-119476190D01*
X127714285Y-119285714D02*
X127714285Y-119952380D01*
X127476190Y-118904761D02*
X127238095Y-119619047D01*
X127857142Y-119619047D01*
X128285714Y-119952380D02*
X128476190Y-119952380D01*
X128571428Y-119904761D01*
X128619047Y-119857142D01*
X128714285Y-119714285D01*
X128761904Y-119523809D01*
X128761904Y-119142857D01*
X128714285Y-119047619D01*
X128666666Y-119000000D01*
X128571428Y-118952380D01*
X128380952Y-118952380D01*
X128285714Y-119000000D01*
X128238095Y-119047619D01*
X128190476Y-119142857D01*
X128190476Y-119380952D01*
X128238095Y-119476190D01*
X128285714Y-119523809D01*
X128380952Y-119571428D01*
X128571428Y-119571428D01*
X128666666Y-119523809D01*
X128714285Y-119476190D01*
X128761904Y-119380952D01*
X131857142Y-120952380D02*
X131523809Y-120476190D01*
X131285714Y-120952380D02*
X131285714Y-119952380D01*
X131666666Y-119952380D01*
X131761904Y-120000000D01*
X131809523Y-120047619D01*
X131857142Y-120142857D01*
X131857142Y-120285714D01*
X131809523Y-120380952D01*
X131761904Y-120428571D01*
X131666666Y-120476190D01*
X131285714Y-120476190D01*
X132761904Y-119952380D02*
X132285714Y-119952380D01*
X132238095Y-120428571D01*
X132285714Y-120380952D01*
X132380952Y-120333333D01*
X132619047Y-120333333D01*
X132714285Y-120380952D01*
X132761904Y-120428571D01*
X132809523Y-120523809D01*
X132809523Y-120761904D01*
X132761904Y-120857142D01*
X132714285Y-120904761D01*
X132619047Y-120952380D01*
X132380952Y-120952380D01*
X132285714Y-120904761D01*
X132238095Y-120857142D01*
X133428571Y-119952380D02*
X133523809Y-119952380D01*
X133619047Y-120000000D01*
X133666666Y-120047619D01*
X133714285Y-120142857D01*
X133761904Y-120333333D01*
X133761904Y-120571428D01*
X133714285Y-120761904D01*
X133666666Y-120857142D01*
X133619047Y-120904761D01*
X133523809Y-120952380D01*
X133428571Y-120952380D01*
X133333333Y-120904761D01*
X133285714Y-120857142D01*
X133238095Y-120761904D01*
X133190476Y-120571428D01*
X133190476Y-120333333D01*
X133238095Y-120142857D01*
X133285714Y-120047619D01*
X133333333Y-120000000D01*
X133428571Y-119952380D01*
X135202380Y-120142857D02*
X134726190Y-120476190D01*
X135202380Y-120714285D02*
X134202380Y-120714285D01*
X134202380Y-120333333D01*
X134250000Y-120238095D01*
X134297619Y-120190476D01*
X134392857Y-120142857D01*
X134535714Y-120142857D01*
X134630952Y-120190476D01*
X134678571Y-120238095D01*
X134726190Y-120333333D01*
X134726190Y-120714285D01*
X134202380Y-119238095D02*
X134202380Y-119714285D01*
X134678571Y-119761904D01*
X134630952Y-119714285D01*
X134583333Y-119619047D01*
X134583333Y-119380952D01*
X134630952Y-119285714D01*
X134678571Y-119238095D01*
X134773809Y-119190476D01*
X135011904Y-119190476D01*
X135107142Y-119238095D01*
X135154761Y-119285714D01*
X135202380Y-119380952D01*
X135202380Y-119619047D01*
X135154761Y-119714285D01*
X135107142Y-119761904D01*
X135202380Y-118238095D02*
X135202380Y-118809523D01*
X135202380Y-118523809D02*
X134202380Y-118523809D01*
X134345238Y-118619047D01*
X134440476Y-118714285D01*
X134488095Y-118809523D01*
X255382380Y-138642857D02*
X254906190Y-138976190D01*
X255382380Y-139214285D02*
X254382380Y-139214285D01*
X254382380Y-138833333D01*
X254430000Y-138738095D01*
X254477619Y-138690476D01*
X254572857Y-138642857D01*
X254715714Y-138642857D01*
X254810952Y-138690476D01*
X254858571Y-138738095D01*
X254906190Y-138833333D01*
X254906190Y-139214285D01*
X254382380Y-137738095D02*
X254382380Y-138214285D01*
X254858571Y-138261904D01*
X254810952Y-138214285D01*
X254763333Y-138119047D01*
X254763333Y-137880952D01*
X254810952Y-137785714D01*
X254858571Y-137738095D01*
X254953809Y-137690476D01*
X255191904Y-137690476D01*
X255287142Y-137738095D01*
X255334761Y-137785714D01*
X255382380Y-137880952D01*
X255382380Y-138119047D01*
X255334761Y-138214285D01*
X255287142Y-138261904D01*
X254477619Y-137309523D02*
X254430000Y-137261904D01*
X254382380Y-137166666D01*
X254382380Y-136928571D01*
X254430000Y-136833333D01*
X254477619Y-136785714D01*
X254572857Y-136738095D01*
X254668095Y-136738095D01*
X254810952Y-136785714D01*
X255382380Y-137357142D01*
X255382380Y-136738095D01*
X225857142Y-114452380D02*
X225523809Y-113976190D01*
X225285714Y-114452380D02*
X225285714Y-113452380D01*
X225666666Y-113452380D01*
X225761904Y-113500000D01*
X225809523Y-113547619D01*
X225857142Y-113642857D01*
X225857142Y-113785714D01*
X225809523Y-113880952D01*
X225761904Y-113928571D01*
X225666666Y-113976190D01*
X225285714Y-113976190D01*
X226761904Y-113452380D02*
X226285714Y-113452380D01*
X226238095Y-113928571D01*
X226285714Y-113880952D01*
X226380952Y-113833333D01*
X226619047Y-113833333D01*
X226714285Y-113880952D01*
X226761904Y-113928571D01*
X226809523Y-114023809D01*
X226809523Y-114261904D01*
X226761904Y-114357142D01*
X226714285Y-114404761D01*
X226619047Y-114452380D01*
X226380952Y-114452380D01*
X226285714Y-114404761D01*
X226238095Y-114357142D01*
X227142857Y-113452380D02*
X227761904Y-113452380D01*
X227428571Y-113833333D01*
X227571428Y-113833333D01*
X227666666Y-113880952D01*
X227714285Y-113928571D01*
X227761904Y-114023809D01*
X227761904Y-114261904D01*
X227714285Y-114357142D01*
X227666666Y-114404761D01*
X227571428Y-114452380D01*
X227285714Y-114452380D01*
X227190476Y-114404761D01*
X227142857Y-114357142D01*
X226107142Y-116202380D02*
X225773809Y-115726190D01*
X225535714Y-116202380D02*
X225535714Y-115202380D01*
X225916666Y-115202380D01*
X226011904Y-115250000D01*
X226059523Y-115297619D01*
X226107142Y-115392857D01*
X226107142Y-115535714D01*
X226059523Y-115630952D01*
X226011904Y-115678571D01*
X225916666Y-115726190D01*
X225535714Y-115726190D01*
X227011904Y-115202380D02*
X226535714Y-115202380D01*
X226488095Y-115678571D01*
X226535714Y-115630952D01*
X226630952Y-115583333D01*
X226869047Y-115583333D01*
X226964285Y-115630952D01*
X227011904Y-115678571D01*
X227059523Y-115773809D01*
X227059523Y-116011904D01*
X227011904Y-116107142D01*
X226964285Y-116154761D01*
X226869047Y-116202380D01*
X226630952Y-116202380D01*
X226535714Y-116154761D01*
X226488095Y-116107142D01*
X227916666Y-115535714D02*
X227916666Y-116202380D01*
X227678571Y-115154761D02*
X227440476Y-115869047D01*
X228059523Y-115869047D01*
X228857142Y-119382380D02*
X228523809Y-118906190D01*
X228285714Y-119382380D02*
X228285714Y-118382380D01*
X228666666Y-118382380D01*
X228761904Y-118430000D01*
X228809523Y-118477619D01*
X228857142Y-118572857D01*
X228857142Y-118715714D01*
X228809523Y-118810952D01*
X228761904Y-118858571D01*
X228666666Y-118906190D01*
X228285714Y-118906190D01*
X229761904Y-118382380D02*
X229285714Y-118382380D01*
X229238095Y-118858571D01*
X229285714Y-118810952D01*
X229380952Y-118763333D01*
X229619047Y-118763333D01*
X229714285Y-118810952D01*
X229761904Y-118858571D01*
X229809523Y-118953809D01*
X229809523Y-119191904D01*
X229761904Y-119287142D01*
X229714285Y-119334761D01*
X229619047Y-119382380D01*
X229380952Y-119382380D01*
X229285714Y-119334761D01*
X229238095Y-119287142D01*
X230714285Y-118382380D02*
X230238095Y-118382380D01*
X230190476Y-118858571D01*
X230238095Y-118810952D01*
X230333333Y-118763333D01*
X230571428Y-118763333D01*
X230666666Y-118810952D01*
X230714285Y-118858571D01*
X230761904Y-118953809D01*
X230761904Y-119191904D01*
X230714285Y-119287142D01*
X230666666Y-119334761D01*
X230571428Y-119382380D01*
X230333333Y-119382380D01*
X230238095Y-119334761D01*
X230190476Y-119287142D01*
X204357142Y-119452380D02*
X204023809Y-118976190D01*
X203785714Y-119452380D02*
X203785714Y-118452380D01*
X204166666Y-118452380D01*
X204261904Y-118500000D01*
X204309523Y-118547619D01*
X204357142Y-118642857D01*
X204357142Y-118785714D01*
X204309523Y-118880952D01*
X204261904Y-118928571D01*
X204166666Y-118976190D01*
X203785714Y-118976190D01*
X205261904Y-118452380D02*
X204785714Y-118452380D01*
X204738095Y-118928571D01*
X204785714Y-118880952D01*
X204880952Y-118833333D01*
X205119047Y-118833333D01*
X205214285Y-118880952D01*
X205261904Y-118928571D01*
X205309523Y-119023809D01*
X205309523Y-119261904D01*
X205261904Y-119357142D01*
X205214285Y-119404761D01*
X205119047Y-119452380D01*
X204880952Y-119452380D01*
X204785714Y-119404761D01*
X204738095Y-119357142D01*
X206166666Y-118452380D02*
X205976190Y-118452380D01*
X205880952Y-118500000D01*
X205833333Y-118547619D01*
X205738095Y-118690476D01*
X205690476Y-118880952D01*
X205690476Y-119261904D01*
X205738095Y-119357142D01*
X205785714Y-119404761D01*
X205880952Y-119452380D01*
X206071428Y-119452380D01*
X206166666Y-119404761D01*
X206214285Y-119357142D01*
X206261904Y-119261904D01*
X206261904Y-119023809D01*
X206214285Y-118928571D01*
X206166666Y-118880952D01*
X206071428Y-118833333D01*
X205880952Y-118833333D01*
X205785714Y-118880952D01*
X205738095Y-118928571D01*
X205690476Y-119023809D01*
X229666666Y-135404761D02*
X229809523Y-135452380D01*
X230047619Y-135452380D01*
X230142857Y-135404761D01*
X230190476Y-135357142D01*
X230238095Y-135261904D01*
X230238095Y-135166666D01*
X230190476Y-135071428D01*
X230142857Y-135023809D01*
X230047619Y-134976190D01*
X229857142Y-134928571D01*
X229761904Y-134880952D01*
X229714285Y-134833333D01*
X229666666Y-134738095D01*
X229666666Y-134642857D01*
X229714285Y-134547619D01*
X229761904Y-134500000D01*
X229857142Y-134452380D01*
X230095238Y-134452380D01*
X230238095Y-134500000D01*
X230571428Y-134452380D02*
X230809523Y-135452380D01*
X231000000Y-134738095D01*
X231190476Y-135452380D01*
X231428571Y-134452380D01*
X232333333Y-135452380D02*
X231761904Y-135452380D01*
X232047619Y-135452380D02*
X232047619Y-134452380D01*
X231952380Y-134595238D01*
X231857142Y-134690476D01*
X231761904Y-134738095D01*
X251666666Y-131404761D02*
X251809523Y-131452380D01*
X252047619Y-131452380D01*
X252142857Y-131404761D01*
X252190476Y-131357142D01*
X252238095Y-131261904D01*
X252238095Y-131166666D01*
X252190476Y-131071428D01*
X252142857Y-131023809D01*
X252047619Y-130976190D01*
X251857142Y-130928571D01*
X251761904Y-130880952D01*
X251714285Y-130833333D01*
X251666666Y-130738095D01*
X251666666Y-130642857D01*
X251714285Y-130547619D01*
X251761904Y-130500000D01*
X251857142Y-130452380D01*
X252095238Y-130452380D01*
X252238095Y-130500000D01*
X252571428Y-130452380D02*
X252809523Y-131452380D01*
X253000000Y-130738095D01*
X253190476Y-131452380D01*
X253428571Y-130452380D01*
X253761904Y-130547619D02*
X253809523Y-130500000D01*
X253904761Y-130452380D01*
X254142857Y-130452380D01*
X254238095Y-130500000D01*
X254285714Y-130547619D01*
X254333333Y-130642857D01*
X254333333Y-130738095D01*
X254285714Y-130880952D01*
X253714285Y-131452380D01*
X254333333Y-131452380D01*
X120988095Y-107702380D02*
X120988095Y-108511904D01*
X121035714Y-108607142D01*
X121083333Y-108654761D01*
X121178571Y-108702380D01*
X121369047Y-108702380D01*
X121464285Y-108654761D01*
X121511904Y-108607142D01*
X121559523Y-108511904D01*
X121559523Y-107702380D01*
X122559523Y-108702380D02*
X121988095Y-108702380D01*
X122273809Y-108702380D02*
X122273809Y-107702380D01*
X122178571Y-107845238D01*
X122083333Y-107940476D01*
X121988095Y-107988095D01*
X175988095Y-107952380D02*
X175988095Y-108761904D01*
X176035714Y-108857142D01*
X176083333Y-108904761D01*
X176178571Y-108952380D01*
X176369047Y-108952380D01*
X176464285Y-108904761D01*
X176511904Y-108857142D01*
X176559523Y-108761904D01*
X176559523Y-107952380D01*
X176988095Y-108047619D02*
X177035714Y-108000000D01*
X177130952Y-107952380D01*
X177369047Y-107952380D01*
X177464285Y-108000000D01*
X177511904Y-108047619D01*
X177559523Y-108142857D01*
X177559523Y-108238095D01*
X177511904Y-108380952D01*
X176940476Y-108952380D01*
X177559523Y-108952380D01*
X148738095Y-107702380D02*
X148738095Y-108511904D01*
X148785714Y-108607142D01*
X148833333Y-108654761D01*
X148928571Y-108702380D01*
X149119047Y-108702380D01*
X149214285Y-108654761D01*
X149261904Y-108607142D01*
X149309523Y-108511904D01*
X149309523Y-107702380D01*
X150214285Y-108035714D02*
X150214285Y-108702380D01*
X149976190Y-107654761D02*
X149738095Y-108369047D01*
X150357142Y-108369047D01*
X112488095Y-107702380D02*
X112488095Y-108511904D01*
X112535714Y-108607142D01*
X112583333Y-108654761D01*
X112678571Y-108702380D01*
X112869047Y-108702380D01*
X112964285Y-108654761D01*
X113011904Y-108607142D01*
X113059523Y-108511904D01*
X113059523Y-107702380D01*
X114011904Y-107702380D02*
X113535714Y-107702380D01*
X113488095Y-108178571D01*
X113535714Y-108130952D01*
X113630952Y-108083333D01*
X113869047Y-108083333D01*
X113964285Y-108130952D01*
X114011904Y-108178571D01*
X114059523Y-108273809D01*
X114059523Y-108511904D01*
X114011904Y-108607142D01*
X113964285Y-108654761D01*
X113869047Y-108702380D01*
X113630952Y-108702380D01*
X113535714Y-108654761D01*
X113488095Y-108607142D01*
X166988095Y-107952380D02*
X166988095Y-108761904D01*
X167035714Y-108857142D01*
X167083333Y-108904761D01*
X167178571Y-108952380D01*
X167369047Y-108952380D01*
X167464285Y-108904761D01*
X167511904Y-108857142D01*
X167559523Y-108761904D01*
X167559523Y-107952380D01*
X168464285Y-107952380D02*
X168273809Y-107952380D01*
X168178571Y-108000000D01*
X168130952Y-108047619D01*
X168035714Y-108190476D01*
X167988095Y-108380952D01*
X167988095Y-108761904D01*
X168035714Y-108857142D01*
X168083333Y-108904761D01*
X168178571Y-108952380D01*
X168369047Y-108952380D01*
X168464285Y-108904761D01*
X168511904Y-108857142D01*
X168559523Y-108761904D01*
X168559523Y-108523809D01*
X168511904Y-108428571D01*
X168464285Y-108380952D01*
X168369047Y-108333333D01*
X168178571Y-108333333D01*
X168083333Y-108380952D01*
X168035714Y-108428571D01*
X167988095Y-108523809D01*
X139988095Y-107952380D02*
X139988095Y-108761904D01*
X140035714Y-108857142D01*
X140083333Y-108904761D01*
X140178571Y-108952380D01*
X140369047Y-108952380D01*
X140464285Y-108904761D01*
X140511904Y-108857142D01*
X140559523Y-108761904D01*
X140559523Y-107952380D01*
X141178571Y-108380952D02*
X141083333Y-108333333D01*
X141035714Y-108285714D01*
X140988095Y-108190476D01*
X140988095Y-108142857D01*
X141035714Y-108047619D01*
X141083333Y-108000000D01*
X141178571Y-107952380D01*
X141369047Y-107952380D01*
X141464285Y-108000000D01*
X141511904Y-108047619D01*
X141559523Y-108142857D01*
X141559523Y-108190476D01*
X141511904Y-108285714D01*
X141464285Y-108333333D01*
X141369047Y-108380952D01*
X141178571Y-108380952D01*
X141083333Y-108428571D01*
X141035714Y-108476190D01*
X140988095Y-108571428D01*
X140988095Y-108761904D01*
X141035714Y-108857142D01*
X141083333Y-108904761D01*
X141178571Y-108952380D01*
X141369047Y-108952380D01*
X141464285Y-108904761D01*
X141511904Y-108857142D01*
X141559523Y-108761904D01*
X141559523Y-108571428D01*
X141511904Y-108476190D01*
X141464285Y-108428571D01*
X141369047Y-108380952D01*
X105238095Y-107702380D02*
X105238095Y-108511904D01*
X105285714Y-108607142D01*
X105333333Y-108654761D01*
X105428571Y-108702380D01*
X105619047Y-108702380D01*
X105714285Y-108654761D01*
X105761904Y-108607142D01*
X105809523Y-108511904D01*
X105809523Y-107702380D01*
X106333333Y-108702380D02*
X106523809Y-108702380D01*
X106619047Y-108654761D01*
X106666666Y-108607142D01*
X106761904Y-108464285D01*
X106809523Y-108273809D01*
X106809523Y-107892857D01*
X106761904Y-107797619D01*
X106714285Y-107750000D01*
X106619047Y-107702380D01*
X106428571Y-107702380D01*
X106333333Y-107750000D01*
X106285714Y-107797619D01*
X106238095Y-107892857D01*
X106238095Y-108130952D01*
X106285714Y-108226190D01*
X106333333Y-108273809D01*
X106428571Y-108321428D01*
X106619047Y-108321428D01*
X106714285Y-108273809D01*
X106761904Y-108226190D01*
X106809523Y-108130952D01*
X158761904Y-107952380D02*
X158761904Y-108761904D01*
X158809523Y-108857142D01*
X158857142Y-108904761D01*
X158952380Y-108952380D01*
X159142857Y-108952380D01*
X159238095Y-108904761D01*
X159285714Y-108857142D01*
X159333333Y-108761904D01*
X159333333Y-107952380D01*
X160333333Y-108952380D02*
X159761904Y-108952380D01*
X160047619Y-108952380D02*
X160047619Y-107952380D01*
X159952380Y-108095238D01*
X159857142Y-108190476D01*
X159761904Y-108238095D01*
X160952380Y-107952380D02*
X161047619Y-107952380D01*
X161142857Y-108000000D01*
X161190476Y-108047619D01*
X161238095Y-108142857D01*
X161285714Y-108333333D01*
X161285714Y-108571428D01*
X161238095Y-108761904D01*
X161190476Y-108857142D01*
X161142857Y-108904761D01*
X161047619Y-108952380D01*
X160952380Y-108952380D01*
X160857142Y-108904761D01*
X160809523Y-108857142D01*
X160761904Y-108761904D01*
X160714285Y-108571428D01*
X160714285Y-108333333D01*
X160761904Y-108142857D01*
X160809523Y-108047619D01*
X160857142Y-108000000D01*
X160952380Y-107952380D01*
X131761904Y-107952380D02*
X131761904Y-108761904D01*
X131809523Y-108857142D01*
X131857142Y-108904761D01*
X131952380Y-108952380D01*
X132142857Y-108952380D01*
X132238095Y-108904761D01*
X132285714Y-108857142D01*
X132333333Y-108761904D01*
X132333333Y-107952380D01*
X133333333Y-108952380D02*
X132761904Y-108952380D01*
X133047619Y-108952380D02*
X133047619Y-107952380D01*
X132952380Y-108095238D01*
X132857142Y-108190476D01*
X132761904Y-108238095D01*
X133714285Y-108047619D02*
X133761904Y-108000000D01*
X133857142Y-107952380D01*
X134095238Y-107952380D01*
X134190476Y-108000000D01*
X134238095Y-108047619D01*
X134285714Y-108142857D01*
X134285714Y-108238095D01*
X134238095Y-108380952D01*
X133666666Y-108952380D01*
X134285714Y-108952380D01*
X242511904Y-130452380D02*
X242511904Y-131261904D01*
X242559523Y-131357142D01*
X242607142Y-131404761D01*
X242702380Y-131452380D01*
X242892857Y-131452380D01*
X242988095Y-131404761D01*
X243035714Y-131357142D01*
X243083333Y-131261904D01*
X243083333Y-130452380D01*
X244083333Y-131452380D02*
X243511904Y-131452380D01*
X243797619Y-131452380D02*
X243797619Y-130452380D01*
X243702380Y-130595238D01*
X243607142Y-130690476D01*
X243511904Y-130738095D01*
X244416666Y-130452380D02*
X245035714Y-130452380D01*
X244702380Y-130833333D01*
X244845238Y-130833333D01*
X244940476Y-130880952D01*
X244988095Y-130928571D01*
X245035714Y-131023809D01*
X245035714Y-131261904D01*
X244988095Y-131357142D01*
X244940476Y-131404761D01*
X244845238Y-131452380D01*
X244559523Y-131452380D01*
X244464285Y-131404761D01*
X244416666Y-131357142D01*
X214761904Y-116352380D02*
X214761904Y-117161904D01*
X214809523Y-117257142D01*
X214857142Y-117304761D01*
X214952380Y-117352380D01*
X215142857Y-117352380D01*
X215238095Y-117304761D01*
X215285714Y-117257142D01*
X215333333Y-117161904D01*
X215333333Y-116352380D01*
X216333333Y-117352380D02*
X215761904Y-117352380D01*
X216047619Y-117352380D02*
X216047619Y-116352380D01*
X215952380Y-116495238D01*
X215857142Y-116590476D01*
X215761904Y-116638095D01*
X217190476Y-116685714D02*
X217190476Y-117352380D01*
X216952380Y-116304761D02*
X216714285Y-117019047D01*
X217333333Y-117019047D01*
X206523809Y-111476190D02*
X206523809Y-111952380D01*
X206190476Y-110952380D02*
X206523809Y-111476190D01*
X206857142Y-110952380D01*
X207714285Y-111952380D02*
X207142857Y-111952380D01*
X207428571Y-111952380D02*
X207428571Y-110952380D01*
X207333333Y-111095238D01*
X207238095Y-111190476D01*
X207142857Y-111238095D01*
M02*
