G04 #@! TF.GenerationSoftware,KiCad,Pcbnew,(5.1.4)-1*
G04 #@! TF.CreationDate,2020-09-16T17:38:36+01:00*
G04 #@! TF.ProjectId,reflex-io-board,7265666c-6578-42d6-996f-2d626f617264,rev?*
G04 #@! TF.SameCoordinates,Original*
G04 #@! TF.FileFunction,Copper,L4,Bot*
G04 #@! TF.FilePolarity,Positive*
%FSLAX46Y46*%
G04 Gerber Fmt 4.6, Leading zero omitted, Abs format (unit mm)*
G04 Created by KiCad (PCBNEW (5.1.4)-1) date 2020-09-16 17:38:36*
%MOMM*%
%LPD*%
G04 APERTURE LIST*
%ADD10R,1.500000X1.500000*%
%ADD11C,1.500000*%
%ADD12R,1.700000X1.700000*%
%ADD13C,1.700000*%
%ADD14C,3.500000*%
%ADD15O,1.700000X1.700000*%
%ADD16O,1.800000X4.000000*%
%ADD17O,4.000000X1.800000*%
%ADD18R,4.400000X1.800000*%
%ADD19C,2.000000*%
%ADD20C,0.800000*%
%ADD21C,1.000000*%
%ADD22C,0.250000*%
G04 APERTURE END LIST*
D10*
X134500000Y-125000000D03*
D11*
X135770000Y-122460000D03*
X137040000Y-125000000D03*
X138310000Y-122460000D03*
X139580000Y-125000000D03*
X140850000Y-122460000D03*
X142120000Y-125000000D03*
X143390000Y-122460000D03*
X114890000Y-122460000D03*
X113620000Y-125000000D03*
X112350000Y-122460000D03*
X111080000Y-125000000D03*
X109810000Y-122460000D03*
X108540000Y-125000000D03*
X107270000Y-122460000D03*
D10*
X106000000Y-125000000D03*
X191500000Y-125000000D03*
D11*
X192770000Y-122460000D03*
X194040000Y-125000000D03*
X195310000Y-122460000D03*
X196580000Y-125000000D03*
X197850000Y-122460000D03*
X199120000Y-125000000D03*
X200390000Y-122460000D03*
D12*
X242500000Y-122000000D03*
D13*
X245000000Y-122000000D03*
X245000000Y-120000000D03*
X242500000Y-120000000D03*
D14*
X237730000Y-117290000D03*
X249770000Y-117290000D03*
D11*
X171890000Y-122460000D03*
X170620000Y-125000000D03*
X169350000Y-122460000D03*
X168080000Y-125000000D03*
X166810000Y-122460000D03*
X165540000Y-125000000D03*
X164270000Y-122460000D03*
D10*
X163000000Y-125000000D03*
D12*
X208250000Y-136250000D03*
D15*
X208250000Y-133710000D03*
X210790000Y-136250000D03*
X210790000Y-133710000D03*
X213330000Y-136250000D03*
X213330000Y-133710000D03*
X215870000Y-136250000D03*
X215870000Y-133710000D03*
X218410000Y-136250000D03*
X218410000Y-133710000D03*
D16*
X54550000Y-128500000D03*
D17*
X49750000Y-131300000D03*
D18*
X49750000Y-125500000D03*
X64000000Y-125500000D03*
D17*
X64000000Y-131300000D03*
D16*
X68800000Y-128500000D03*
X82800000Y-128500000D03*
D17*
X78000000Y-131300000D03*
D18*
X78000000Y-125500000D03*
D16*
X96800000Y-128500000D03*
D17*
X92000000Y-131300000D03*
D18*
X92000000Y-125500000D03*
X71000000Y-120500000D03*
D17*
X71000000Y-114700000D03*
D16*
X66200000Y-117500000D03*
D12*
X224750000Y-110500000D03*
D15*
X224750000Y-107960000D03*
X227290000Y-110500000D03*
X227290000Y-107960000D03*
X229830000Y-110500000D03*
X229830000Y-107960000D03*
X232370000Y-110500000D03*
X232370000Y-107960000D03*
D19*
X234500000Y-138000000D03*
X234500000Y-133500000D03*
X241000000Y-138000000D03*
X241000000Y-133500000D03*
X251000000Y-133500000D03*
X251000000Y-138000000D03*
X244500000Y-133500000D03*
X244500000Y-138000000D03*
D20*
X109000000Y-118250000D03*
X116750000Y-118250000D03*
X118250000Y-116250000D03*
X234750000Y-115750000D03*
X234750000Y-114000000D03*
X222000000Y-116500000D03*
X211250000Y-128750000D03*
X222000000Y-127500000D03*
X208250000Y-116750000D03*
X234750000Y-117500000D03*
X204500000Y-112000000D03*
X212750000Y-116000000D03*
X128637653Y-116362347D03*
X136500000Y-116000000D03*
X144000000Y-116250000D03*
X181000000Y-116250000D03*
X196371906Y-116378094D03*
X188500000Y-116250000D03*
X172865656Y-116334344D03*
X165200000Y-116400000D03*
X157212653Y-116387347D03*
X207600000Y-123400000D03*
X230750000Y-137350010D03*
X118000000Y-118500000D03*
X110250000Y-118000000D03*
X102750000Y-118250000D03*
X208250000Y-118250000D03*
X222000000Y-118000000D03*
X209750000Y-128750000D03*
X222000000Y-129000000D03*
X127750000Y-118250000D03*
X135500000Y-117750000D03*
X142750000Y-118250000D03*
X180250000Y-118000000D03*
X195500000Y-118000000D03*
X188000000Y-118000000D03*
X171800000Y-118000000D03*
X164400000Y-118000000D03*
X156600000Y-118000000D03*
X213453408Y-123257749D03*
X248500000Y-131500000D03*
X247750000Y-130750000D03*
X247000000Y-130000000D03*
X206750000Y-132250000D03*
X210189507Y-122816940D03*
X222250000Y-135250000D03*
X222750000Y-133500000D03*
X227500000Y-135150000D03*
X226749980Y-133500000D03*
X217250000Y-125500000D03*
X218327792Y-125148070D03*
X222750000Y-117250000D03*
X214510338Y-122130259D03*
X223750000Y-117250000D03*
X215371685Y-122638299D03*
X224711612Y-116975583D03*
X215620533Y-123606854D03*
X225500000Y-116000000D03*
X216776107Y-123549988D03*
X117400000Y-107200000D03*
X227600008Y-124400000D03*
X176500000Y-112000000D03*
X212250000Y-126750000D03*
X199902401Y-111868622D03*
X215806748Y-109799878D03*
X146000000Y-112000000D03*
X206025000Y-129262653D03*
X213873824Y-130858664D03*
X208091496Y-130712613D03*
X109000000Y-112750000D03*
X140750000Y-128500000D03*
X144000000Y-128500000D03*
X168750000Y-129000000D03*
X172500000Y-128750000D03*
X197750000Y-133500000D03*
X226250000Y-137350010D03*
X224750000Y-134975000D03*
X227000000Y-126978103D03*
X166500000Y-111875000D03*
X206025000Y-125500000D03*
X189600000Y-112200000D03*
X214806901Y-109818032D03*
X205750000Y-130750000D03*
X137750000Y-108500000D03*
X212925182Y-131175021D03*
X207843646Y-131681424D03*
X223750000Y-135000000D03*
X197750000Y-132250000D03*
X171720000Y-128000000D03*
X160750000Y-127500000D03*
X143445299Y-127667948D03*
X223750000Y-129500000D03*
X159750000Y-112000000D03*
X205500000Y-127500000D03*
X181754490Y-112075010D03*
X181599998Y-107600000D03*
X130500000Y-120750000D03*
X197750000Y-129500000D03*
X214012653Y-125262653D03*
X221500000Y-126250000D03*
X214618094Y-131600141D03*
X216250000Y-125499990D03*
X213238053Y-119952776D03*
X223878548Y-119189575D03*
X213251116Y-120952703D03*
X223467944Y-120101402D03*
X213216986Y-121952133D03*
X223851494Y-121024935D03*
X174000000Y-107324989D03*
X223999978Y-127500000D03*
X175200000Y-111800000D03*
X174800000Y-108000000D03*
X203000000Y-109225032D03*
X198600000Y-111825010D03*
X213800288Y-109829192D03*
X208571508Y-110215473D03*
X147250000Y-111974990D03*
X207475000Y-129250000D03*
X215250000Y-129250000D03*
X206150959Y-128259129D03*
X114932429Y-108275000D03*
X229674990Y-137350000D03*
X229674990Y-137350000D03*
X229750000Y-135150000D03*
X227231309Y-125500000D03*
X225678594Y-124000000D03*
X222500000Y-125000000D03*
X167750000Y-111750000D03*
X208000000Y-121500000D03*
X208000000Y-124750000D03*
X212767303Y-128775000D03*
X190800000Y-112200000D03*
X187680658Y-107719332D03*
X214979055Y-128287403D03*
X207500000Y-126250000D03*
X197000000Y-128750000D03*
X138750000Y-108500000D03*
X225775305Y-134975000D03*
X223167934Y-128054712D03*
X183200000Y-112025000D03*
X182600012Y-107600036D03*
X131000000Y-108250000D03*
X209253601Y-131648832D03*
D21*
X117000000Y-138500000D02*
X112500000Y-134000000D01*
X112500000Y-126120000D02*
X113620000Y-125000000D01*
X112500000Y-134000000D02*
X112500000Y-126120000D01*
X142120000Y-138380000D02*
X142000000Y-138500000D01*
X170620000Y-138120000D02*
X171000000Y-138500000D01*
X199120000Y-138120000D02*
X199500000Y-138500000D01*
X141500000Y-138240000D02*
X142120000Y-137620000D01*
X141500000Y-138500000D02*
X141500000Y-138240000D01*
X142120000Y-137620000D02*
X142120000Y-138380000D01*
X142120000Y-125000000D02*
X142120000Y-137620000D01*
X141500000Y-138500000D02*
X117000000Y-138500000D01*
X142000000Y-138500000D02*
X141500000Y-138500000D01*
X142120000Y-137620000D02*
X143000000Y-138500000D01*
X143000000Y-138500000D02*
X142000000Y-138500000D01*
X169740000Y-138500000D02*
X170620000Y-137620000D01*
X169500000Y-138500000D02*
X169740000Y-138500000D01*
X170620000Y-137620000D02*
X170620000Y-138120000D01*
X170620000Y-125000000D02*
X170620000Y-137620000D01*
X169500000Y-138500000D02*
X143000000Y-138500000D01*
X171000000Y-138500000D02*
X169500000Y-138500000D01*
X170620000Y-137620000D02*
X171500000Y-138500000D01*
X171500000Y-138500000D02*
X171000000Y-138500000D01*
X200000000Y-138000000D02*
X199120000Y-137120000D01*
X200000000Y-138500000D02*
X200000000Y-138000000D01*
X199120000Y-137120000D02*
X199120000Y-138120000D01*
X199120000Y-125000000D02*
X199120000Y-137120000D01*
X200000000Y-138500000D02*
X199500000Y-138500000D01*
X198000000Y-138240000D02*
X199120000Y-137120000D01*
X198000000Y-138500000D02*
X198000000Y-138240000D01*
X198000000Y-138500000D02*
X171500000Y-138500000D01*
X199500000Y-138500000D02*
X198000000Y-138500000D01*
X248500000Y-131500000D02*
X247750000Y-130750000D01*
X247750000Y-130750000D02*
X247000000Y-130000000D01*
X246750000Y-136250000D02*
X223250000Y-136250000D01*
X248500000Y-131500000D02*
X248500000Y-134500000D01*
X221000000Y-138500000D02*
X200000000Y-138500000D01*
X248500000Y-134500000D02*
X246750000Y-136250000D01*
X223250000Y-136250000D02*
X221000000Y-138500000D01*
D22*
X207510057Y-122416941D02*
X209789508Y-122416941D01*
X206750000Y-128733090D02*
X206875960Y-128607130D01*
X209789508Y-122416941D02*
X210189507Y-122816940D01*
X206750000Y-132250000D02*
X206750000Y-128733090D01*
X206750000Y-123176998D02*
X207510057Y-122416941D01*
X206875960Y-127901259D02*
X206750000Y-127775299D01*
X206750000Y-127775299D02*
X206750000Y-123176998D01*
X206875960Y-128607130D02*
X206875960Y-127901259D01*
X222250000Y-135250000D02*
X222250000Y-134000000D01*
X222250000Y-134000000D02*
X222750000Y-133500000D01*
X227500000Y-135150000D02*
X227500000Y-134250020D01*
X227500000Y-134250020D02*
X227149979Y-133899999D01*
X227149979Y-133899999D02*
X226749980Y-133500000D01*
X209875012Y-132084988D02*
X214029937Y-132084988D01*
X214270092Y-132325143D02*
X214966096Y-132325143D01*
X208250000Y-133710000D02*
X209875012Y-132084988D01*
X217250000Y-126065685D02*
X217250000Y-125500000D01*
X217250000Y-130041239D02*
X217250000Y-126065685D01*
X214966096Y-132325143D02*
X217250000Y-130041239D01*
X214029937Y-132084988D02*
X214270092Y-132325143D01*
X215152496Y-132775154D02*
X218327792Y-129599858D01*
X210790000Y-133710000D02*
X211965001Y-132534999D01*
X213843537Y-132534999D02*
X214083692Y-132775154D01*
X214083692Y-132775154D02*
X215152496Y-132775154D01*
X218327792Y-125713755D02*
X218327792Y-125148070D01*
X218327792Y-129599858D02*
X218327792Y-125713755D01*
X211965001Y-132534999D02*
X213843537Y-132534999D01*
X222750000Y-117815685D02*
X223398888Y-118464573D01*
X224603550Y-121737220D02*
X224190803Y-122149967D01*
X217448804Y-121876861D02*
X214763736Y-121876861D01*
X214763736Y-121876861D02*
X214510338Y-122130259D01*
X223398888Y-118464573D02*
X224226550Y-118464573D01*
X224226550Y-118464573D02*
X224603550Y-118841573D01*
X224603550Y-118841573D02*
X224603550Y-121737220D01*
X222750000Y-117250000D02*
X222750000Y-117815685D01*
X217721910Y-122149967D02*
X217448804Y-121876861D01*
X224190803Y-122149967D02*
X217721910Y-122149967D01*
X225053561Y-118553561D02*
X225053561Y-121923620D01*
X224377203Y-122599978D02*
X217535510Y-122599978D01*
X216208192Y-122367477D02*
X215937370Y-122638299D01*
X215937370Y-122638299D02*
X215371685Y-122638299D01*
X217535510Y-122599978D02*
X217303009Y-122367477D01*
X217303009Y-122367477D02*
X216208192Y-122367477D01*
X223750000Y-117250000D02*
X225053561Y-118553561D01*
X225053561Y-121923620D02*
X224377203Y-122599978D01*
X224711612Y-116975583D02*
X225503572Y-117767543D01*
X217349110Y-123049989D02*
X217124108Y-122824987D01*
X225503572Y-117767543D02*
X225503572Y-122110020D01*
X216020532Y-123206855D02*
X215620533Y-123606854D01*
X216402400Y-122824987D02*
X216020532Y-123206855D01*
X217124108Y-122824987D02*
X216402400Y-122824987D01*
X224563603Y-123049989D02*
X217349110Y-123049989D01*
X225503572Y-122110020D02*
X224563603Y-123049989D01*
X225500000Y-116000000D02*
X225953583Y-116453583D01*
X217341792Y-123549988D02*
X216776107Y-123549988D01*
X225953583Y-122296417D02*
X224700012Y-123549988D01*
X224700012Y-123549988D02*
X217341792Y-123549988D01*
X225953583Y-116453583D02*
X225953583Y-122296417D01*
X227600008Y-116000008D02*
X227600008Y-123834315D01*
X227600008Y-123834315D02*
X227600008Y-124400000D01*
X218000000Y-106400000D02*
X227600008Y-116000008D01*
X118200000Y-106400000D02*
X218000000Y-106400000D01*
X117400000Y-107200000D02*
X118200000Y-106400000D01*
X176500000Y-112000000D02*
X180606478Y-112000000D01*
X180606478Y-112000000D02*
X181981489Y-113375011D01*
X212250000Y-123804431D02*
X212250000Y-126750000D01*
X201820580Y-113375011D02*
X212250000Y-123804431D01*
X189874989Y-113375011D02*
X201820580Y-113375011D01*
X189874989Y-113375011D02*
X190138601Y-113375011D01*
X181981489Y-113375011D02*
X189874989Y-113375011D01*
X207484282Y-109950033D02*
X208434314Y-109000001D01*
X208434314Y-109000001D02*
X215572556Y-109000001D01*
X215572556Y-109000001D02*
X215806748Y-109234193D01*
X199902401Y-111868622D02*
X201820990Y-109950033D01*
X201820990Y-109950033D02*
X207484282Y-109950033D01*
X215806748Y-109234193D02*
X215806748Y-109799878D01*
X208354098Y-130450011D02*
X208091496Y-130712613D01*
X213873824Y-130858664D02*
X213465171Y-130450011D01*
X213465171Y-130450011D02*
X208354098Y-130450011D01*
X146000000Y-112000000D02*
X152725001Y-118725001D01*
X201725001Y-118725001D02*
X204324987Y-121324987D01*
X204324987Y-128128325D02*
X205459315Y-129262653D01*
X152725001Y-118725001D02*
X201725001Y-118725001D01*
X204324987Y-121324987D02*
X204324987Y-128128325D01*
X205459315Y-129262653D02*
X206025000Y-129262653D01*
X109000000Y-112750000D02*
X124750000Y-128500000D01*
X124750000Y-128500000D02*
X140750000Y-128500000D01*
X144000000Y-128500000D02*
X168250000Y-128500000D01*
X168250000Y-128500000D02*
X168750000Y-129000000D01*
X189530998Y-133500000D02*
X197750000Y-133500000D01*
X172500000Y-128750000D02*
X184780998Y-128750000D01*
X184780998Y-128750000D02*
X189530998Y-133500000D01*
X226600001Y-127378102D02*
X227000000Y-126978103D01*
X224750000Y-129228103D02*
X226600001Y-127378102D01*
X224750000Y-134975000D02*
X224750000Y-129228103D01*
X168900031Y-114275031D02*
X169638621Y-114275031D01*
X166500000Y-111875000D02*
X168900031Y-114275031D01*
X169638621Y-114275031D02*
X200525031Y-114275031D01*
X200525031Y-114275031D02*
X206000000Y-119750000D01*
X206000000Y-119750000D02*
X206000000Y-121250000D01*
X206000000Y-121250000D02*
X206000000Y-125475000D01*
X206000000Y-125475000D02*
X206025000Y-125500000D01*
X190325001Y-112925001D02*
X212265617Y-112925001D01*
X214806901Y-110383717D02*
X214806901Y-109818032D01*
X189600000Y-112200000D02*
X190325001Y-112925001D01*
X212265617Y-112925001D02*
X214806901Y-110383717D01*
X212084498Y-130900022D02*
X208977091Y-130900022D01*
X208977091Y-130900022D02*
X208195689Y-131681424D01*
X208195689Y-131681424D02*
X207843646Y-131681424D01*
X212359497Y-131175021D02*
X212084498Y-130900022D01*
X212925182Y-131175021D02*
X212359497Y-131175021D01*
X137750000Y-112000000D02*
X137750000Y-108500000D01*
X138250000Y-112500000D02*
X137750000Y-112000000D01*
X203250000Y-128250000D02*
X203250000Y-122250000D01*
X205750000Y-130750000D02*
X203250000Y-128250000D01*
X203250000Y-122250000D02*
X200750000Y-119750000D01*
X200750000Y-119750000D02*
X152676998Y-119750000D01*
X152676998Y-119750000D02*
X145426998Y-112500000D01*
X145426998Y-112500000D02*
X138250000Y-112500000D01*
X193579003Y-131850001D02*
X189479002Y-127750000D01*
X197750000Y-132250000D02*
X197350001Y-131850001D01*
X197350001Y-131850001D02*
X193579003Y-131850001D01*
X189479002Y-127750000D02*
X171970000Y-127750000D01*
X171970000Y-127750000D02*
X171720000Y-128000000D01*
X160750000Y-127500000D02*
X143613247Y-127500000D01*
X143613247Y-127500000D02*
X143445299Y-127667948D01*
X223750000Y-135000000D02*
X223750000Y-129500000D01*
X205500000Y-126934315D02*
X205500000Y-127500000D01*
X162750000Y-115000000D02*
X200500000Y-115000000D01*
X205299999Y-119799999D02*
X205299999Y-126734314D01*
X159750000Y-112000000D02*
X162750000Y-115000000D01*
X205299999Y-126734314D02*
X205500000Y-126934315D01*
X200500000Y-115000000D02*
X205299999Y-119799999D01*
X181754490Y-112075010D02*
X181754490Y-107754492D01*
X181754490Y-107754492D02*
X181599998Y-107600000D01*
X193278588Y-129500000D02*
X197750000Y-129500000D01*
X185063600Y-121285012D02*
X193278588Y-129500000D01*
X130500000Y-120750000D02*
X131035012Y-121285012D01*
X131035012Y-121285012D02*
X185063600Y-121285012D01*
X214914343Y-125262653D02*
X215902008Y-124274988D01*
X217274988Y-124274988D02*
X217500000Y-124500000D01*
X215902008Y-124274988D02*
X217274988Y-124274988D01*
X214012653Y-125262653D02*
X214914343Y-125262653D01*
X218675793Y-124423069D02*
X219052793Y-124800069D01*
X217979791Y-124423069D02*
X218675793Y-124423069D01*
X217500000Y-124500000D02*
X217902860Y-124500000D01*
X217902860Y-124500000D02*
X217979791Y-124423069D01*
X219052793Y-124800069D02*
X219052793Y-125052793D01*
X219052793Y-125052793D02*
X219500000Y-125500000D01*
X219500000Y-125500000D02*
X220500000Y-125500000D01*
X220500000Y-125500000D02*
X221250000Y-126250000D01*
X221250000Y-126250000D02*
X221500000Y-126250000D01*
X214618094Y-131600141D02*
X216250000Y-129968235D01*
X216250000Y-129968235D02*
X216250000Y-126065675D01*
X216250000Y-126065675D02*
X216250000Y-125499990D01*
X223312863Y-119189575D02*
X223878548Y-119189575D01*
X214001254Y-119189575D02*
X223312863Y-119189575D01*
X213238053Y-119952776D02*
X214001254Y-119189575D01*
X223067945Y-120501401D02*
X223467944Y-120101402D01*
X222616643Y-120952703D02*
X223067945Y-120501401D01*
X213251116Y-120952703D02*
X222616643Y-120952703D01*
X213216986Y-121952133D02*
X213615460Y-121952133D01*
X222905487Y-121405257D02*
X223285809Y-121024935D01*
X223285809Y-121024935D02*
X223851494Y-121024935D01*
X214162336Y-121405257D02*
X222905487Y-121405257D01*
X213615460Y-121952133D02*
X214162336Y-121405257D01*
X174000000Y-107324989D02*
X174474979Y-106850010D01*
X174474979Y-106850010D02*
X217423012Y-106850010D01*
X217423012Y-106850010D02*
X226403594Y-115830592D01*
X226403594Y-125096384D02*
X224399977Y-127100001D01*
X226403594Y-115830592D02*
X226403594Y-125096384D01*
X224399977Y-127100001D02*
X223999978Y-127500000D01*
X175200000Y-111800000D02*
X175199999Y-108399999D01*
X175199999Y-108399999D02*
X174800000Y-108000000D01*
X202600001Y-108825033D02*
X198974967Y-108825033D01*
X203000000Y-109225032D02*
X202600001Y-108825033D01*
X198974967Y-108825033D02*
X198600000Y-109200000D01*
X198600000Y-109200000D02*
X198600000Y-111825010D01*
X213414007Y-110215473D02*
X213800288Y-109829192D01*
X208571508Y-110215473D02*
X213414007Y-110215473D01*
X214850001Y-129649999D02*
X215250000Y-129250000D01*
X214500000Y-130000000D02*
X214850001Y-129649999D01*
X208225000Y-130000000D02*
X214500000Y-130000000D01*
X207475000Y-129250000D02*
X208225000Y-130000000D01*
X204774998Y-120274998D02*
X204774998Y-127848002D01*
X205585274Y-128259129D02*
X206150959Y-128259129D01*
X147250000Y-111974990D02*
X150800009Y-115524999D01*
X150800009Y-115524999D02*
X200024999Y-115524999D01*
X200024999Y-115524999D02*
X204774998Y-120274998D01*
X204774998Y-127848002D02*
X205186125Y-128259129D01*
X205186125Y-128259129D02*
X205585274Y-128259129D01*
X114932429Y-108275000D02*
X101225000Y-108275000D01*
X101225000Y-108275000D02*
X99750000Y-109750000D01*
X227424990Y-139325010D02*
X229674990Y-137075010D01*
X115554012Y-139325010D02*
X227424990Y-139325010D01*
X99750000Y-109750000D02*
X99750000Y-123520998D01*
X99750000Y-123520998D02*
X115554012Y-139325010D01*
X229674990Y-137075010D02*
X229674990Y-137350000D01*
X229674990Y-137350000D02*
X229674990Y-137174990D01*
X229750000Y-128018691D02*
X227231309Y-125500000D01*
X229750000Y-135150000D02*
X229750000Y-128018691D01*
X227000000Y-125500000D02*
X227231309Y-125500000D01*
X225678594Y-124000000D02*
X224678594Y-125000000D01*
X224678594Y-125000000D02*
X222500000Y-125000000D01*
X169825021Y-113825021D02*
X201325021Y-113825021D01*
X167750000Y-111750000D02*
X169825021Y-113825021D01*
X201325021Y-113825021D02*
X208000000Y-120500000D01*
X208000000Y-120500000D02*
X208000000Y-121500000D01*
X208742303Y-124750000D02*
X212367304Y-128375001D01*
X208000000Y-124750000D02*
X208742303Y-124750000D01*
X212367304Y-128375001D02*
X212767303Y-128775000D01*
X188080657Y-108119331D02*
X187680658Y-107719332D01*
X190800000Y-112200000D02*
X190800000Y-110838674D01*
X190800000Y-110838674D02*
X188080657Y-108119331D01*
X207500000Y-127573002D02*
X207500000Y-126250000D01*
X209426999Y-129500001D02*
X207500000Y-127573002D01*
X214979055Y-128287403D02*
X213766457Y-129500001D01*
X213766457Y-129500001D02*
X209426999Y-129500001D01*
X193164998Y-128750000D02*
X185250000Y-120835002D01*
X197000000Y-128750000D02*
X193164998Y-128750000D01*
X138750000Y-108426998D02*
X138750000Y-108500000D01*
X142512000Y-120835002D02*
X130274999Y-108598001D01*
X185250000Y-120835002D02*
X142512000Y-120835002D01*
X130274999Y-108598001D02*
X130274999Y-107901999D01*
X130274999Y-107901999D02*
X130651999Y-107524999D01*
X130651999Y-107524999D02*
X137848001Y-107524999D01*
X137848001Y-107524999D02*
X138750000Y-108426998D01*
X226651999Y-126253102D02*
X225250000Y-127655101D01*
X227348001Y-126253102D02*
X226651999Y-126253102D01*
X227725001Y-126630102D02*
X227348001Y-126253102D01*
X227725001Y-127326104D02*
X227725001Y-126630102D01*
X225775305Y-134975000D02*
X225775305Y-129275800D01*
X225775305Y-129275800D02*
X227725001Y-127326104D01*
X225250000Y-127655101D02*
X225250000Y-127750000D01*
X223338223Y-128225001D02*
X223167934Y-128054712D01*
X225250000Y-127655101D02*
X224680100Y-128225001D01*
X224680100Y-128225001D02*
X223338223Y-128225001D01*
X183200000Y-112025000D02*
X183200000Y-108200024D01*
X183000011Y-108000035D02*
X182600012Y-107600036D01*
X183200000Y-108200024D02*
X183000011Y-108000035D01*
X208853602Y-132048831D02*
X209253601Y-131648832D01*
X208496007Y-132406426D02*
X208853602Y-132048831D01*
X207839836Y-132406426D02*
X208496007Y-132406426D01*
X142950010Y-120200010D02*
X200200010Y-120200010D01*
X131000000Y-108250000D02*
X142950010Y-120200010D01*
X200200010Y-120200010D02*
X201465001Y-121465001D01*
X201465001Y-121465001D02*
X201465001Y-128038003D01*
X201465001Y-128038003D02*
X206401999Y-132975001D01*
X207271261Y-132975001D02*
X207839836Y-132406426D01*
X206401999Y-132975001D02*
X207271261Y-132975001D01*
M02*
