G04 #@! TF.GenerationSoftware,KiCad,Pcbnew,(5.1.4)-1*
G04 #@! TF.CreationDate,2020-09-16T17:38:36+01:00*
G04 #@! TF.ProjectId,reflex-io-board,7265666c-6578-42d6-996f-2d626f617264,rev?*
G04 #@! TF.SameCoordinates,Original*
G04 #@! TF.FileFunction,Soldermask,Bot*
G04 #@! TF.FilePolarity,Negative*
%FSLAX46Y46*%
G04 Gerber Fmt 4.6, Leading zero omitted, Abs format (unit mm)*
G04 Created by KiCad (PCBNEW (5.1.4)-1) date 2020-09-16 17:38:36*
%MOMM*%
%LPD*%
G04 APERTURE LIST*
%ADD10C,0.100000*%
G04 APERTURE END LIST*
D10*
G36*
X251306564Y-136989389D02*
G01*
X251497833Y-137068615D01*
X251497835Y-137068616D01*
X251524513Y-137086442D01*
X251669973Y-137183635D01*
X251816365Y-137330027D01*
X251931385Y-137502167D01*
X252010611Y-137693436D01*
X252051000Y-137896484D01*
X252051000Y-138103516D01*
X252010611Y-138306564D01*
X251931385Y-138497833D01*
X251931384Y-138497835D01*
X251816365Y-138669973D01*
X251669973Y-138816365D01*
X251497835Y-138931384D01*
X251497834Y-138931385D01*
X251497833Y-138931385D01*
X251306564Y-139010611D01*
X251103516Y-139051000D01*
X250896484Y-139051000D01*
X250693436Y-139010611D01*
X250502167Y-138931385D01*
X250502166Y-138931385D01*
X250502165Y-138931384D01*
X250330027Y-138816365D01*
X250183635Y-138669973D01*
X250068616Y-138497835D01*
X250068615Y-138497833D01*
X249989389Y-138306564D01*
X249949000Y-138103516D01*
X249949000Y-137896484D01*
X249989389Y-137693436D01*
X250068615Y-137502167D01*
X250183635Y-137330027D01*
X250330027Y-137183635D01*
X250475487Y-137086442D01*
X250502165Y-137068616D01*
X250502167Y-137068615D01*
X250693436Y-136989389D01*
X250896484Y-136949000D01*
X251103516Y-136949000D01*
X251306564Y-136989389D01*
X251306564Y-136989389D01*
G37*
G36*
X241306564Y-136989389D02*
G01*
X241497833Y-137068615D01*
X241497835Y-137068616D01*
X241524513Y-137086442D01*
X241669973Y-137183635D01*
X241816365Y-137330027D01*
X241931385Y-137502167D01*
X242010611Y-137693436D01*
X242051000Y-137896484D01*
X242051000Y-138103516D01*
X242010611Y-138306564D01*
X241931385Y-138497833D01*
X241931384Y-138497835D01*
X241816365Y-138669973D01*
X241669973Y-138816365D01*
X241497835Y-138931384D01*
X241497834Y-138931385D01*
X241497833Y-138931385D01*
X241306564Y-139010611D01*
X241103516Y-139051000D01*
X240896484Y-139051000D01*
X240693436Y-139010611D01*
X240502167Y-138931385D01*
X240502166Y-138931385D01*
X240502165Y-138931384D01*
X240330027Y-138816365D01*
X240183635Y-138669973D01*
X240068616Y-138497835D01*
X240068615Y-138497833D01*
X239989389Y-138306564D01*
X239949000Y-138103516D01*
X239949000Y-137896484D01*
X239989389Y-137693436D01*
X240068615Y-137502167D01*
X240183635Y-137330027D01*
X240330027Y-137183635D01*
X240475487Y-137086442D01*
X240502165Y-137068616D01*
X240502167Y-137068615D01*
X240693436Y-136989389D01*
X240896484Y-136949000D01*
X241103516Y-136949000D01*
X241306564Y-136989389D01*
X241306564Y-136989389D01*
G37*
G36*
X234806564Y-136989389D02*
G01*
X234997833Y-137068615D01*
X234997835Y-137068616D01*
X235024513Y-137086442D01*
X235169973Y-137183635D01*
X235316365Y-137330027D01*
X235431385Y-137502167D01*
X235510611Y-137693436D01*
X235551000Y-137896484D01*
X235551000Y-138103516D01*
X235510611Y-138306564D01*
X235431385Y-138497833D01*
X235431384Y-138497835D01*
X235316365Y-138669973D01*
X235169973Y-138816365D01*
X234997835Y-138931384D01*
X234997834Y-138931385D01*
X234997833Y-138931385D01*
X234806564Y-139010611D01*
X234603516Y-139051000D01*
X234396484Y-139051000D01*
X234193436Y-139010611D01*
X234002167Y-138931385D01*
X234002166Y-138931385D01*
X234002165Y-138931384D01*
X233830027Y-138816365D01*
X233683635Y-138669973D01*
X233568616Y-138497835D01*
X233568615Y-138497833D01*
X233489389Y-138306564D01*
X233449000Y-138103516D01*
X233449000Y-137896484D01*
X233489389Y-137693436D01*
X233568615Y-137502167D01*
X233683635Y-137330027D01*
X233830027Y-137183635D01*
X233975487Y-137086442D01*
X234002165Y-137068616D01*
X234002167Y-137068615D01*
X234193436Y-136989389D01*
X234396484Y-136949000D01*
X234603516Y-136949000D01*
X234806564Y-136989389D01*
X234806564Y-136989389D01*
G37*
G36*
X244806564Y-136989389D02*
G01*
X244997833Y-137068615D01*
X244997835Y-137068616D01*
X245024513Y-137086442D01*
X245169973Y-137183635D01*
X245316365Y-137330027D01*
X245431385Y-137502167D01*
X245510611Y-137693436D01*
X245551000Y-137896484D01*
X245551000Y-138103516D01*
X245510611Y-138306564D01*
X245431385Y-138497833D01*
X245431384Y-138497835D01*
X245316365Y-138669973D01*
X245169973Y-138816365D01*
X244997835Y-138931384D01*
X244997834Y-138931385D01*
X244997833Y-138931385D01*
X244806564Y-139010611D01*
X244603516Y-139051000D01*
X244396484Y-139051000D01*
X244193436Y-139010611D01*
X244002167Y-138931385D01*
X244002166Y-138931385D01*
X244002165Y-138931384D01*
X243830027Y-138816365D01*
X243683635Y-138669973D01*
X243568616Y-138497835D01*
X243568615Y-138497833D01*
X243489389Y-138306564D01*
X243449000Y-138103516D01*
X243449000Y-137896484D01*
X243489389Y-137693436D01*
X243568615Y-137502167D01*
X243683635Y-137330027D01*
X243830027Y-137183635D01*
X243975487Y-137086442D01*
X244002165Y-137068616D01*
X244002167Y-137068615D01*
X244193436Y-136989389D01*
X244396484Y-136949000D01*
X244603516Y-136949000D01*
X244806564Y-136989389D01*
X244806564Y-136989389D01*
G37*
G36*
X213440442Y-135355518D02*
G01*
X213506627Y-135362037D01*
X213676466Y-135413557D01*
X213832991Y-135497222D01*
X213868729Y-135526552D01*
X213970186Y-135609814D01*
X214053448Y-135711271D01*
X214082778Y-135747009D01*
X214166443Y-135903534D01*
X214217963Y-136073373D01*
X214235359Y-136250000D01*
X214217963Y-136426627D01*
X214166443Y-136596466D01*
X214082778Y-136752991D01*
X214053448Y-136788729D01*
X213970186Y-136890186D01*
X213868729Y-136973448D01*
X213832991Y-137002778D01*
X213676466Y-137086443D01*
X213506627Y-137137963D01*
X213440442Y-137144482D01*
X213374260Y-137151000D01*
X213285740Y-137151000D01*
X213219558Y-137144482D01*
X213153373Y-137137963D01*
X212983534Y-137086443D01*
X212827009Y-137002778D01*
X212791271Y-136973448D01*
X212689814Y-136890186D01*
X212606552Y-136788729D01*
X212577222Y-136752991D01*
X212493557Y-136596466D01*
X212442037Y-136426627D01*
X212424641Y-136250000D01*
X212442037Y-136073373D01*
X212493557Y-135903534D01*
X212577222Y-135747009D01*
X212606552Y-135711271D01*
X212689814Y-135609814D01*
X212791271Y-135526552D01*
X212827009Y-135497222D01*
X212983534Y-135413557D01*
X213153373Y-135362037D01*
X213219558Y-135355518D01*
X213285740Y-135349000D01*
X213374260Y-135349000D01*
X213440442Y-135355518D01*
X213440442Y-135355518D01*
G37*
G36*
X218520442Y-135355518D02*
G01*
X218586627Y-135362037D01*
X218756466Y-135413557D01*
X218912991Y-135497222D01*
X218948729Y-135526552D01*
X219050186Y-135609814D01*
X219133448Y-135711271D01*
X219162778Y-135747009D01*
X219246443Y-135903534D01*
X219297963Y-136073373D01*
X219315359Y-136250000D01*
X219297963Y-136426627D01*
X219246443Y-136596466D01*
X219162778Y-136752991D01*
X219133448Y-136788729D01*
X219050186Y-136890186D01*
X218948729Y-136973448D01*
X218912991Y-137002778D01*
X218756466Y-137086443D01*
X218586627Y-137137963D01*
X218520442Y-137144482D01*
X218454260Y-137151000D01*
X218365740Y-137151000D01*
X218299558Y-137144482D01*
X218233373Y-137137963D01*
X218063534Y-137086443D01*
X217907009Y-137002778D01*
X217871271Y-136973448D01*
X217769814Y-136890186D01*
X217686552Y-136788729D01*
X217657222Y-136752991D01*
X217573557Y-136596466D01*
X217522037Y-136426627D01*
X217504641Y-136250000D01*
X217522037Y-136073373D01*
X217573557Y-135903534D01*
X217657222Y-135747009D01*
X217686552Y-135711271D01*
X217769814Y-135609814D01*
X217871271Y-135526552D01*
X217907009Y-135497222D01*
X218063534Y-135413557D01*
X218233373Y-135362037D01*
X218299558Y-135355518D01*
X218365740Y-135349000D01*
X218454260Y-135349000D01*
X218520442Y-135355518D01*
X218520442Y-135355518D01*
G37*
G36*
X215980442Y-135355518D02*
G01*
X216046627Y-135362037D01*
X216216466Y-135413557D01*
X216372991Y-135497222D01*
X216408729Y-135526552D01*
X216510186Y-135609814D01*
X216593448Y-135711271D01*
X216622778Y-135747009D01*
X216706443Y-135903534D01*
X216757963Y-136073373D01*
X216775359Y-136250000D01*
X216757963Y-136426627D01*
X216706443Y-136596466D01*
X216622778Y-136752991D01*
X216593448Y-136788729D01*
X216510186Y-136890186D01*
X216408729Y-136973448D01*
X216372991Y-137002778D01*
X216216466Y-137086443D01*
X216046627Y-137137963D01*
X215980442Y-137144482D01*
X215914260Y-137151000D01*
X215825740Y-137151000D01*
X215759558Y-137144482D01*
X215693373Y-137137963D01*
X215523534Y-137086443D01*
X215367009Y-137002778D01*
X215331271Y-136973448D01*
X215229814Y-136890186D01*
X215146552Y-136788729D01*
X215117222Y-136752991D01*
X215033557Y-136596466D01*
X214982037Y-136426627D01*
X214964641Y-136250000D01*
X214982037Y-136073373D01*
X215033557Y-135903534D01*
X215117222Y-135747009D01*
X215146552Y-135711271D01*
X215229814Y-135609814D01*
X215331271Y-135526552D01*
X215367009Y-135497222D01*
X215523534Y-135413557D01*
X215693373Y-135362037D01*
X215759558Y-135355518D01*
X215825740Y-135349000D01*
X215914260Y-135349000D01*
X215980442Y-135355518D01*
X215980442Y-135355518D01*
G37*
G36*
X210900442Y-135355518D02*
G01*
X210966627Y-135362037D01*
X211136466Y-135413557D01*
X211292991Y-135497222D01*
X211328729Y-135526552D01*
X211430186Y-135609814D01*
X211513448Y-135711271D01*
X211542778Y-135747009D01*
X211626443Y-135903534D01*
X211677963Y-136073373D01*
X211695359Y-136250000D01*
X211677963Y-136426627D01*
X211626443Y-136596466D01*
X211542778Y-136752991D01*
X211513448Y-136788729D01*
X211430186Y-136890186D01*
X211328729Y-136973448D01*
X211292991Y-137002778D01*
X211136466Y-137086443D01*
X210966627Y-137137963D01*
X210900442Y-137144482D01*
X210834260Y-137151000D01*
X210745740Y-137151000D01*
X210679558Y-137144482D01*
X210613373Y-137137963D01*
X210443534Y-137086443D01*
X210287009Y-137002778D01*
X210251271Y-136973448D01*
X210149814Y-136890186D01*
X210066552Y-136788729D01*
X210037222Y-136752991D01*
X209953557Y-136596466D01*
X209902037Y-136426627D01*
X209884641Y-136250000D01*
X209902037Y-136073373D01*
X209953557Y-135903534D01*
X210037222Y-135747009D01*
X210066552Y-135711271D01*
X210149814Y-135609814D01*
X210251271Y-135526552D01*
X210287009Y-135497222D01*
X210443534Y-135413557D01*
X210613373Y-135362037D01*
X210679558Y-135355518D01*
X210745740Y-135349000D01*
X210834260Y-135349000D01*
X210900442Y-135355518D01*
X210900442Y-135355518D01*
G37*
G36*
X209151000Y-137151000D02*
G01*
X207349000Y-137151000D01*
X207349000Y-135349000D01*
X209151000Y-135349000D01*
X209151000Y-137151000D01*
X209151000Y-137151000D01*
G37*
G36*
X210900443Y-132815519D02*
G01*
X210966627Y-132822037D01*
X211136466Y-132873557D01*
X211292991Y-132957222D01*
X211328729Y-132986552D01*
X211430186Y-133069814D01*
X211513448Y-133171271D01*
X211542778Y-133207009D01*
X211626443Y-133363534D01*
X211677963Y-133533373D01*
X211695359Y-133710000D01*
X211677963Y-133886627D01*
X211626443Y-134056466D01*
X211542778Y-134212991D01*
X211513448Y-134248729D01*
X211430186Y-134350186D01*
X211331244Y-134431384D01*
X211292991Y-134462778D01*
X211136466Y-134546443D01*
X210966627Y-134597963D01*
X210900443Y-134604481D01*
X210834260Y-134611000D01*
X210745740Y-134611000D01*
X210679557Y-134604481D01*
X210613373Y-134597963D01*
X210443534Y-134546443D01*
X210287009Y-134462778D01*
X210248756Y-134431384D01*
X210149814Y-134350186D01*
X210066552Y-134248729D01*
X210037222Y-134212991D01*
X209953557Y-134056466D01*
X209902037Y-133886627D01*
X209884641Y-133710000D01*
X209902037Y-133533373D01*
X209953557Y-133363534D01*
X210037222Y-133207009D01*
X210066552Y-133171271D01*
X210149814Y-133069814D01*
X210251271Y-132986552D01*
X210287009Y-132957222D01*
X210443534Y-132873557D01*
X210613373Y-132822037D01*
X210679557Y-132815519D01*
X210745740Y-132809000D01*
X210834260Y-132809000D01*
X210900443Y-132815519D01*
X210900443Y-132815519D01*
G37*
G36*
X215980443Y-132815519D02*
G01*
X216046627Y-132822037D01*
X216216466Y-132873557D01*
X216372991Y-132957222D01*
X216408729Y-132986552D01*
X216510186Y-133069814D01*
X216593448Y-133171271D01*
X216622778Y-133207009D01*
X216706443Y-133363534D01*
X216757963Y-133533373D01*
X216775359Y-133710000D01*
X216757963Y-133886627D01*
X216706443Y-134056466D01*
X216622778Y-134212991D01*
X216593448Y-134248729D01*
X216510186Y-134350186D01*
X216411244Y-134431384D01*
X216372991Y-134462778D01*
X216216466Y-134546443D01*
X216046627Y-134597963D01*
X215980443Y-134604481D01*
X215914260Y-134611000D01*
X215825740Y-134611000D01*
X215759557Y-134604481D01*
X215693373Y-134597963D01*
X215523534Y-134546443D01*
X215367009Y-134462778D01*
X215328756Y-134431384D01*
X215229814Y-134350186D01*
X215146552Y-134248729D01*
X215117222Y-134212991D01*
X215033557Y-134056466D01*
X214982037Y-133886627D01*
X214964641Y-133710000D01*
X214982037Y-133533373D01*
X215033557Y-133363534D01*
X215117222Y-133207009D01*
X215146552Y-133171271D01*
X215229814Y-133069814D01*
X215331271Y-132986552D01*
X215367009Y-132957222D01*
X215523534Y-132873557D01*
X215693373Y-132822037D01*
X215759557Y-132815519D01*
X215825740Y-132809000D01*
X215914260Y-132809000D01*
X215980443Y-132815519D01*
X215980443Y-132815519D01*
G37*
G36*
X213440443Y-132815519D02*
G01*
X213506627Y-132822037D01*
X213676466Y-132873557D01*
X213832991Y-132957222D01*
X213868729Y-132986552D01*
X213970186Y-133069814D01*
X214053448Y-133171271D01*
X214082778Y-133207009D01*
X214166443Y-133363534D01*
X214217963Y-133533373D01*
X214235359Y-133710000D01*
X214217963Y-133886627D01*
X214166443Y-134056466D01*
X214082778Y-134212991D01*
X214053448Y-134248729D01*
X213970186Y-134350186D01*
X213871244Y-134431384D01*
X213832991Y-134462778D01*
X213676466Y-134546443D01*
X213506627Y-134597963D01*
X213440443Y-134604481D01*
X213374260Y-134611000D01*
X213285740Y-134611000D01*
X213219557Y-134604481D01*
X213153373Y-134597963D01*
X212983534Y-134546443D01*
X212827009Y-134462778D01*
X212788756Y-134431384D01*
X212689814Y-134350186D01*
X212606552Y-134248729D01*
X212577222Y-134212991D01*
X212493557Y-134056466D01*
X212442037Y-133886627D01*
X212424641Y-133710000D01*
X212442037Y-133533373D01*
X212493557Y-133363534D01*
X212577222Y-133207009D01*
X212606552Y-133171271D01*
X212689814Y-133069814D01*
X212791271Y-132986552D01*
X212827009Y-132957222D01*
X212983534Y-132873557D01*
X213153373Y-132822037D01*
X213219557Y-132815519D01*
X213285740Y-132809000D01*
X213374260Y-132809000D01*
X213440443Y-132815519D01*
X213440443Y-132815519D01*
G37*
G36*
X208360443Y-132815519D02*
G01*
X208426627Y-132822037D01*
X208596466Y-132873557D01*
X208752991Y-132957222D01*
X208788729Y-132986552D01*
X208890186Y-133069814D01*
X208973448Y-133171271D01*
X209002778Y-133207009D01*
X209086443Y-133363534D01*
X209137963Y-133533373D01*
X209155359Y-133710000D01*
X209137963Y-133886627D01*
X209086443Y-134056466D01*
X209002778Y-134212991D01*
X208973448Y-134248729D01*
X208890186Y-134350186D01*
X208791244Y-134431384D01*
X208752991Y-134462778D01*
X208596466Y-134546443D01*
X208426627Y-134597963D01*
X208360443Y-134604481D01*
X208294260Y-134611000D01*
X208205740Y-134611000D01*
X208139557Y-134604481D01*
X208073373Y-134597963D01*
X207903534Y-134546443D01*
X207747009Y-134462778D01*
X207708756Y-134431384D01*
X207609814Y-134350186D01*
X207526552Y-134248729D01*
X207497222Y-134212991D01*
X207413557Y-134056466D01*
X207362037Y-133886627D01*
X207344641Y-133710000D01*
X207362037Y-133533373D01*
X207413557Y-133363534D01*
X207497222Y-133207009D01*
X207526552Y-133171271D01*
X207609814Y-133069814D01*
X207711271Y-132986552D01*
X207747009Y-132957222D01*
X207903534Y-132873557D01*
X208073373Y-132822037D01*
X208139557Y-132815519D01*
X208205740Y-132809000D01*
X208294260Y-132809000D01*
X208360443Y-132815519D01*
X208360443Y-132815519D01*
G37*
G36*
X218520443Y-132815519D02*
G01*
X218586627Y-132822037D01*
X218756466Y-132873557D01*
X218912991Y-132957222D01*
X218948729Y-132986552D01*
X219050186Y-133069814D01*
X219133448Y-133171271D01*
X219162778Y-133207009D01*
X219246443Y-133363534D01*
X219297963Y-133533373D01*
X219315359Y-133710000D01*
X219297963Y-133886627D01*
X219246443Y-134056466D01*
X219162778Y-134212991D01*
X219133448Y-134248729D01*
X219050186Y-134350186D01*
X218951244Y-134431384D01*
X218912991Y-134462778D01*
X218756466Y-134546443D01*
X218586627Y-134597963D01*
X218520443Y-134604481D01*
X218454260Y-134611000D01*
X218365740Y-134611000D01*
X218299557Y-134604481D01*
X218233373Y-134597963D01*
X218063534Y-134546443D01*
X217907009Y-134462778D01*
X217868756Y-134431384D01*
X217769814Y-134350186D01*
X217686552Y-134248729D01*
X217657222Y-134212991D01*
X217573557Y-134056466D01*
X217522037Y-133886627D01*
X217504641Y-133710000D01*
X217522037Y-133533373D01*
X217573557Y-133363534D01*
X217657222Y-133207009D01*
X217686552Y-133171271D01*
X217769814Y-133069814D01*
X217871271Y-132986552D01*
X217907009Y-132957222D01*
X218063534Y-132873557D01*
X218233373Y-132822037D01*
X218299557Y-132815519D01*
X218365740Y-132809000D01*
X218454260Y-132809000D01*
X218520443Y-132815519D01*
X218520443Y-132815519D01*
G37*
G36*
X241306564Y-132489389D02*
G01*
X241497833Y-132568615D01*
X241497835Y-132568616D01*
X241669973Y-132683635D01*
X241816365Y-132830027D01*
X241930606Y-133001000D01*
X241931385Y-133002167D01*
X242010611Y-133193436D01*
X242051000Y-133396484D01*
X242051000Y-133603516D01*
X242010611Y-133806564D01*
X241931385Y-133997833D01*
X241931384Y-133997835D01*
X241816365Y-134169973D01*
X241669973Y-134316365D01*
X241497835Y-134431384D01*
X241497834Y-134431385D01*
X241497833Y-134431385D01*
X241306564Y-134510611D01*
X241103516Y-134551000D01*
X240896484Y-134551000D01*
X240693436Y-134510611D01*
X240502167Y-134431385D01*
X240502166Y-134431385D01*
X240502165Y-134431384D01*
X240330027Y-134316365D01*
X240183635Y-134169973D01*
X240068616Y-133997835D01*
X240068615Y-133997833D01*
X239989389Y-133806564D01*
X239949000Y-133603516D01*
X239949000Y-133396484D01*
X239989389Y-133193436D01*
X240068615Y-133002167D01*
X240069395Y-133001000D01*
X240183635Y-132830027D01*
X240330027Y-132683635D01*
X240502165Y-132568616D01*
X240502167Y-132568615D01*
X240693436Y-132489389D01*
X240896484Y-132449000D01*
X241103516Y-132449000D01*
X241306564Y-132489389D01*
X241306564Y-132489389D01*
G37*
G36*
X234806564Y-132489389D02*
G01*
X234997833Y-132568615D01*
X234997835Y-132568616D01*
X235169973Y-132683635D01*
X235316365Y-132830027D01*
X235430606Y-133001000D01*
X235431385Y-133002167D01*
X235510611Y-133193436D01*
X235551000Y-133396484D01*
X235551000Y-133603516D01*
X235510611Y-133806564D01*
X235431385Y-133997833D01*
X235431384Y-133997835D01*
X235316365Y-134169973D01*
X235169973Y-134316365D01*
X234997835Y-134431384D01*
X234997834Y-134431385D01*
X234997833Y-134431385D01*
X234806564Y-134510611D01*
X234603516Y-134551000D01*
X234396484Y-134551000D01*
X234193436Y-134510611D01*
X234002167Y-134431385D01*
X234002166Y-134431385D01*
X234002165Y-134431384D01*
X233830027Y-134316365D01*
X233683635Y-134169973D01*
X233568616Y-133997835D01*
X233568615Y-133997833D01*
X233489389Y-133806564D01*
X233449000Y-133603516D01*
X233449000Y-133396484D01*
X233489389Y-133193436D01*
X233568615Y-133002167D01*
X233569395Y-133001000D01*
X233683635Y-132830027D01*
X233830027Y-132683635D01*
X234002165Y-132568616D01*
X234002167Y-132568615D01*
X234193436Y-132489389D01*
X234396484Y-132449000D01*
X234603516Y-132449000D01*
X234806564Y-132489389D01*
X234806564Y-132489389D01*
G37*
G36*
X251306564Y-132489389D02*
G01*
X251497833Y-132568615D01*
X251497835Y-132568616D01*
X251669973Y-132683635D01*
X251816365Y-132830027D01*
X251930606Y-133001000D01*
X251931385Y-133002167D01*
X252010611Y-133193436D01*
X252051000Y-133396484D01*
X252051000Y-133603516D01*
X252010611Y-133806564D01*
X251931385Y-133997833D01*
X251931384Y-133997835D01*
X251816365Y-134169973D01*
X251669973Y-134316365D01*
X251497835Y-134431384D01*
X251497834Y-134431385D01*
X251497833Y-134431385D01*
X251306564Y-134510611D01*
X251103516Y-134551000D01*
X250896484Y-134551000D01*
X250693436Y-134510611D01*
X250502167Y-134431385D01*
X250502166Y-134431385D01*
X250502165Y-134431384D01*
X250330027Y-134316365D01*
X250183635Y-134169973D01*
X250068616Y-133997835D01*
X250068615Y-133997833D01*
X249989389Y-133806564D01*
X249949000Y-133603516D01*
X249949000Y-133396484D01*
X249989389Y-133193436D01*
X250068615Y-133002167D01*
X250069395Y-133001000D01*
X250183635Y-132830027D01*
X250330027Y-132683635D01*
X250502165Y-132568616D01*
X250502167Y-132568615D01*
X250693436Y-132489389D01*
X250896484Y-132449000D01*
X251103516Y-132449000D01*
X251306564Y-132489389D01*
X251306564Y-132489389D01*
G37*
G36*
X244806564Y-132489389D02*
G01*
X244997833Y-132568615D01*
X244997835Y-132568616D01*
X245169973Y-132683635D01*
X245316365Y-132830027D01*
X245430606Y-133001000D01*
X245431385Y-133002167D01*
X245510611Y-133193436D01*
X245551000Y-133396484D01*
X245551000Y-133603516D01*
X245510611Y-133806564D01*
X245431385Y-133997833D01*
X245431384Y-133997835D01*
X245316365Y-134169973D01*
X245169973Y-134316365D01*
X244997835Y-134431384D01*
X244997834Y-134431385D01*
X244997833Y-134431385D01*
X244806564Y-134510611D01*
X244603516Y-134551000D01*
X244396484Y-134551000D01*
X244193436Y-134510611D01*
X244002167Y-134431385D01*
X244002166Y-134431385D01*
X244002165Y-134431384D01*
X243830027Y-134316365D01*
X243683635Y-134169973D01*
X243568616Y-133997835D01*
X243568615Y-133997833D01*
X243489389Y-133806564D01*
X243449000Y-133603516D01*
X243449000Y-133396484D01*
X243489389Y-133193436D01*
X243568615Y-133002167D01*
X243569395Y-133001000D01*
X243683635Y-132830027D01*
X243830027Y-132683635D01*
X244002165Y-132568616D01*
X244002167Y-132568615D01*
X244193436Y-132489389D01*
X244396484Y-132449000D01*
X244603516Y-132449000D01*
X244806564Y-132489389D01*
X244806564Y-132489389D01*
G37*
G36*
X190605256Y-129741298D02*
G01*
X190711579Y-129762447D01*
X191012042Y-129886903D01*
X191282451Y-130067585D01*
X191512415Y-130297549D01*
X191693097Y-130567958D01*
X191817553Y-130868421D01*
X191838702Y-130974744D01*
X191881000Y-131187389D01*
X191881000Y-131512611D01*
X191817553Y-131831578D01*
X191708626Y-132094553D01*
X191693097Y-132132042D01*
X191512415Y-132402451D01*
X191282451Y-132632415D01*
X191012042Y-132813097D01*
X191012041Y-132813098D01*
X191012040Y-132813098D01*
X190924037Y-132849550D01*
X190711579Y-132937553D01*
X190612701Y-132957221D01*
X190392611Y-133001000D01*
X190067389Y-133001000D01*
X189847299Y-132957221D01*
X189748421Y-132937553D01*
X189535963Y-132849550D01*
X189447960Y-132813098D01*
X189447959Y-132813098D01*
X189447958Y-132813097D01*
X189177549Y-132632415D01*
X188947585Y-132402451D01*
X188766903Y-132132042D01*
X188751375Y-132094553D01*
X188642447Y-131831578D01*
X188579000Y-131512611D01*
X188579000Y-131187389D01*
X188621298Y-130974744D01*
X188642447Y-130868421D01*
X188766903Y-130567958D01*
X188947585Y-130297549D01*
X189177549Y-130067585D01*
X189447958Y-129886903D01*
X189748421Y-129762447D01*
X189854744Y-129741298D01*
X190067389Y-129699000D01*
X190392611Y-129699000D01*
X190605256Y-129741298D01*
X190605256Y-129741298D01*
G37*
G36*
X173535256Y-129741298D02*
G01*
X173641579Y-129762447D01*
X173942042Y-129886903D01*
X174212451Y-130067585D01*
X174442415Y-130297549D01*
X174623097Y-130567958D01*
X174747553Y-130868421D01*
X174768702Y-130974744D01*
X174811000Y-131187389D01*
X174811000Y-131512611D01*
X174747553Y-131831578D01*
X174638626Y-132094553D01*
X174623097Y-132132042D01*
X174442415Y-132402451D01*
X174212451Y-132632415D01*
X173942042Y-132813097D01*
X173942041Y-132813098D01*
X173942040Y-132813098D01*
X173854037Y-132849550D01*
X173641579Y-132937553D01*
X173542701Y-132957221D01*
X173322611Y-133001000D01*
X172997389Y-133001000D01*
X172777299Y-132957221D01*
X172678421Y-132937553D01*
X172465963Y-132849550D01*
X172377960Y-132813098D01*
X172377959Y-132813098D01*
X172377958Y-132813097D01*
X172107549Y-132632415D01*
X171877585Y-132402451D01*
X171696903Y-132132042D01*
X171681375Y-132094553D01*
X171572447Y-131831578D01*
X171509000Y-131512611D01*
X171509000Y-131187389D01*
X171551298Y-130974744D01*
X171572447Y-130868421D01*
X171696903Y-130567958D01*
X171877585Y-130297549D01*
X172107549Y-130067585D01*
X172377958Y-129886903D01*
X172678421Y-129762447D01*
X172784744Y-129741298D01*
X172997389Y-129699000D01*
X173322611Y-129699000D01*
X173535256Y-129741298D01*
X173535256Y-129741298D01*
G37*
G36*
X162105256Y-129741298D02*
G01*
X162211579Y-129762447D01*
X162512042Y-129886903D01*
X162782451Y-130067585D01*
X163012415Y-130297549D01*
X163193097Y-130567958D01*
X163317553Y-130868421D01*
X163338702Y-130974744D01*
X163381000Y-131187389D01*
X163381000Y-131512611D01*
X163317553Y-131831578D01*
X163208626Y-132094553D01*
X163193097Y-132132042D01*
X163012415Y-132402451D01*
X162782451Y-132632415D01*
X162512042Y-132813097D01*
X162512041Y-132813098D01*
X162512040Y-132813098D01*
X162424037Y-132849550D01*
X162211579Y-132937553D01*
X162112701Y-132957221D01*
X161892611Y-133001000D01*
X161567389Y-133001000D01*
X161347299Y-132957221D01*
X161248421Y-132937553D01*
X161035963Y-132849550D01*
X160947960Y-132813098D01*
X160947959Y-132813098D01*
X160947958Y-132813097D01*
X160677549Y-132632415D01*
X160447585Y-132402451D01*
X160266903Y-132132042D01*
X160251375Y-132094553D01*
X160142447Y-131831578D01*
X160079000Y-131512611D01*
X160079000Y-131187389D01*
X160121298Y-130974744D01*
X160142447Y-130868421D01*
X160266903Y-130567958D01*
X160447585Y-130297549D01*
X160677549Y-130067585D01*
X160947958Y-129886903D01*
X161248421Y-129762447D01*
X161354744Y-129741298D01*
X161567389Y-129699000D01*
X161892611Y-129699000D01*
X162105256Y-129741298D01*
X162105256Y-129741298D01*
G37*
G36*
X202035256Y-129741298D02*
G01*
X202141579Y-129762447D01*
X202442042Y-129886903D01*
X202712451Y-130067585D01*
X202942415Y-130297549D01*
X203123097Y-130567958D01*
X203247553Y-130868421D01*
X203268702Y-130974744D01*
X203311000Y-131187389D01*
X203311000Y-131512611D01*
X203247553Y-131831578D01*
X203138626Y-132094553D01*
X203123097Y-132132042D01*
X202942415Y-132402451D01*
X202712451Y-132632415D01*
X202442042Y-132813097D01*
X202442041Y-132813098D01*
X202442040Y-132813098D01*
X202354037Y-132849550D01*
X202141579Y-132937553D01*
X202042701Y-132957221D01*
X201822611Y-133001000D01*
X201497389Y-133001000D01*
X201277299Y-132957221D01*
X201178421Y-132937553D01*
X200965963Y-132849550D01*
X200877960Y-132813098D01*
X200877959Y-132813098D01*
X200877958Y-132813097D01*
X200607549Y-132632415D01*
X200377585Y-132402451D01*
X200196903Y-132132042D01*
X200181375Y-132094553D01*
X200072447Y-131831578D01*
X200009000Y-131512611D01*
X200009000Y-131187389D01*
X200051298Y-130974744D01*
X200072447Y-130868421D01*
X200196903Y-130567958D01*
X200377585Y-130297549D01*
X200607549Y-130067585D01*
X200877958Y-129886903D01*
X201178421Y-129762447D01*
X201284744Y-129741298D01*
X201497389Y-129699000D01*
X201822611Y-129699000D01*
X202035256Y-129741298D01*
X202035256Y-129741298D01*
G37*
G36*
X116535256Y-129741298D02*
G01*
X116641579Y-129762447D01*
X116942042Y-129886903D01*
X117212451Y-130067585D01*
X117442415Y-130297549D01*
X117623097Y-130567958D01*
X117747553Y-130868421D01*
X117768702Y-130974744D01*
X117811000Y-131187389D01*
X117811000Y-131512611D01*
X117747553Y-131831578D01*
X117638626Y-132094553D01*
X117623097Y-132132042D01*
X117442415Y-132402451D01*
X117212451Y-132632415D01*
X116942042Y-132813097D01*
X116942041Y-132813098D01*
X116942040Y-132813098D01*
X116854037Y-132849550D01*
X116641579Y-132937553D01*
X116542701Y-132957221D01*
X116322611Y-133001000D01*
X115997389Y-133001000D01*
X115777299Y-132957221D01*
X115678421Y-132937553D01*
X115465963Y-132849550D01*
X115377960Y-132813098D01*
X115377959Y-132813098D01*
X115377958Y-132813097D01*
X115107549Y-132632415D01*
X114877585Y-132402451D01*
X114696903Y-132132042D01*
X114681375Y-132094553D01*
X114572447Y-131831578D01*
X114509000Y-131512611D01*
X114509000Y-131187389D01*
X114551298Y-130974744D01*
X114572447Y-130868421D01*
X114696903Y-130567958D01*
X114877585Y-130297549D01*
X115107549Y-130067585D01*
X115377958Y-129886903D01*
X115678421Y-129762447D01*
X115784744Y-129741298D01*
X115997389Y-129699000D01*
X116322611Y-129699000D01*
X116535256Y-129741298D01*
X116535256Y-129741298D01*
G37*
G36*
X145035256Y-129741298D02*
G01*
X145141579Y-129762447D01*
X145442042Y-129886903D01*
X145712451Y-130067585D01*
X145942415Y-130297549D01*
X146123097Y-130567958D01*
X146247553Y-130868421D01*
X146268702Y-130974744D01*
X146311000Y-131187389D01*
X146311000Y-131512611D01*
X146247553Y-131831578D01*
X146138626Y-132094553D01*
X146123097Y-132132042D01*
X145942415Y-132402451D01*
X145712451Y-132632415D01*
X145442042Y-132813097D01*
X145442041Y-132813098D01*
X145442040Y-132813098D01*
X145354037Y-132849550D01*
X145141579Y-132937553D01*
X145042701Y-132957221D01*
X144822611Y-133001000D01*
X144497389Y-133001000D01*
X144277299Y-132957221D01*
X144178421Y-132937553D01*
X143965963Y-132849550D01*
X143877960Y-132813098D01*
X143877959Y-132813098D01*
X143877958Y-132813097D01*
X143607549Y-132632415D01*
X143377585Y-132402451D01*
X143196903Y-132132042D01*
X143181375Y-132094553D01*
X143072447Y-131831578D01*
X143009000Y-131512611D01*
X143009000Y-131187389D01*
X143051298Y-130974744D01*
X143072447Y-130868421D01*
X143196903Y-130567958D01*
X143377585Y-130297549D01*
X143607549Y-130067585D01*
X143877958Y-129886903D01*
X144178421Y-129762447D01*
X144284744Y-129741298D01*
X144497389Y-129699000D01*
X144822611Y-129699000D01*
X145035256Y-129741298D01*
X145035256Y-129741298D01*
G37*
G36*
X105105256Y-129741298D02*
G01*
X105211579Y-129762447D01*
X105512042Y-129886903D01*
X105782451Y-130067585D01*
X106012415Y-130297549D01*
X106193097Y-130567958D01*
X106317553Y-130868421D01*
X106338702Y-130974744D01*
X106381000Y-131187389D01*
X106381000Y-131512611D01*
X106317553Y-131831578D01*
X106208626Y-132094553D01*
X106193097Y-132132042D01*
X106012415Y-132402451D01*
X105782451Y-132632415D01*
X105512042Y-132813097D01*
X105512041Y-132813098D01*
X105512040Y-132813098D01*
X105424037Y-132849550D01*
X105211579Y-132937553D01*
X105112701Y-132957221D01*
X104892611Y-133001000D01*
X104567389Y-133001000D01*
X104347299Y-132957221D01*
X104248421Y-132937553D01*
X104035963Y-132849550D01*
X103947960Y-132813098D01*
X103947959Y-132813098D01*
X103947958Y-132813097D01*
X103677549Y-132632415D01*
X103447585Y-132402451D01*
X103266903Y-132132042D01*
X103251375Y-132094553D01*
X103142447Y-131831578D01*
X103079000Y-131512611D01*
X103079000Y-131187389D01*
X103121298Y-130974744D01*
X103142447Y-130868421D01*
X103266903Y-130567958D01*
X103447585Y-130297549D01*
X103677549Y-130067585D01*
X103947958Y-129886903D01*
X104248421Y-129762447D01*
X104354744Y-129741298D01*
X104567389Y-129699000D01*
X104892611Y-129699000D01*
X105105256Y-129741298D01*
X105105256Y-129741298D01*
G37*
G36*
X133605256Y-129741298D02*
G01*
X133711579Y-129762447D01*
X134012042Y-129886903D01*
X134282451Y-130067585D01*
X134512415Y-130297549D01*
X134693097Y-130567958D01*
X134817553Y-130868421D01*
X134838702Y-130974744D01*
X134881000Y-131187389D01*
X134881000Y-131512611D01*
X134817553Y-131831578D01*
X134708626Y-132094553D01*
X134693097Y-132132042D01*
X134512415Y-132402451D01*
X134282451Y-132632415D01*
X134012042Y-132813097D01*
X134012041Y-132813098D01*
X134012040Y-132813098D01*
X133924037Y-132849550D01*
X133711579Y-132937553D01*
X133612701Y-132957221D01*
X133392611Y-133001000D01*
X133067389Y-133001000D01*
X132847299Y-132957221D01*
X132748421Y-132937553D01*
X132535963Y-132849550D01*
X132447960Y-132813098D01*
X132447959Y-132813098D01*
X132447958Y-132813097D01*
X132177549Y-132632415D01*
X131947585Y-132402451D01*
X131766903Y-132132042D01*
X131751375Y-132094553D01*
X131642447Y-131831578D01*
X131579000Y-131512611D01*
X131579000Y-131187389D01*
X131621298Y-130974744D01*
X131642447Y-130868421D01*
X131766903Y-130567958D01*
X131947585Y-130297549D01*
X132177549Y-130067585D01*
X132447958Y-129886903D01*
X132748421Y-129762447D01*
X132854744Y-129741298D01*
X133067389Y-129699000D01*
X133392611Y-129699000D01*
X133605256Y-129741298D01*
X133605256Y-129741298D01*
G37*
G36*
X93286425Y-130362760D02*
G01*
X93286428Y-130362761D01*
X93286429Y-130362761D01*
X93465693Y-130417140D01*
X93465696Y-130417142D01*
X93465697Y-130417142D01*
X93630903Y-130505446D01*
X93775712Y-130624288D01*
X93894554Y-130769097D01*
X93947644Y-130868422D01*
X93982860Y-130934307D01*
X94037239Y-131113571D01*
X94037240Y-131113575D01*
X94055601Y-131300000D01*
X94037240Y-131486425D01*
X94037239Y-131486428D01*
X94037239Y-131486429D01*
X93982860Y-131665693D01*
X93982858Y-131665696D01*
X93982858Y-131665697D01*
X93894554Y-131830903D01*
X93775712Y-131975712D01*
X93630903Y-132094554D01*
X93465697Y-132182858D01*
X93465693Y-132182860D01*
X93286429Y-132237239D01*
X93286428Y-132237239D01*
X93286425Y-132237240D01*
X93146718Y-132251000D01*
X90853282Y-132251000D01*
X90713575Y-132237240D01*
X90713572Y-132237239D01*
X90713571Y-132237239D01*
X90534307Y-132182860D01*
X90534303Y-132182858D01*
X90369097Y-132094554D01*
X90224288Y-131975712D01*
X90105446Y-131830903D01*
X90017142Y-131665697D01*
X90017142Y-131665696D01*
X90017140Y-131665693D01*
X89962761Y-131486429D01*
X89962761Y-131486428D01*
X89962760Y-131486425D01*
X89944399Y-131300000D01*
X89962760Y-131113575D01*
X89962761Y-131113571D01*
X90017140Y-130934307D01*
X90052356Y-130868422D01*
X90105446Y-130769097D01*
X90224288Y-130624288D01*
X90369097Y-130505446D01*
X90534303Y-130417142D01*
X90534304Y-130417142D01*
X90534307Y-130417140D01*
X90713571Y-130362761D01*
X90713572Y-130362761D01*
X90713575Y-130362760D01*
X90853282Y-130349000D01*
X93146718Y-130349000D01*
X93286425Y-130362760D01*
X93286425Y-130362760D01*
G37*
G36*
X51036425Y-130362760D02*
G01*
X51036428Y-130362761D01*
X51036429Y-130362761D01*
X51215693Y-130417140D01*
X51215696Y-130417142D01*
X51215697Y-130417142D01*
X51380903Y-130505446D01*
X51525712Y-130624288D01*
X51644554Y-130769097D01*
X51697644Y-130868422D01*
X51732860Y-130934307D01*
X51787239Y-131113571D01*
X51787240Y-131113575D01*
X51805601Y-131300000D01*
X51787240Y-131486425D01*
X51787239Y-131486428D01*
X51787239Y-131486429D01*
X51732860Y-131665693D01*
X51732858Y-131665696D01*
X51732858Y-131665697D01*
X51644554Y-131830903D01*
X51525712Y-131975712D01*
X51380903Y-132094554D01*
X51215697Y-132182858D01*
X51215693Y-132182860D01*
X51036429Y-132237239D01*
X51036428Y-132237239D01*
X51036425Y-132237240D01*
X50896718Y-132251000D01*
X48603282Y-132251000D01*
X48463575Y-132237240D01*
X48463572Y-132237239D01*
X48463571Y-132237239D01*
X48284307Y-132182860D01*
X48284303Y-132182858D01*
X48119097Y-132094554D01*
X47974288Y-131975712D01*
X47855446Y-131830903D01*
X47767142Y-131665697D01*
X47767142Y-131665696D01*
X47767140Y-131665693D01*
X47712761Y-131486429D01*
X47712761Y-131486428D01*
X47712760Y-131486425D01*
X47694399Y-131300000D01*
X47712760Y-131113575D01*
X47712761Y-131113571D01*
X47767140Y-130934307D01*
X47802356Y-130868422D01*
X47855446Y-130769097D01*
X47974288Y-130624288D01*
X48119097Y-130505446D01*
X48284303Y-130417142D01*
X48284304Y-130417142D01*
X48284307Y-130417140D01*
X48463571Y-130362761D01*
X48463572Y-130362761D01*
X48463575Y-130362760D01*
X48603282Y-130349000D01*
X50896718Y-130349000D01*
X51036425Y-130362760D01*
X51036425Y-130362760D01*
G37*
G36*
X65286425Y-130362760D02*
G01*
X65286428Y-130362761D01*
X65286429Y-130362761D01*
X65465693Y-130417140D01*
X65465696Y-130417142D01*
X65465697Y-130417142D01*
X65630903Y-130505446D01*
X65775712Y-130624288D01*
X65894554Y-130769097D01*
X65947644Y-130868422D01*
X65982860Y-130934307D01*
X66037239Y-131113571D01*
X66037240Y-131113575D01*
X66055601Y-131300000D01*
X66037240Y-131486425D01*
X66037239Y-131486428D01*
X66037239Y-131486429D01*
X65982860Y-131665693D01*
X65982858Y-131665696D01*
X65982858Y-131665697D01*
X65894554Y-131830903D01*
X65775712Y-131975712D01*
X65630903Y-132094554D01*
X65465697Y-132182858D01*
X65465693Y-132182860D01*
X65286429Y-132237239D01*
X65286428Y-132237239D01*
X65286425Y-132237240D01*
X65146718Y-132251000D01*
X62853282Y-132251000D01*
X62713575Y-132237240D01*
X62713572Y-132237239D01*
X62713571Y-132237239D01*
X62534307Y-132182860D01*
X62534303Y-132182858D01*
X62369097Y-132094554D01*
X62224288Y-131975712D01*
X62105446Y-131830903D01*
X62017142Y-131665697D01*
X62017142Y-131665696D01*
X62017140Y-131665693D01*
X61962761Y-131486429D01*
X61962761Y-131486428D01*
X61962760Y-131486425D01*
X61944399Y-131300000D01*
X61962760Y-131113575D01*
X61962761Y-131113571D01*
X62017140Y-130934307D01*
X62052356Y-130868422D01*
X62105446Y-130769097D01*
X62224288Y-130624288D01*
X62369097Y-130505446D01*
X62534303Y-130417142D01*
X62534304Y-130417142D01*
X62534307Y-130417140D01*
X62713571Y-130362761D01*
X62713572Y-130362761D01*
X62713575Y-130362760D01*
X62853282Y-130349000D01*
X65146718Y-130349000D01*
X65286425Y-130362760D01*
X65286425Y-130362760D01*
G37*
G36*
X79286425Y-130362760D02*
G01*
X79286428Y-130362761D01*
X79286429Y-130362761D01*
X79465693Y-130417140D01*
X79465696Y-130417142D01*
X79465697Y-130417142D01*
X79630903Y-130505446D01*
X79775712Y-130624288D01*
X79894554Y-130769097D01*
X79947644Y-130868422D01*
X79982860Y-130934307D01*
X80037239Y-131113571D01*
X80037240Y-131113575D01*
X80055601Y-131300000D01*
X80037240Y-131486425D01*
X80037239Y-131486428D01*
X80037239Y-131486429D01*
X79982860Y-131665693D01*
X79982858Y-131665696D01*
X79982858Y-131665697D01*
X79894554Y-131830903D01*
X79775712Y-131975712D01*
X79630903Y-132094554D01*
X79465697Y-132182858D01*
X79465693Y-132182860D01*
X79286429Y-132237239D01*
X79286428Y-132237239D01*
X79286425Y-132237240D01*
X79146718Y-132251000D01*
X76853282Y-132251000D01*
X76713575Y-132237240D01*
X76713572Y-132237239D01*
X76713571Y-132237239D01*
X76534307Y-132182860D01*
X76534303Y-132182858D01*
X76369097Y-132094554D01*
X76224288Y-131975712D01*
X76105446Y-131830903D01*
X76017142Y-131665697D01*
X76017142Y-131665696D01*
X76017140Y-131665693D01*
X75962761Y-131486429D01*
X75962761Y-131486428D01*
X75962760Y-131486425D01*
X75944399Y-131300000D01*
X75962760Y-131113575D01*
X75962761Y-131113571D01*
X76017140Y-130934307D01*
X76052356Y-130868422D01*
X76105446Y-130769097D01*
X76224288Y-130624288D01*
X76369097Y-130505446D01*
X76534303Y-130417142D01*
X76534304Y-130417142D01*
X76534307Y-130417140D01*
X76713571Y-130362761D01*
X76713572Y-130362761D01*
X76713575Y-130362760D01*
X76853282Y-130349000D01*
X79146718Y-130349000D01*
X79286425Y-130362760D01*
X79286425Y-130362760D01*
G37*
G36*
X54736424Y-126462760D02*
G01*
X54736427Y-126462761D01*
X54736428Y-126462761D01*
X54915692Y-126517140D01*
X54915695Y-126517142D01*
X54915696Y-126517142D01*
X55080903Y-126605446D01*
X55225712Y-126724288D01*
X55344554Y-126869097D01*
X55432858Y-127034303D01*
X55432860Y-127034307D01*
X55432860Y-127034308D01*
X55487240Y-127213575D01*
X55501000Y-127353282D01*
X55501000Y-129646718D01*
X55487240Y-129786425D01*
X55487239Y-129786428D01*
X55487239Y-129786429D01*
X55432860Y-129965693D01*
X55432858Y-129965696D01*
X55432858Y-129965697D01*
X55344554Y-130130903D01*
X55225712Y-130275712D01*
X55080903Y-130394554D01*
X54915697Y-130482858D01*
X54915693Y-130482860D01*
X54736429Y-130537239D01*
X54736428Y-130537239D01*
X54736425Y-130537240D01*
X54550000Y-130555601D01*
X54363576Y-130537240D01*
X54363573Y-130537239D01*
X54363572Y-130537239D01*
X54184308Y-130482860D01*
X54184304Y-130482858D01*
X54019098Y-130394554D01*
X53874289Y-130275712D01*
X53755447Y-130130903D01*
X53667143Y-129965697D01*
X53667143Y-129965696D01*
X53667141Y-129965693D01*
X53612762Y-129786429D01*
X53612762Y-129786428D01*
X53612761Y-129786425D01*
X53599001Y-129646718D01*
X53599000Y-127353283D01*
X53612760Y-127213576D01*
X53612761Y-127213572D01*
X53667140Y-127034308D01*
X53667143Y-127034303D01*
X53755446Y-126869097D01*
X53874288Y-126724288D01*
X54019097Y-126605446D01*
X54184303Y-126517142D01*
X54184304Y-126517142D01*
X54184307Y-126517140D01*
X54363571Y-126462761D01*
X54363572Y-126462761D01*
X54363575Y-126462760D01*
X54550000Y-126444399D01*
X54736424Y-126462760D01*
X54736424Y-126462760D01*
G37*
G36*
X68986424Y-126462760D02*
G01*
X68986427Y-126462761D01*
X68986428Y-126462761D01*
X69165692Y-126517140D01*
X69165695Y-126517142D01*
X69165696Y-126517142D01*
X69330903Y-126605446D01*
X69475712Y-126724288D01*
X69594554Y-126869097D01*
X69682858Y-127034303D01*
X69682860Y-127034307D01*
X69682860Y-127034308D01*
X69737240Y-127213575D01*
X69751000Y-127353282D01*
X69751000Y-129646718D01*
X69737240Y-129786425D01*
X69737239Y-129786428D01*
X69737239Y-129786429D01*
X69682860Y-129965693D01*
X69682858Y-129965696D01*
X69682858Y-129965697D01*
X69594554Y-130130903D01*
X69475712Y-130275712D01*
X69330903Y-130394554D01*
X69165697Y-130482858D01*
X69165693Y-130482860D01*
X68986429Y-130537239D01*
X68986428Y-130537239D01*
X68986425Y-130537240D01*
X68800000Y-130555601D01*
X68613576Y-130537240D01*
X68613573Y-130537239D01*
X68613572Y-130537239D01*
X68434308Y-130482860D01*
X68434304Y-130482858D01*
X68269098Y-130394554D01*
X68124289Y-130275712D01*
X68005447Y-130130903D01*
X67917143Y-129965697D01*
X67917143Y-129965696D01*
X67917141Y-129965693D01*
X67862762Y-129786429D01*
X67862762Y-129786428D01*
X67862761Y-129786425D01*
X67849001Y-129646718D01*
X67849000Y-127353283D01*
X67862760Y-127213576D01*
X67862761Y-127213572D01*
X67917140Y-127034308D01*
X67917143Y-127034303D01*
X68005446Y-126869097D01*
X68124288Y-126724288D01*
X68269097Y-126605446D01*
X68434303Y-126517142D01*
X68434304Y-126517142D01*
X68434307Y-126517140D01*
X68613571Y-126462761D01*
X68613572Y-126462761D01*
X68613575Y-126462760D01*
X68800000Y-126444399D01*
X68986424Y-126462760D01*
X68986424Y-126462760D01*
G37*
G36*
X96986424Y-126462760D02*
G01*
X96986427Y-126462761D01*
X96986428Y-126462761D01*
X97165692Y-126517140D01*
X97165695Y-126517142D01*
X97165696Y-126517142D01*
X97330903Y-126605446D01*
X97475712Y-126724288D01*
X97594554Y-126869097D01*
X97682858Y-127034303D01*
X97682860Y-127034307D01*
X97682860Y-127034308D01*
X97737240Y-127213575D01*
X97751000Y-127353282D01*
X97751000Y-129646718D01*
X97737240Y-129786425D01*
X97737239Y-129786428D01*
X97737239Y-129786429D01*
X97682860Y-129965693D01*
X97682858Y-129965696D01*
X97682858Y-129965697D01*
X97594554Y-130130903D01*
X97475712Y-130275712D01*
X97330903Y-130394554D01*
X97165697Y-130482858D01*
X97165693Y-130482860D01*
X96986429Y-130537239D01*
X96986428Y-130537239D01*
X96986425Y-130537240D01*
X96800000Y-130555601D01*
X96613576Y-130537240D01*
X96613573Y-130537239D01*
X96613572Y-130537239D01*
X96434308Y-130482860D01*
X96434304Y-130482858D01*
X96269098Y-130394554D01*
X96124289Y-130275712D01*
X96005447Y-130130903D01*
X95917143Y-129965697D01*
X95917143Y-129965696D01*
X95917141Y-129965693D01*
X95862762Y-129786429D01*
X95862762Y-129786428D01*
X95862761Y-129786425D01*
X95849001Y-129646718D01*
X95849000Y-127353283D01*
X95862760Y-127213576D01*
X95862761Y-127213572D01*
X95917140Y-127034308D01*
X95917143Y-127034303D01*
X96005446Y-126869097D01*
X96124288Y-126724288D01*
X96269097Y-126605446D01*
X96434303Y-126517142D01*
X96434304Y-126517142D01*
X96434307Y-126517140D01*
X96613571Y-126462761D01*
X96613572Y-126462761D01*
X96613575Y-126462760D01*
X96800000Y-126444399D01*
X96986424Y-126462760D01*
X96986424Y-126462760D01*
G37*
G36*
X82986424Y-126462760D02*
G01*
X82986427Y-126462761D01*
X82986428Y-126462761D01*
X83165692Y-126517140D01*
X83165695Y-126517142D01*
X83165696Y-126517142D01*
X83330903Y-126605446D01*
X83475712Y-126724288D01*
X83594554Y-126869097D01*
X83682858Y-127034303D01*
X83682860Y-127034307D01*
X83682860Y-127034308D01*
X83737240Y-127213575D01*
X83751000Y-127353282D01*
X83751000Y-129646718D01*
X83737240Y-129786425D01*
X83737239Y-129786428D01*
X83737239Y-129786429D01*
X83682860Y-129965693D01*
X83682858Y-129965696D01*
X83682858Y-129965697D01*
X83594554Y-130130903D01*
X83475712Y-130275712D01*
X83330903Y-130394554D01*
X83165697Y-130482858D01*
X83165693Y-130482860D01*
X82986429Y-130537239D01*
X82986428Y-130537239D01*
X82986425Y-130537240D01*
X82800000Y-130555601D01*
X82613576Y-130537240D01*
X82613573Y-130537239D01*
X82613572Y-130537239D01*
X82434308Y-130482860D01*
X82434304Y-130482858D01*
X82269098Y-130394554D01*
X82124289Y-130275712D01*
X82005447Y-130130903D01*
X81917143Y-129965697D01*
X81917143Y-129965696D01*
X81917141Y-129965693D01*
X81862762Y-129786429D01*
X81862762Y-129786428D01*
X81862761Y-129786425D01*
X81849001Y-129646718D01*
X81849000Y-127353283D01*
X81862760Y-127213576D01*
X81862761Y-127213572D01*
X81917140Y-127034308D01*
X81917143Y-127034303D01*
X82005446Y-126869097D01*
X82124288Y-126724288D01*
X82269097Y-126605446D01*
X82434303Y-126517142D01*
X82434304Y-126517142D01*
X82434307Y-126517140D01*
X82613571Y-126462761D01*
X82613572Y-126462761D01*
X82613575Y-126462760D01*
X82800000Y-126444399D01*
X82986424Y-126462760D01*
X82986424Y-126462760D01*
G37*
G36*
X80251000Y-126451000D02*
G01*
X75749000Y-126451000D01*
X75749000Y-124549000D01*
X80251000Y-124549000D01*
X80251000Y-126451000D01*
X80251000Y-126451000D01*
G37*
G36*
X94251000Y-126451000D02*
G01*
X89749000Y-126451000D01*
X89749000Y-124549000D01*
X94251000Y-124549000D01*
X94251000Y-126451000D01*
X94251000Y-126451000D01*
G37*
G36*
X66251000Y-126451000D02*
G01*
X61749000Y-126451000D01*
X61749000Y-124549000D01*
X66251000Y-124549000D01*
X66251000Y-126451000D01*
X66251000Y-126451000D01*
G37*
G36*
X52001000Y-126451000D02*
G01*
X47499000Y-126451000D01*
X47499000Y-124549000D01*
X52001000Y-124549000D01*
X52001000Y-126451000D01*
X52001000Y-126451000D01*
G37*
G36*
X168313642Y-124229781D02*
G01*
X168459414Y-124290162D01*
X168459416Y-124290163D01*
X168590608Y-124377822D01*
X168702178Y-124489392D01*
X168742006Y-124549000D01*
X168789838Y-124620586D01*
X168850219Y-124766358D01*
X168881000Y-124921107D01*
X168881000Y-125078893D01*
X168850219Y-125233642D01*
X168789838Y-125379414D01*
X168789837Y-125379416D01*
X168702178Y-125510608D01*
X168590608Y-125622178D01*
X168459416Y-125709837D01*
X168459415Y-125709838D01*
X168459414Y-125709838D01*
X168313642Y-125770219D01*
X168158893Y-125801000D01*
X168001107Y-125801000D01*
X167846358Y-125770219D01*
X167700586Y-125709838D01*
X167700585Y-125709838D01*
X167700584Y-125709837D01*
X167569392Y-125622178D01*
X167457822Y-125510608D01*
X167370163Y-125379416D01*
X167370162Y-125379414D01*
X167309781Y-125233642D01*
X167279000Y-125078893D01*
X167279000Y-124921107D01*
X167309781Y-124766358D01*
X167370162Y-124620586D01*
X167417994Y-124549000D01*
X167457822Y-124489392D01*
X167569392Y-124377822D01*
X167700584Y-124290163D01*
X167700586Y-124290162D01*
X167846358Y-124229781D01*
X168001107Y-124199000D01*
X168158893Y-124199000D01*
X168313642Y-124229781D01*
X168313642Y-124229781D01*
G37*
G36*
X165773642Y-124229781D02*
G01*
X165919414Y-124290162D01*
X165919416Y-124290163D01*
X166050608Y-124377822D01*
X166162178Y-124489392D01*
X166202006Y-124549000D01*
X166249838Y-124620586D01*
X166310219Y-124766358D01*
X166341000Y-124921107D01*
X166341000Y-125078893D01*
X166310219Y-125233642D01*
X166249838Y-125379414D01*
X166249837Y-125379416D01*
X166162178Y-125510608D01*
X166050608Y-125622178D01*
X165919416Y-125709837D01*
X165919415Y-125709838D01*
X165919414Y-125709838D01*
X165773642Y-125770219D01*
X165618893Y-125801000D01*
X165461107Y-125801000D01*
X165306358Y-125770219D01*
X165160586Y-125709838D01*
X165160585Y-125709838D01*
X165160584Y-125709837D01*
X165029392Y-125622178D01*
X164917822Y-125510608D01*
X164830163Y-125379416D01*
X164830162Y-125379414D01*
X164769781Y-125233642D01*
X164739000Y-125078893D01*
X164739000Y-124921107D01*
X164769781Y-124766358D01*
X164830162Y-124620586D01*
X164877994Y-124549000D01*
X164917822Y-124489392D01*
X165029392Y-124377822D01*
X165160584Y-124290163D01*
X165160586Y-124290162D01*
X165306358Y-124229781D01*
X165461107Y-124199000D01*
X165618893Y-124199000D01*
X165773642Y-124229781D01*
X165773642Y-124229781D01*
G37*
G36*
X106801000Y-125801000D02*
G01*
X105199000Y-125801000D01*
X105199000Y-124199000D01*
X106801000Y-124199000D01*
X106801000Y-125801000D01*
X106801000Y-125801000D01*
G37*
G36*
X163801000Y-125801000D02*
G01*
X162199000Y-125801000D01*
X162199000Y-124199000D01*
X163801000Y-124199000D01*
X163801000Y-125801000D01*
X163801000Y-125801000D01*
G37*
G36*
X142353642Y-124229781D02*
G01*
X142499414Y-124290162D01*
X142499416Y-124290163D01*
X142630608Y-124377822D01*
X142742178Y-124489392D01*
X142782006Y-124549000D01*
X142829838Y-124620586D01*
X142890219Y-124766358D01*
X142921000Y-124921107D01*
X142921000Y-125078893D01*
X142890219Y-125233642D01*
X142829838Y-125379414D01*
X142829837Y-125379416D01*
X142742178Y-125510608D01*
X142630608Y-125622178D01*
X142499416Y-125709837D01*
X142499415Y-125709838D01*
X142499414Y-125709838D01*
X142353642Y-125770219D01*
X142198893Y-125801000D01*
X142041107Y-125801000D01*
X141886358Y-125770219D01*
X141740586Y-125709838D01*
X141740585Y-125709838D01*
X141740584Y-125709837D01*
X141609392Y-125622178D01*
X141497822Y-125510608D01*
X141410163Y-125379416D01*
X141410162Y-125379414D01*
X141349781Y-125233642D01*
X141319000Y-125078893D01*
X141319000Y-124921107D01*
X141349781Y-124766358D01*
X141410162Y-124620586D01*
X141457994Y-124549000D01*
X141497822Y-124489392D01*
X141609392Y-124377822D01*
X141740584Y-124290163D01*
X141740586Y-124290162D01*
X141886358Y-124229781D01*
X142041107Y-124199000D01*
X142198893Y-124199000D01*
X142353642Y-124229781D01*
X142353642Y-124229781D01*
G37*
G36*
X111313642Y-124229781D02*
G01*
X111459414Y-124290162D01*
X111459416Y-124290163D01*
X111590608Y-124377822D01*
X111702178Y-124489392D01*
X111742006Y-124549000D01*
X111789838Y-124620586D01*
X111850219Y-124766358D01*
X111881000Y-124921107D01*
X111881000Y-125078893D01*
X111850219Y-125233642D01*
X111789838Y-125379414D01*
X111789837Y-125379416D01*
X111702178Y-125510608D01*
X111590608Y-125622178D01*
X111459416Y-125709837D01*
X111459415Y-125709838D01*
X111459414Y-125709838D01*
X111313642Y-125770219D01*
X111158893Y-125801000D01*
X111001107Y-125801000D01*
X110846358Y-125770219D01*
X110700586Y-125709838D01*
X110700585Y-125709838D01*
X110700584Y-125709837D01*
X110569392Y-125622178D01*
X110457822Y-125510608D01*
X110370163Y-125379416D01*
X110370162Y-125379414D01*
X110309781Y-125233642D01*
X110279000Y-125078893D01*
X110279000Y-124921107D01*
X110309781Y-124766358D01*
X110370162Y-124620586D01*
X110417994Y-124549000D01*
X110457822Y-124489392D01*
X110569392Y-124377822D01*
X110700584Y-124290163D01*
X110700586Y-124290162D01*
X110846358Y-124229781D01*
X111001107Y-124199000D01*
X111158893Y-124199000D01*
X111313642Y-124229781D01*
X111313642Y-124229781D01*
G37*
G36*
X113853642Y-124229781D02*
G01*
X113999414Y-124290162D01*
X113999416Y-124290163D01*
X114130608Y-124377822D01*
X114242178Y-124489392D01*
X114282006Y-124549000D01*
X114329838Y-124620586D01*
X114390219Y-124766358D01*
X114421000Y-124921107D01*
X114421000Y-125078893D01*
X114390219Y-125233642D01*
X114329838Y-125379414D01*
X114329837Y-125379416D01*
X114242178Y-125510608D01*
X114130608Y-125622178D01*
X113999416Y-125709837D01*
X113999415Y-125709838D01*
X113999414Y-125709838D01*
X113853642Y-125770219D01*
X113698893Y-125801000D01*
X113541107Y-125801000D01*
X113386358Y-125770219D01*
X113240586Y-125709838D01*
X113240585Y-125709838D01*
X113240584Y-125709837D01*
X113109392Y-125622178D01*
X112997822Y-125510608D01*
X112910163Y-125379416D01*
X112910162Y-125379414D01*
X112849781Y-125233642D01*
X112819000Y-125078893D01*
X112819000Y-124921107D01*
X112849781Y-124766358D01*
X112910162Y-124620586D01*
X112957994Y-124549000D01*
X112997822Y-124489392D01*
X113109392Y-124377822D01*
X113240584Y-124290163D01*
X113240586Y-124290162D01*
X113386358Y-124229781D01*
X113541107Y-124199000D01*
X113698893Y-124199000D01*
X113853642Y-124229781D01*
X113853642Y-124229781D01*
G37*
G36*
X194273642Y-124229781D02*
G01*
X194419414Y-124290162D01*
X194419416Y-124290163D01*
X194550608Y-124377822D01*
X194662178Y-124489392D01*
X194702006Y-124549000D01*
X194749838Y-124620586D01*
X194810219Y-124766358D01*
X194841000Y-124921107D01*
X194841000Y-125078893D01*
X194810219Y-125233642D01*
X194749838Y-125379414D01*
X194749837Y-125379416D01*
X194662178Y-125510608D01*
X194550608Y-125622178D01*
X194419416Y-125709837D01*
X194419415Y-125709838D01*
X194419414Y-125709838D01*
X194273642Y-125770219D01*
X194118893Y-125801000D01*
X193961107Y-125801000D01*
X193806358Y-125770219D01*
X193660586Y-125709838D01*
X193660585Y-125709838D01*
X193660584Y-125709837D01*
X193529392Y-125622178D01*
X193417822Y-125510608D01*
X193330163Y-125379416D01*
X193330162Y-125379414D01*
X193269781Y-125233642D01*
X193239000Y-125078893D01*
X193239000Y-124921107D01*
X193269781Y-124766358D01*
X193330162Y-124620586D01*
X193377994Y-124549000D01*
X193417822Y-124489392D01*
X193529392Y-124377822D01*
X193660584Y-124290163D01*
X193660586Y-124290162D01*
X193806358Y-124229781D01*
X193961107Y-124199000D01*
X194118893Y-124199000D01*
X194273642Y-124229781D01*
X194273642Y-124229781D01*
G37*
G36*
X137273642Y-124229781D02*
G01*
X137419414Y-124290162D01*
X137419416Y-124290163D01*
X137550608Y-124377822D01*
X137662178Y-124489392D01*
X137702006Y-124549000D01*
X137749838Y-124620586D01*
X137810219Y-124766358D01*
X137841000Y-124921107D01*
X137841000Y-125078893D01*
X137810219Y-125233642D01*
X137749838Y-125379414D01*
X137749837Y-125379416D01*
X137662178Y-125510608D01*
X137550608Y-125622178D01*
X137419416Y-125709837D01*
X137419415Y-125709838D01*
X137419414Y-125709838D01*
X137273642Y-125770219D01*
X137118893Y-125801000D01*
X136961107Y-125801000D01*
X136806358Y-125770219D01*
X136660586Y-125709838D01*
X136660585Y-125709838D01*
X136660584Y-125709837D01*
X136529392Y-125622178D01*
X136417822Y-125510608D01*
X136330163Y-125379416D01*
X136330162Y-125379414D01*
X136269781Y-125233642D01*
X136239000Y-125078893D01*
X136239000Y-124921107D01*
X136269781Y-124766358D01*
X136330162Y-124620586D01*
X136377994Y-124549000D01*
X136417822Y-124489392D01*
X136529392Y-124377822D01*
X136660584Y-124290163D01*
X136660586Y-124290162D01*
X136806358Y-124229781D01*
X136961107Y-124199000D01*
X137118893Y-124199000D01*
X137273642Y-124229781D01*
X137273642Y-124229781D01*
G37*
G36*
X139813642Y-124229781D02*
G01*
X139959414Y-124290162D01*
X139959416Y-124290163D01*
X140090608Y-124377822D01*
X140202178Y-124489392D01*
X140242006Y-124549000D01*
X140289838Y-124620586D01*
X140350219Y-124766358D01*
X140381000Y-124921107D01*
X140381000Y-125078893D01*
X140350219Y-125233642D01*
X140289838Y-125379414D01*
X140289837Y-125379416D01*
X140202178Y-125510608D01*
X140090608Y-125622178D01*
X139959416Y-125709837D01*
X139959415Y-125709838D01*
X139959414Y-125709838D01*
X139813642Y-125770219D01*
X139658893Y-125801000D01*
X139501107Y-125801000D01*
X139346358Y-125770219D01*
X139200586Y-125709838D01*
X139200585Y-125709838D01*
X139200584Y-125709837D01*
X139069392Y-125622178D01*
X138957822Y-125510608D01*
X138870163Y-125379416D01*
X138870162Y-125379414D01*
X138809781Y-125233642D01*
X138779000Y-125078893D01*
X138779000Y-124921107D01*
X138809781Y-124766358D01*
X138870162Y-124620586D01*
X138917994Y-124549000D01*
X138957822Y-124489392D01*
X139069392Y-124377822D01*
X139200584Y-124290163D01*
X139200586Y-124290162D01*
X139346358Y-124229781D01*
X139501107Y-124199000D01*
X139658893Y-124199000D01*
X139813642Y-124229781D01*
X139813642Y-124229781D01*
G37*
G36*
X192301000Y-125801000D02*
G01*
X190699000Y-125801000D01*
X190699000Y-124199000D01*
X192301000Y-124199000D01*
X192301000Y-125801000D01*
X192301000Y-125801000D01*
G37*
G36*
X196813642Y-124229781D02*
G01*
X196959414Y-124290162D01*
X196959416Y-124290163D01*
X197090608Y-124377822D01*
X197202178Y-124489392D01*
X197242006Y-124549000D01*
X197289838Y-124620586D01*
X197350219Y-124766358D01*
X197381000Y-124921107D01*
X197381000Y-125078893D01*
X197350219Y-125233642D01*
X197289838Y-125379414D01*
X197289837Y-125379416D01*
X197202178Y-125510608D01*
X197090608Y-125622178D01*
X196959416Y-125709837D01*
X196959415Y-125709838D01*
X196959414Y-125709838D01*
X196813642Y-125770219D01*
X196658893Y-125801000D01*
X196501107Y-125801000D01*
X196346358Y-125770219D01*
X196200586Y-125709838D01*
X196200585Y-125709838D01*
X196200584Y-125709837D01*
X196069392Y-125622178D01*
X195957822Y-125510608D01*
X195870163Y-125379416D01*
X195870162Y-125379414D01*
X195809781Y-125233642D01*
X195779000Y-125078893D01*
X195779000Y-124921107D01*
X195809781Y-124766358D01*
X195870162Y-124620586D01*
X195917994Y-124549000D01*
X195957822Y-124489392D01*
X196069392Y-124377822D01*
X196200584Y-124290163D01*
X196200586Y-124290162D01*
X196346358Y-124229781D01*
X196501107Y-124199000D01*
X196658893Y-124199000D01*
X196813642Y-124229781D01*
X196813642Y-124229781D01*
G37*
G36*
X199353642Y-124229781D02*
G01*
X199499414Y-124290162D01*
X199499416Y-124290163D01*
X199630608Y-124377822D01*
X199742178Y-124489392D01*
X199782006Y-124549000D01*
X199829838Y-124620586D01*
X199890219Y-124766358D01*
X199921000Y-124921107D01*
X199921000Y-125078893D01*
X199890219Y-125233642D01*
X199829838Y-125379414D01*
X199829837Y-125379416D01*
X199742178Y-125510608D01*
X199630608Y-125622178D01*
X199499416Y-125709837D01*
X199499415Y-125709838D01*
X199499414Y-125709838D01*
X199353642Y-125770219D01*
X199198893Y-125801000D01*
X199041107Y-125801000D01*
X198886358Y-125770219D01*
X198740586Y-125709838D01*
X198740585Y-125709838D01*
X198740584Y-125709837D01*
X198609392Y-125622178D01*
X198497822Y-125510608D01*
X198410163Y-125379416D01*
X198410162Y-125379414D01*
X198349781Y-125233642D01*
X198319000Y-125078893D01*
X198319000Y-124921107D01*
X198349781Y-124766358D01*
X198410162Y-124620586D01*
X198457994Y-124549000D01*
X198497822Y-124489392D01*
X198609392Y-124377822D01*
X198740584Y-124290163D01*
X198740586Y-124290162D01*
X198886358Y-124229781D01*
X199041107Y-124199000D01*
X199198893Y-124199000D01*
X199353642Y-124229781D01*
X199353642Y-124229781D01*
G37*
G36*
X108773642Y-124229781D02*
G01*
X108919414Y-124290162D01*
X108919416Y-124290163D01*
X109050608Y-124377822D01*
X109162178Y-124489392D01*
X109202006Y-124549000D01*
X109249838Y-124620586D01*
X109310219Y-124766358D01*
X109341000Y-124921107D01*
X109341000Y-125078893D01*
X109310219Y-125233642D01*
X109249838Y-125379414D01*
X109249837Y-125379416D01*
X109162178Y-125510608D01*
X109050608Y-125622178D01*
X108919416Y-125709837D01*
X108919415Y-125709838D01*
X108919414Y-125709838D01*
X108773642Y-125770219D01*
X108618893Y-125801000D01*
X108461107Y-125801000D01*
X108306358Y-125770219D01*
X108160586Y-125709838D01*
X108160585Y-125709838D01*
X108160584Y-125709837D01*
X108029392Y-125622178D01*
X107917822Y-125510608D01*
X107830163Y-125379416D01*
X107830162Y-125379414D01*
X107769781Y-125233642D01*
X107739000Y-125078893D01*
X107739000Y-124921107D01*
X107769781Y-124766358D01*
X107830162Y-124620586D01*
X107877994Y-124549000D01*
X107917822Y-124489392D01*
X108029392Y-124377822D01*
X108160584Y-124290163D01*
X108160586Y-124290162D01*
X108306358Y-124229781D01*
X108461107Y-124199000D01*
X108618893Y-124199000D01*
X108773642Y-124229781D01*
X108773642Y-124229781D01*
G37*
G36*
X170853642Y-124229781D02*
G01*
X170999414Y-124290162D01*
X170999416Y-124290163D01*
X171130608Y-124377822D01*
X171242178Y-124489392D01*
X171282006Y-124549000D01*
X171329838Y-124620586D01*
X171390219Y-124766358D01*
X171421000Y-124921107D01*
X171421000Y-125078893D01*
X171390219Y-125233642D01*
X171329838Y-125379414D01*
X171329837Y-125379416D01*
X171242178Y-125510608D01*
X171130608Y-125622178D01*
X170999416Y-125709837D01*
X170999415Y-125709838D01*
X170999414Y-125709838D01*
X170853642Y-125770219D01*
X170698893Y-125801000D01*
X170541107Y-125801000D01*
X170386358Y-125770219D01*
X170240586Y-125709838D01*
X170240585Y-125709838D01*
X170240584Y-125709837D01*
X170109392Y-125622178D01*
X169997822Y-125510608D01*
X169910163Y-125379416D01*
X169910162Y-125379414D01*
X169849781Y-125233642D01*
X169819000Y-125078893D01*
X169819000Y-124921107D01*
X169849781Y-124766358D01*
X169910162Y-124620586D01*
X169957994Y-124549000D01*
X169997822Y-124489392D01*
X170109392Y-124377822D01*
X170240584Y-124290163D01*
X170240586Y-124290162D01*
X170386358Y-124229781D01*
X170541107Y-124199000D01*
X170698893Y-124199000D01*
X170853642Y-124229781D01*
X170853642Y-124229781D01*
G37*
G36*
X135301000Y-125801000D02*
G01*
X133699000Y-125801000D01*
X133699000Y-124199000D01*
X135301000Y-124199000D01*
X135301000Y-125801000D01*
X135301000Y-125801000D01*
G37*
G36*
X172123642Y-121689781D02*
G01*
X172269414Y-121750162D01*
X172269416Y-121750163D01*
X172400608Y-121837822D01*
X172512178Y-121949392D01*
X172599837Y-122080584D01*
X172599838Y-122080586D01*
X172660219Y-122226358D01*
X172691000Y-122381107D01*
X172691000Y-122538893D01*
X172660219Y-122693642D01*
X172657646Y-122699853D01*
X172599837Y-122839416D01*
X172512178Y-122970608D01*
X172400608Y-123082178D01*
X172269416Y-123169837D01*
X172269415Y-123169838D01*
X172269414Y-123169838D01*
X172123642Y-123230219D01*
X171968893Y-123261000D01*
X171811107Y-123261000D01*
X171656358Y-123230219D01*
X171510586Y-123169838D01*
X171510585Y-123169838D01*
X171510584Y-123169837D01*
X171379392Y-123082178D01*
X171267822Y-122970608D01*
X171180163Y-122839416D01*
X171122354Y-122699853D01*
X171119781Y-122693642D01*
X171089000Y-122538893D01*
X171089000Y-122381107D01*
X171119781Y-122226358D01*
X171180162Y-122080586D01*
X171180163Y-122080584D01*
X171267822Y-121949392D01*
X171379392Y-121837822D01*
X171510584Y-121750163D01*
X171510586Y-121750162D01*
X171656358Y-121689781D01*
X171811107Y-121659000D01*
X171968893Y-121659000D01*
X172123642Y-121689781D01*
X172123642Y-121689781D01*
G37*
G36*
X200623642Y-121689781D02*
G01*
X200769414Y-121750162D01*
X200769416Y-121750163D01*
X200900608Y-121837822D01*
X201012178Y-121949392D01*
X201099837Y-122080584D01*
X201099838Y-122080586D01*
X201160219Y-122226358D01*
X201191000Y-122381107D01*
X201191000Y-122538893D01*
X201160219Y-122693642D01*
X201157646Y-122699853D01*
X201099837Y-122839416D01*
X201012178Y-122970608D01*
X200900608Y-123082178D01*
X200769416Y-123169837D01*
X200769415Y-123169838D01*
X200769414Y-123169838D01*
X200623642Y-123230219D01*
X200468893Y-123261000D01*
X200311107Y-123261000D01*
X200156358Y-123230219D01*
X200010586Y-123169838D01*
X200010585Y-123169838D01*
X200010584Y-123169837D01*
X199879392Y-123082178D01*
X199767822Y-122970608D01*
X199680163Y-122839416D01*
X199622354Y-122699853D01*
X199619781Y-122693642D01*
X199589000Y-122538893D01*
X199589000Y-122381107D01*
X199619781Y-122226358D01*
X199680162Y-122080586D01*
X199680163Y-122080584D01*
X199767822Y-121949392D01*
X199879392Y-121837822D01*
X200010584Y-121750163D01*
X200010586Y-121750162D01*
X200156358Y-121689781D01*
X200311107Y-121659000D01*
X200468893Y-121659000D01*
X200623642Y-121689781D01*
X200623642Y-121689781D01*
G37*
G36*
X198083642Y-121689781D02*
G01*
X198229414Y-121750162D01*
X198229416Y-121750163D01*
X198360608Y-121837822D01*
X198472178Y-121949392D01*
X198559837Y-122080584D01*
X198559838Y-122080586D01*
X198620219Y-122226358D01*
X198651000Y-122381107D01*
X198651000Y-122538893D01*
X198620219Y-122693642D01*
X198617646Y-122699853D01*
X198559837Y-122839416D01*
X198472178Y-122970608D01*
X198360608Y-123082178D01*
X198229416Y-123169837D01*
X198229415Y-123169838D01*
X198229414Y-123169838D01*
X198083642Y-123230219D01*
X197928893Y-123261000D01*
X197771107Y-123261000D01*
X197616358Y-123230219D01*
X197470586Y-123169838D01*
X197470585Y-123169838D01*
X197470584Y-123169837D01*
X197339392Y-123082178D01*
X197227822Y-122970608D01*
X197140163Y-122839416D01*
X197082354Y-122699853D01*
X197079781Y-122693642D01*
X197049000Y-122538893D01*
X197049000Y-122381107D01*
X197079781Y-122226358D01*
X197140162Y-122080586D01*
X197140163Y-122080584D01*
X197227822Y-121949392D01*
X197339392Y-121837822D01*
X197470584Y-121750163D01*
X197470586Y-121750162D01*
X197616358Y-121689781D01*
X197771107Y-121659000D01*
X197928893Y-121659000D01*
X198083642Y-121689781D01*
X198083642Y-121689781D01*
G37*
G36*
X195543642Y-121689781D02*
G01*
X195689414Y-121750162D01*
X195689416Y-121750163D01*
X195820608Y-121837822D01*
X195932178Y-121949392D01*
X196019837Y-122080584D01*
X196019838Y-122080586D01*
X196080219Y-122226358D01*
X196111000Y-122381107D01*
X196111000Y-122538893D01*
X196080219Y-122693642D01*
X196077646Y-122699853D01*
X196019837Y-122839416D01*
X195932178Y-122970608D01*
X195820608Y-123082178D01*
X195689416Y-123169837D01*
X195689415Y-123169838D01*
X195689414Y-123169838D01*
X195543642Y-123230219D01*
X195388893Y-123261000D01*
X195231107Y-123261000D01*
X195076358Y-123230219D01*
X194930586Y-123169838D01*
X194930585Y-123169838D01*
X194930584Y-123169837D01*
X194799392Y-123082178D01*
X194687822Y-122970608D01*
X194600163Y-122839416D01*
X194542354Y-122699853D01*
X194539781Y-122693642D01*
X194509000Y-122538893D01*
X194509000Y-122381107D01*
X194539781Y-122226358D01*
X194600162Y-122080586D01*
X194600163Y-122080584D01*
X194687822Y-121949392D01*
X194799392Y-121837822D01*
X194930584Y-121750163D01*
X194930586Y-121750162D01*
X195076358Y-121689781D01*
X195231107Y-121659000D01*
X195388893Y-121659000D01*
X195543642Y-121689781D01*
X195543642Y-121689781D01*
G37*
G36*
X193003642Y-121689781D02*
G01*
X193149414Y-121750162D01*
X193149416Y-121750163D01*
X193280608Y-121837822D01*
X193392178Y-121949392D01*
X193479837Y-122080584D01*
X193479838Y-122080586D01*
X193540219Y-122226358D01*
X193571000Y-122381107D01*
X193571000Y-122538893D01*
X193540219Y-122693642D01*
X193537646Y-122699853D01*
X193479837Y-122839416D01*
X193392178Y-122970608D01*
X193280608Y-123082178D01*
X193149416Y-123169837D01*
X193149415Y-123169838D01*
X193149414Y-123169838D01*
X193003642Y-123230219D01*
X192848893Y-123261000D01*
X192691107Y-123261000D01*
X192536358Y-123230219D01*
X192390586Y-123169838D01*
X192390585Y-123169838D01*
X192390584Y-123169837D01*
X192259392Y-123082178D01*
X192147822Y-122970608D01*
X192060163Y-122839416D01*
X192002354Y-122699853D01*
X191999781Y-122693642D01*
X191969000Y-122538893D01*
X191969000Y-122381107D01*
X191999781Y-122226358D01*
X192060162Y-122080586D01*
X192060163Y-122080584D01*
X192147822Y-121949392D01*
X192259392Y-121837822D01*
X192390584Y-121750163D01*
X192390586Y-121750162D01*
X192536358Y-121689781D01*
X192691107Y-121659000D01*
X192848893Y-121659000D01*
X193003642Y-121689781D01*
X193003642Y-121689781D01*
G37*
G36*
X169583642Y-121689781D02*
G01*
X169729414Y-121750162D01*
X169729416Y-121750163D01*
X169860608Y-121837822D01*
X169972178Y-121949392D01*
X170059837Y-122080584D01*
X170059838Y-122080586D01*
X170120219Y-122226358D01*
X170151000Y-122381107D01*
X170151000Y-122538893D01*
X170120219Y-122693642D01*
X170117646Y-122699853D01*
X170059837Y-122839416D01*
X169972178Y-122970608D01*
X169860608Y-123082178D01*
X169729416Y-123169837D01*
X169729415Y-123169838D01*
X169729414Y-123169838D01*
X169583642Y-123230219D01*
X169428893Y-123261000D01*
X169271107Y-123261000D01*
X169116358Y-123230219D01*
X168970586Y-123169838D01*
X168970585Y-123169838D01*
X168970584Y-123169837D01*
X168839392Y-123082178D01*
X168727822Y-122970608D01*
X168640163Y-122839416D01*
X168582354Y-122699853D01*
X168579781Y-122693642D01*
X168549000Y-122538893D01*
X168549000Y-122381107D01*
X168579781Y-122226358D01*
X168640162Y-122080586D01*
X168640163Y-122080584D01*
X168727822Y-121949392D01*
X168839392Y-121837822D01*
X168970584Y-121750163D01*
X168970586Y-121750162D01*
X169116358Y-121689781D01*
X169271107Y-121659000D01*
X169428893Y-121659000D01*
X169583642Y-121689781D01*
X169583642Y-121689781D01*
G37*
G36*
X167043642Y-121689781D02*
G01*
X167189414Y-121750162D01*
X167189416Y-121750163D01*
X167320608Y-121837822D01*
X167432178Y-121949392D01*
X167519837Y-122080584D01*
X167519838Y-122080586D01*
X167580219Y-122226358D01*
X167611000Y-122381107D01*
X167611000Y-122538893D01*
X167580219Y-122693642D01*
X167577646Y-122699853D01*
X167519837Y-122839416D01*
X167432178Y-122970608D01*
X167320608Y-123082178D01*
X167189416Y-123169837D01*
X167189415Y-123169838D01*
X167189414Y-123169838D01*
X167043642Y-123230219D01*
X166888893Y-123261000D01*
X166731107Y-123261000D01*
X166576358Y-123230219D01*
X166430586Y-123169838D01*
X166430585Y-123169838D01*
X166430584Y-123169837D01*
X166299392Y-123082178D01*
X166187822Y-122970608D01*
X166100163Y-122839416D01*
X166042354Y-122699853D01*
X166039781Y-122693642D01*
X166009000Y-122538893D01*
X166009000Y-122381107D01*
X166039781Y-122226358D01*
X166100162Y-122080586D01*
X166100163Y-122080584D01*
X166187822Y-121949392D01*
X166299392Y-121837822D01*
X166430584Y-121750163D01*
X166430586Y-121750162D01*
X166576358Y-121689781D01*
X166731107Y-121659000D01*
X166888893Y-121659000D01*
X167043642Y-121689781D01*
X167043642Y-121689781D01*
G37*
G36*
X164503642Y-121689781D02*
G01*
X164649414Y-121750162D01*
X164649416Y-121750163D01*
X164780608Y-121837822D01*
X164892178Y-121949392D01*
X164979837Y-122080584D01*
X164979838Y-122080586D01*
X165040219Y-122226358D01*
X165071000Y-122381107D01*
X165071000Y-122538893D01*
X165040219Y-122693642D01*
X165037646Y-122699853D01*
X164979837Y-122839416D01*
X164892178Y-122970608D01*
X164780608Y-123082178D01*
X164649416Y-123169837D01*
X164649415Y-123169838D01*
X164649414Y-123169838D01*
X164503642Y-123230219D01*
X164348893Y-123261000D01*
X164191107Y-123261000D01*
X164036358Y-123230219D01*
X163890586Y-123169838D01*
X163890585Y-123169838D01*
X163890584Y-123169837D01*
X163759392Y-123082178D01*
X163647822Y-122970608D01*
X163560163Y-122839416D01*
X163502354Y-122699853D01*
X163499781Y-122693642D01*
X163469000Y-122538893D01*
X163469000Y-122381107D01*
X163499781Y-122226358D01*
X163560162Y-122080586D01*
X163560163Y-122080584D01*
X163647822Y-121949392D01*
X163759392Y-121837822D01*
X163890584Y-121750163D01*
X163890586Y-121750162D01*
X164036358Y-121689781D01*
X164191107Y-121659000D01*
X164348893Y-121659000D01*
X164503642Y-121689781D01*
X164503642Y-121689781D01*
G37*
G36*
X138543642Y-121689781D02*
G01*
X138689414Y-121750162D01*
X138689416Y-121750163D01*
X138820608Y-121837822D01*
X138932178Y-121949392D01*
X139019837Y-122080584D01*
X139019838Y-122080586D01*
X139080219Y-122226358D01*
X139111000Y-122381107D01*
X139111000Y-122538893D01*
X139080219Y-122693642D01*
X139077646Y-122699853D01*
X139019837Y-122839416D01*
X138932178Y-122970608D01*
X138820608Y-123082178D01*
X138689416Y-123169837D01*
X138689415Y-123169838D01*
X138689414Y-123169838D01*
X138543642Y-123230219D01*
X138388893Y-123261000D01*
X138231107Y-123261000D01*
X138076358Y-123230219D01*
X137930586Y-123169838D01*
X137930585Y-123169838D01*
X137930584Y-123169837D01*
X137799392Y-123082178D01*
X137687822Y-122970608D01*
X137600163Y-122839416D01*
X137542354Y-122699853D01*
X137539781Y-122693642D01*
X137509000Y-122538893D01*
X137509000Y-122381107D01*
X137539781Y-122226358D01*
X137600162Y-122080586D01*
X137600163Y-122080584D01*
X137687822Y-121949392D01*
X137799392Y-121837822D01*
X137930584Y-121750163D01*
X137930586Y-121750162D01*
X138076358Y-121689781D01*
X138231107Y-121659000D01*
X138388893Y-121659000D01*
X138543642Y-121689781D01*
X138543642Y-121689781D01*
G37*
G36*
X136003642Y-121689781D02*
G01*
X136149414Y-121750162D01*
X136149416Y-121750163D01*
X136280608Y-121837822D01*
X136392178Y-121949392D01*
X136479837Y-122080584D01*
X136479838Y-122080586D01*
X136540219Y-122226358D01*
X136571000Y-122381107D01*
X136571000Y-122538893D01*
X136540219Y-122693642D01*
X136537646Y-122699853D01*
X136479837Y-122839416D01*
X136392178Y-122970608D01*
X136280608Y-123082178D01*
X136149416Y-123169837D01*
X136149415Y-123169838D01*
X136149414Y-123169838D01*
X136003642Y-123230219D01*
X135848893Y-123261000D01*
X135691107Y-123261000D01*
X135536358Y-123230219D01*
X135390586Y-123169838D01*
X135390585Y-123169838D01*
X135390584Y-123169837D01*
X135259392Y-123082178D01*
X135147822Y-122970608D01*
X135060163Y-122839416D01*
X135002354Y-122699853D01*
X134999781Y-122693642D01*
X134969000Y-122538893D01*
X134969000Y-122381107D01*
X134999781Y-122226358D01*
X135060162Y-122080586D01*
X135060163Y-122080584D01*
X135147822Y-121949392D01*
X135259392Y-121837822D01*
X135390584Y-121750163D01*
X135390586Y-121750162D01*
X135536358Y-121689781D01*
X135691107Y-121659000D01*
X135848893Y-121659000D01*
X136003642Y-121689781D01*
X136003642Y-121689781D01*
G37*
G36*
X115123642Y-121689781D02*
G01*
X115269414Y-121750162D01*
X115269416Y-121750163D01*
X115400608Y-121837822D01*
X115512178Y-121949392D01*
X115599837Y-122080584D01*
X115599838Y-122080586D01*
X115660219Y-122226358D01*
X115691000Y-122381107D01*
X115691000Y-122538893D01*
X115660219Y-122693642D01*
X115657646Y-122699853D01*
X115599837Y-122839416D01*
X115512178Y-122970608D01*
X115400608Y-123082178D01*
X115269416Y-123169837D01*
X115269415Y-123169838D01*
X115269414Y-123169838D01*
X115123642Y-123230219D01*
X114968893Y-123261000D01*
X114811107Y-123261000D01*
X114656358Y-123230219D01*
X114510586Y-123169838D01*
X114510585Y-123169838D01*
X114510584Y-123169837D01*
X114379392Y-123082178D01*
X114267822Y-122970608D01*
X114180163Y-122839416D01*
X114122354Y-122699853D01*
X114119781Y-122693642D01*
X114089000Y-122538893D01*
X114089000Y-122381107D01*
X114119781Y-122226358D01*
X114180162Y-122080586D01*
X114180163Y-122080584D01*
X114267822Y-121949392D01*
X114379392Y-121837822D01*
X114510584Y-121750163D01*
X114510586Y-121750162D01*
X114656358Y-121689781D01*
X114811107Y-121659000D01*
X114968893Y-121659000D01*
X115123642Y-121689781D01*
X115123642Y-121689781D01*
G37*
G36*
X112583642Y-121689781D02*
G01*
X112729414Y-121750162D01*
X112729416Y-121750163D01*
X112860608Y-121837822D01*
X112972178Y-121949392D01*
X113059837Y-122080584D01*
X113059838Y-122080586D01*
X113120219Y-122226358D01*
X113151000Y-122381107D01*
X113151000Y-122538893D01*
X113120219Y-122693642D01*
X113117646Y-122699853D01*
X113059837Y-122839416D01*
X112972178Y-122970608D01*
X112860608Y-123082178D01*
X112729416Y-123169837D01*
X112729415Y-123169838D01*
X112729414Y-123169838D01*
X112583642Y-123230219D01*
X112428893Y-123261000D01*
X112271107Y-123261000D01*
X112116358Y-123230219D01*
X111970586Y-123169838D01*
X111970585Y-123169838D01*
X111970584Y-123169837D01*
X111839392Y-123082178D01*
X111727822Y-122970608D01*
X111640163Y-122839416D01*
X111582354Y-122699853D01*
X111579781Y-122693642D01*
X111549000Y-122538893D01*
X111549000Y-122381107D01*
X111579781Y-122226358D01*
X111640162Y-122080586D01*
X111640163Y-122080584D01*
X111727822Y-121949392D01*
X111839392Y-121837822D01*
X111970584Y-121750163D01*
X111970586Y-121750162D01*
X112116358Y-121689781D01*
X112271107Y-121659000D01*
X112428893Y-121659000D01*
X112583642Y-121689781D01*
X112583642Y-121689781D01*
G37*
G36*
X110043642Y-121689781D02*
G01*
X110189414Y-121750162D01*
X110189416Y-121750163D01*
X110320608Y-121837822D01*
X110432178Y-121949392D01*
X110519837Y-122080584D01*
X110519838Y-122080586D01*
X110580219Y-122226358D01*
X110611000Y-122381107D01*
X110611000Y-122538893D01*
X110580219Y-122693642D01*
X110577646Y-122699853D01*
X110519837Y-122839416D01*
X110432178Y-122970608D01*
X110320608Y-123082178D01*
X110189416Y-123169837D01*
X110189415Y-123169838D01*
X110189414Y-123169838D01*
X110043642Y-123230219D01*
X109888893Y-123261000D01*
X109731107Y-123261000D01*
X109576358Y-123230219D01*
X109430586Y-123169838D01*
X109430585Y-123169838D01*
X109430584Y-123169837D01*
X109299392Y-123082178D01*
X109187822Y-122970608D01*
X109100163Y-122839416D01*
X109042354Y-122699853D01*
X109039781Y-122693642D01*
X109009000Y-122538893D01*
X109009000Y-122381107D01*
X109039781Y-122226358D01*
X109100162Y-122080586D01*
X109100163Y-122080584D01*
X109187822Y-121949392D01*
X109299392Y-121837822D01*
X109430584Y-121750163D01*
X109430586Y-121750162D01*
X109576358Y-121689781D01*
X109731107Y-121659000D01*
X109888893Y-121659000D01*
X110043642Y-121689781D01*
X110043642Y-121689781D01*
G37*
G36*
X141083642Y-121689781D02*
G01*
X141229414Y-121750162D01*
X141229416Y-121750163D01*
X141360608Y-121837822D01*
X141472178Y-121949392D01*
X141559837Y-122080584D01*
X141559838Y-122080586D01*
X141620219Y-122226358D01*
X141651000Y-122381107D01*
X141651000Y-122538893D01*
X141620219Y-122693642D01*
X141617646Y-122699853D01*
X141559837Y-122839416D01*
X141472178Y-122970608D01*
X141360608Y-123082178D01*
X141229416Y-123169837D01*
X141229415Y-123169838D01*
X141229414Y-123169838D01*
X141083642Y-123230219D01*
X140928893Y-123261000D01*
X140771107Y-123261000D01*
X140616358Y-123230219D01*
X140470586Y-123169838D01*
X140470585Y-123169838D01*
X140470584Y-123169837D01*
X140339392Y-123082178D01*
X140227822Y-122970608D01*
X140140163Y-122839416D01*
X140082354Y-122699853D01*
X140079781Y-122693642D01*
X140049000Y-122538893D01*
X140049000Y-122381107D01*
X140079781Y-122226358D01*
X140140162Y-122080586D01*
X140140163Y-122080584D01*
X140227822Y-121949392D01*
X140339392Y-121837822D01*
X140470584Y-121750163D01*
X140470586Y-121750162D01*
X140616358Y-121689781D01*
X140771107Y-121659000D01*
X140928893Y-121659000D01*
X141083642Y-121689781D01*
X141083642Y-121689781D01*
G37*
G36*
X107503642Y-121689781D02*
G01*
X107649414Y-121750162D01*
X107649416Y-121750163D01*
X107780608Y-121837822D01*
X107892178Y-121949392D01*
X107979837Y-122080584D01*
X107979838Y-122080586D01*
X108040219Y-122226358D01*
X108071000Y-122381107D01*
X108071000Y-122538893D01*
X108040219Y-122693642D01*
X108037646Y-122699853D01*
X107979837Y-122839416D01*
X107892178Y-122970608D01*
X107780608Y-123082178D01*
X107649416Y-123169837D01*
X107649415Y-123169838D01*
X107649414Y-123169838D01*
X107503642Y-123230219D01*
X107348893Y-123261000D01*
X107191107Y-123261000D01*
X107036358Y-123230219D01*
X106890586Y-123169838D01*
X106890585Y-123169838D01*
X106890584Y-123169837D01*
X106759392Y-123082178D01*
X106647822Y-122970608D01*
X106560163Y-122839416D01*
X106502354Y-122699853D01*
X106499781Y-122693642D01*
X106469000Y-122538893D01*
X106469000Y-122381107D01*
X106499781Y-122226358D01*
X106560162Y-122080586D01*
X106560163Y-122080584D01*
X106647822Y-121949392D01*
X106759392Y-121837822D01*
X106890584Y-121750163D01*
X106890586Y-121750162D01*
X107036358Y-121689781D01*
X107191107Y-121659000D01*
X107348893Y-121659000D01*
X107503642Y-121689781D01*
X107503642Y-121689781D01*
G37*
G36*
X143623642Y-121689781D02*
G01*
X143769414Y-121750162D01*
X143769416Y-121750163D01*
X143900608Y-121837822D01*
X144012178Y-121949392D01*
X144099837Y-122080584D01*
X144099838Y-122080586D01*
X144160219Y-122226358D01*
X144191000Y-122381107D01*
X144191000Y-122538893D01*
X144160219Y-122693642D01*
X144157646Y-122699853D01*
X144099837Y-122839416D01*
X144012178Y-122970608D01*
X143900608Y-123082178D01*
X143769416Y-123169837D01*
X143769415Y-123169838D01*
X143769414Y-123169838D01*
X143623642Y-123230219D01*
X143468893Y-123261000D01*
X143311107Y-123261000D01*
X143156358Y-123230219D01*
X143010586Y-123169838D01*
X143010585Y-123169838D01*
X143010584Y-123169837D01*
X142879392Y-123082178D01*
X142767822Y-122970608D01*
X142680163Y-122839416D01*
X142622354Y-122699853D01*
X142619781Y-122693642D01*
X142589000Y-122538893D01*
X142589000Y-122381107D01*
X142619781Y-122226358D01*
X142680162Y-122080586D01*
X142680163Y-122080584D01*
X142767822Y-121949392D01*
X142879392Y-121837822D01*
X143010584Y-121750163D01*
X143010586Y-121750162D01*
X143156358Y-121689781D01*
X143311107Y-121659000D01*
X143468893Y-121659000D01*
X143623642Y-121689781D01*
X143623642Y-121689781D01*
G37*
G36*
X242613512Y-119103927D02*
G01*
X242762812Y-119133624D01*
X242926784Y-119201544D01*
X243074354Y-119300147D01*
X243199853Y-119425646D01*
X243298456Y-119573216D01*
X243366376Y-119737188D01*
X243401000Y-119911259D01*
X243401000Y-120088741D01*
X243366376Y-120262812D01*
X243298456Y-120426784D01*
X243199853Y-120574354D01*
X243074354Y-120699853D01*
X242926784Y-120798456D01*
X242781771Y-120858523D01*
X242760171Y-120870068D01*
X242741229Y-120885613D01*
X242725684Y-120904555D01*
X242714133Y-120926166D01*
X242707020Y-120949615D01*
X242704618Y-120974001D01*
X242707020Y-120998387D01*
X242714133Y-121021836D01*
X242725684Y-121043447D01*
X242741229Y-121062389D01*
X242760171Y-121077934D01*
X242781782Y-121089485D01*
X242805231Y-121096598D01*
X242829617Y-121099000D01*
X243401000Y-121099000D01*
X243401000Y-122901000D01*
X241599000Y-122901000D01*
X241599000Y-121099000D01*
X242170383Y-121099000D01*
X242194769Y-121096598D01*
X242218218Y-121089485D01*
X242239829Y-121077934D01*
X242258771Y-121062389D01*
X242274316Y-121043447D01*
X242285867Y-121021836D01*
X242292980Y-120998387D01*
X242295382Y-120974001D01*
X242292980Y-120949615D01*
X242285867Y-120926166D01*
X242274316Y-120904555D01*
X242258771Y-120885613D01*
X242239829Y-120870068D01*
X242218229Y-120858523D01*
X242073216Y-120798456D01*
X241925646Y-120699853D01*
X241800147Y-120574354D01*
X241701544Y-120426784D01*
X241633624Y-120262812D01*
X241599000Y-120088741D01*
X241599000Y-119911259D01*
X241633624Y-119737188D01*
X241701544Y-119573216D01*
X241800147Y-119425646D01*
X241925646Y-119300147D01*
X242073216Y-119201544D01*
X242237188Y-119133624D01*
X242386488Y-119103927D01*
X242411258Y-119099000D01*
X242588742Y-119099000D01*
X242613512Y-119103927D01*
X242613512Y-119103927D01*
G37*
G36*
X245113512Y-119103927D02*
G01*
X245262812Y-119133624D01*
X245426784Y-119201544D01*
X245574354Y-119300147D01*
X245699853Y-119425646D01*
X245798456Y-119573216D01*
X245866376Y-119737188D01*
X245901000Y-119911259D01*
X245901000Y-120088741D01*
X245866376Y-120262812D01*
X245798456Y-120426784D01*
X245699853Y-120574354D01*
X245574354Y-120699853D01*
X245426784Y-120798456D01*
X245262812Y-120866376D01*
X245207362Y-120877405D01*
X245183922Y-120884516D01*
X245162311Y-120896067D01*
X245143369Y-120911613D01*
X245127824Y-120930555D01*
X245116273Y-120952165D01*
X245109160Y-120975614D01*
X245106758Y-121000000D01*
X245109160Y-121024387D01*
X245116273Y-121047835D01*
X245127824Y-121069446D01*
X245143370Y-121088388D01*
X245162312Y-121103933D01*
X245183922Y-121115484D01*
X245207362Y-121122595D01*
X245262812Y-121133624D01*
X245426784Y-121201544D01*
X245574354Y-121300147D01*
X245699853Y-121425646D01*
X245798456Y-121573216D01*
X245866376Y-121737188D01*
X245901000Y-121911259D01*
X245901000Y-122088741D01*
X245866376Y-122262812D01*
X245798456Y-122426784D01*
X245699853Y-122574354D01*
X245574354Y-122699853D01*
X245426784Y-122798456D01*
X245262812Y-122866376D01*
X245113512Y-122896073D01*
X245088742Y-122901000D01*
X244911258Y-122901000D01*
X244886488Y-122896073D01*
X244737188Y-122866376D01*
X244573216Y-122798456D01*
X244425646Y-122699853D01*
X244300147Y-122574354D01*
X244201544Y-122426784D01*
X244133624Y-122262812D01*
X244099000Y-122088741D01*
X244099000Y-121911259D01*
X244133624Y-121737188D01*
X244201544Y-121573216D01*
X244300147Y-121425646D01*
X244425646Y-121300147D01*
X244573216Y-121201544D01*
X244737188Y-121133624D01*
X244792638Y-121122595D01*
X244816078Y-121115484D01*
X244837689Y-121103933D01*
X244856631Y-121088387D01*
X244872176Y-121069445D01*
X244883727Y-121047835D01*
X244890840Y-121024386D01*
X244893242Y-121000000D01*
X244890840Y-120975613D01*
X244883727Y-120952165D01*
X244872176Y-120930554D01*
X244856630Y-120911612D01*
X244837688Y-120896067D01*
X244816078Y-120884516D01*
X244792638Y-120877405D01*
X244737188Y-120866376D01*
X244573216Y-120798456D01*
X244425646Y-120699853D01*
X244300147Y-120574354D01*
X244201544Y-120426784D01*
X244133624Y-120262812D01*
X244099000Y-120088741D01*
X244099000Y-119911259D01*
X244133624Y-119737188D01*
X244201544Y-119573216D01*
X244300147Y-119425646D01*
X244425646Y-119300147D01*
X244573216Y-119201544D01*
X244737188Y-119133624D01*
X244886488Y-119103927D01*
X244911258Y-119099000D01*
X245088742Y-119099000D01*
X245113512Y-119103927D01*
X245113512Y-119103927D01*
G37*
G36*
X73251000Y-121451000D02*
G01*
X68749000Y-121451000D01*
X68749000Y-119549000D01*
X73251000Y-119549000D01*
X73251000Y-121451000D01*
X73251000Y-121451000D01*
G37*
G36*
X66386425Y-115462760D02*
G01*
X66386428Y-115462761D01*
X66386429Y-115462761D01*
X66565693Y-115517140D01*
X66565696Y-115517142D01*
X66565697Y-115517142D01*
X66730903Y-115605446D01*
X66875712Y-115724288D01*
X66994554Y-115869097D01*
X67082858Y-116034303D01*
X67082860Y-116034307D01*
X67115507Y-116141930D01*
X67137240Y-116213575D01*
X67151000Y-116353282D01*
X67151000Y-118646718D01*
X67137240Y-118786425D01*
X67137239Y-118786428D01*
X67137239Y-118786429D01*
X67082860Y-118965693D01*
X67082858Y-118965696D01*
X67082858Y-118965697D01*
X66994554Y-119130903D01*
X66875712Y-119275712D01*
X66730903Y-119394554D01*
X66565696Y-119482858D01*
X66565692Y-119482860D01*
X66386428Y-119537239D01*
X66386427Y-119537239D01*
X66386424Y-119537240D01*
X66200000Y-119555601D01*
X66013575Y-119537240D01*
X66013572Y-119537239D01*
X66013571Y-119537239D01*
X65834307Y-119482860D01*
X65834303Y-119482858D01*
X65669097Y-119394554D01*
X65524288Y-119275712D01*
X65405446Y-119130903D01*
X65317142Y-118965696D01*
X65317141Y-118965693D01*
X65317140Y-118965692D01*
X65262761Y-118786428D01*
X65262761Y-118786427D01*
X65262760Y-118786424D01*
X65249000Y-118646717D01*
X65249001Y-116353282D01*
X65262761Y-116213575D01*
X65284494Y-116141930D01*
X65317141Y-116034307D01*
X65317143Y-116034303D01*
X65405447Y-115869097D01*
X65524289Y-115724288D01*
X65669098Y-115605446D01*
X65834304Y-115517142D01*
X65834305Y-115517142D01*
X65834308Y-115517140D01*
X66013572Y-115462761D01*
X66013573Y-115462761D01*
X66013576Y-115462760D01*
X66200000Y-115444399D01*
X66386425Y-115462760D01*
X66386425Y-115462760D01*
G37*
G36*
X250295331Y-115558211D02*
G01*
X250623092Y-115693974D01*
X250918070Y-115891072D01*
X251168928Y-116141930D01*
X251366026Y-116436908D01*
X251501789Y-116764669D01*
X251571000Y-117112616D01*
X251571000Y-117467384D01*
X251501789Y-117815331D01*
X251366026Y-118143092D01*
X251168928Y-118438070D01*
X250918070Y-118688928D01*
X250623092Y-118886026D01*
X250295331Y-119021789D01*
X249947384Y-119091000D01*
X249592616Y-119091000D01*
X249244669Y-119021789D01*
X248916908Y-118886026D01*
X248621930Y-118688928D01*
X248371072Y-118438070D01*
X248173974Y-118143092D01*
X248038211Y-117815331D01*
X247969000Y-117467384D01*
X247969000Y-117112616D01*
X248038211Y-116764669D01*
X248173974Y-116436908D01*
X248371072Y-116141930D01*
X248621930Y-115891072D01*
X248916908Y-115693974D01*
X249244669Y-115558211D01*
X249592616Y-115489000D01*
X249947384Y-115489000D01*
X250295331Y-115558211D01*
X250295331Y-115558211D01*
G37*
G36*
X238255331Y-115558211D02*
G01*
X238583092Y-115693974D01*
X238878070Y-115891072D01*
X239128928Y-116141930D01*
X239326026Y-116436908D01*
X239461789Y-116764669D01*
X239531000Y-117112616D01*
X239531000Y-117467384D01*
X239461789Y-117815331D01*
X239326026Y-118143092D01*
X239128928Y-118438070D01*
X238878070Y-118688928D01*
X238583092Y-118886026D01*
X238255331Y-119021789D01*
X237907384Y-119091000D01*
X237552616Y-119091000D01*
X237204669Y-119021789D01*
X236876908Y-118886026D01*
X236581930Y-118688928D01*
X236331072Y-118438070D01*
X236133974Y-118143092D01*
X235998211Y-117815331D01*
X235929000Y-117467384D01*
X235929000Y-117112616D01*
X235998211Y-116764669D01*
X236133974Y-116436908D01*
X236331072Y-116141930D01*
X236581930Y-115891072D01*
X236876908Y-115693974D01*
X237204669Y-115558211D01*
X237552616Y-115489000D01*
X237907384Y-115489000D01*
X238255331Y-115558211D01*
X238255331Y-115558211D01*
G37*
G36*
X72286425Y-113762760D02*
G01*
X72286428Y-113762761D01*
X72286429Y-113762761D01*
X72465693Y-113817140D01*
X72465696Y-113817142D01*
X72465697Y-113817142D01*
X72630903Y-113905446D01*
X72775712Y-114024288D01*
X72894554Y-114169097D01*
X72982858Y-114334303D01*
X72982860Y-114334307D01*
X73037239Y-114513571D01*
X73037240Y-114513575D01*
X73055601Y-114700000D01*
X73037240Y-114886425D01*
X73037239Y-114886428D01*
X73037239Y-114886429D01*
X72982860Y-115065693D01*
X72982858Y-115065696D01*
X72982858Y-115065697D01*
X72894554Y-115230903D01*
X72775712Y-115375712D01*
X72630903Y-115494554D01*
X72465697Y-115582858D01*
X72465693Y-115582860D01*
X72286429Y-115637239D01*
X72286428Y-115637239D01*
X72286425Y-115637240D01*
X72146718Y-115651000D01*
X69853282Y-115651000D01*
X69713575Y-115637240D01*
X69713572Y-115637239D01*
X69713571Y-115637239D01*
X69534307Y-115582860D01*
X69534303Y-115582858D01*
X69369097Y-115494554D01*
X69224288Y-115375712D01*
X69105446Y-115230903D01*
X69017142Y-115065697D01*
X69017142Y-115065696D01*
X69017140Y-115065693D01*
X68962761Y-114886429D01*
X68962761Y-114886428D01*
X68962760Y-114886425D01*
X68944399Y-114700000D01*
X68962760Y-114513575D01*
X68962761Y-114513571D01*
X69017140Y-114334307D01*
X69017142Y-114334303D01*
X69105446Y-114169097D01*
X69224288Y-114024288D01*
X69369097Y-113905446D01*
X69534303Y-113817142D01*
X69534304Y-113817142D01*
X69534307Y-113817140D01*
X69713571Y-113762761D01*
X69713572Y-113762761D01*
X69713575Y-113762760D01*
X69853282Y-113749000D01*
X72146718Y-113749000D01*
X72286425Y-113762760D01*
X72286425Y-113762760D01*
G37*
G36*
X225651000Y-111401000D02*
G01*
X223849000Y-111401000D01*
X223849000Y-109599000D01*
X225651000Y-109599000D01*
X225651000Y-111401000D01*
X225651000Y-111401000D01*
G37*
G36*
X227400442Y-109605518D02*
G01*
X227466627Y-109612037D01*
X227636466Y-109663557D01*
X227792991Y-109747222D01*
X227828729Y-109776552D01*
X227930186Y-109859814D01*
X228013448Y-109961271D01*
X228042778Y-109997009D01*
X228126443Y-110153534D01*
X228177963Y-110323373D01*
X228195359Y-110500000D01*
X228177963Y-110676627D01*
X228126443Y-110846466D01*
X228042778Y-111002991D01*
X228013448Y-111038729D01*
X227930186Y-111140186D01*
X227828729Y-111223448D01*
X227792991Y-111252778D01*
X227636466Y-111336443D01*
X227466627Y-111387963D01*
X227400443Y-111394481D01*
X227334260Y-111401000D01*
X227245740Y-111401000D01*
X227179557Y-111394481D01*
X227113373Y-111387963D01*
X226943534Y-111336443D01*
X226787009Y-111252778D01*
X226751271Y-111223448D01*
X226649814Y-111140186D01*
X226566552Y-111038729D01*
X226537222Y-111002991D01*
X226453557Y-110846466D01*
X226402037Y-110676627D01*
X226384641Y-110500000D01*
X226402037Y-110323373D01*
X226453557Y-110153534D01*
X226537222Y-109997009D01*
X226566552Y-109961271D01*
X226649814Y-109859814D01*
X226751271Y-109776552D01*
X226787009Y-109747222D01*
X226943534Y-109663557D01*
X227113373Y-109612037D01*
X227179558Y-109605518D01*
X227245740Y-109599000D01*
X227334260Y-109599000D01*
X227400442Y-109605518D01*
X227400442Y-109605518D01*
G37*
G36*
X229940442Y-109605518D02*
G01*
X230006627Y-109612037D01*
X230176466Y-109663557D01*
X230332991Y-109747222D01*
X230368729Y-109776552D01*
X230470186Y-109859814D01*
X230553448Y-109961271D01*
X230582778Y-109997009D01*
X230666443Y-110153534D01*
X230717963Y-110323373D01*
X230735359Y-110500000D01*
X230717963Y-110676627D01*
X230666443Y-110846466D01*
X230582778Y-111002991D01*
X230553448Y-111038729D01*
X230470186Y-111140186D01*
X230368729Y-111223448D01*
X230332991Y-111252778D01*
X230176466Y-111336443D01*
X230006627Y-111387963D01*
X229940443Y-111394481D01*
X229874260Y-111401000D01*
X229785740Y-111401000D01*
X229719557Y-111394481D01*
X229653373Y-111387963D01*
X229483534Y-111336443D01*
X229327009Y-111252778D01*
X229291271Y-111223448D01*
X229189814Y-111140186D01*
X229106552Y-111038729D01*
X229077222Y-111002991D01*
X228993557Y-110846466D01*
X228942037Y-110676627D01*
X228924641Y-110500000D01*
X228942037Y-110323373D01*
X228993557Y-110153534D01*
X229077222Y-109997009D01*
X229106552Y-109961271D01*
X229189814Y-109859814D01*
X229291271Y-109776552D01*
X229327009Y-109747222D01*
X229483534Y-109663557D01*
X229653373Y-109612037D01*
X229719558Y-109605518D01*
X229785740Y-109599000D01*
X229874260Y-109599000D01*
X229940442Y-109605518D01*
X229940442Y-109605518D01*
G37*
G36*
X232480442Y-109605518D02*
G01*
X232546627Y-109612037D01*
X232716466Y-109663557D01*
X232872991Y-109747222D01*
X232908729Y-109776552D01*
X233010186Y-109859814D01*
X233093448Y-109961271D01*
X233122778Y-109997009D01*
X233206443Y-110153534D01*
X233257963Y-110323373D01*
X233275359Y-110500000D01*
X233257963Y-110676627D01*
X233206443Y-110846466D01*
X233122778Y-111002991D01*
X233093448Y-111038729D01*
X233010186Y-111140186D01*
X232908729Y-111223448D01*
X232872991Y-111252778D01*
X232716466Y-111336443D01*
X232546627Y-111387963D01*
X232480443Y-111394481D01*
X232414260Y-111401000D01*
X232325740Y-111401000D01*
X232259557Y-111394481D01*
X232193373Y-111387963D01*
X232023534Y-111336443D01*
X231867009Y-111252778D01*
X231831271Y-111223448D01*
X231729814Y-111140186D01*
X231646552Y-111038729D01*
X231617222Y-111002991D01*
X231533557Y-110846466D01*
X231482037Y-110676627D01*
X231464641Y-110500000D01*
X231482037Y-110323373D01*
X231533557Y-110153534D01*
X231617222Y-109997009D01*
X231646552Y-109961271D01*
X231729814Y-109859814D01*
X231831271Y-109776552D01*
X231867009Y-109747222D01*
X232023534Y-109663557D01*
X232193373Y-109612037D01*
X232259558Y-109605518D01*
X232325740Y-109599000D01*
X232414260Y-109599000D01*
X232480442Y-109605518D01*
X232480442Y-109605518D01*
G37*
G36*
X229940442Y-107065518D02*
G01*
X230006627Y-107072037D01*
X230176466Y-107123557D01*
X230332991Y-107207222D01*
X230368729Y-107236552D01*
X230470186Y-107319814D01*
X230553448Y-107421271D01*
X230582778Y-107457009D01*
X230666443Y-107613534D01*
X230717963Y-107783373D01*
X230735359Y-107960000D01*
X230717963Y-108136627D01*
X230666443Y-108306466D01*
X230582778Y-108462991D01*
X230553448Y-108498729D01*
X230470186Y-108600186D01*
X230368729Y-108683448D01*
X230332991Y-108712778D01*
X230176466Y-108796443D01*
X230006627Y-108847963D01*
X229940442Y-108854482D01*
X229874260Y-108861000D01*
X229785740Y-108861000D01*
X229719558Y-108854482D01*
X229653373Y-108847963D01*
X229483534Y-108796443D01*
X229327009Y-108712778D01*
X229291271Y-108683448D01*
X229189814Y-108600186D01*
X229106552Y-108498729D01*
X229077222Y-108462991D01*
X228993557Y-108306466D01*
X228942037Y-108136627D01*
X228924641Y-107960000D01*
X228942037Y-107783373D01*
X228993557Y-107613534D01*
X229077222Y-107457009D01*
X229106552Y-107421271D01*
X229189814Y-107319814D01*
X229291271Y-107236552D01*
X229327009Y-107207222D01*
X229483534Y-107123557D01*
X229653373Y-107072037D01*
X229719558Y-107065518D01*
X229785740Y-107059000D01*
X229874260Y-107059000D01*
X229940442Y-107065518D01*
X229940442Y-107065518D01*
G37*
G36*
X232480442Y-107065518D02*
G01*
X232546627Y-107072037D01*
X232716466Y-107123557D01*
X232872991Y-107207222D01*
X232908729Y-107236552D01*
X233010186Y-107319814D01*
X233093448Y-107421271D01*
X233122778Y-107457009D01*
X233206443Y-107613534D01*
X233257963Y-107783373D01*
X233275359Y-107960000D01*
X233257963Y-108136627D01*
X233206443Y-108306466D01*
X233122778Y-108462991D01*
X233093448Y-108498729D01*
X233010186Y-108600186D01*
X232908729Y-108683448D01*
X232872991Y-108712778D01*
X232716466Y-108796443D01*
X232546627Y-108847963D01*
X232480442Y-108854482D01*
X232414260Y-108861000D01*
X232325740Y-108861000D01*
X232259558Y-108854482D01*
X232193373Y-108847963D01*
X232023534Y-108796443D01*
X231867009Y-108712778D01*
X231831271Y-108683448D01*
X231729814Y-108600186D01*
X231646552Y-108498729D01*
X231617222Y-108462991D01*
X231533557Y-108306466D01*
X231482037Y-108136627D01*
X231464641Y-107960000D01*
X231482037Y-107783373D01*
X231533557Y-107613534D01*
X231617222Y-107457009D01*
X231646552Y-107421271D01*
X231729814Y-107319814D01*
X231831271Y-107236552D01*
X231867009Y-107207222D01*
X232023534Y-107123557D01*
X232193373Y-107072037D01*
X232259558Y-107065518D01*
X232325740Y-107059000D01*
X232414260Y-107059000D01*
X232480442Y-107065518D01*
X232480442Y-107065518D01*
G37*
G36*
X227400442Y-107065518D02*
G01*
X227466627Y-107072037D01*
X227636466Y-107123557D01*
X227792991Y-107207222D01*
X227828729Y-107236552D01*
X227930186Y-107319814D01*
X228013448Y-107421271D01*
X228042778Y-107457009D01*
X228126443Y-107613534D01*
X228177963Y-107783373D01*
X228195359Y-107960000D01*
X228177963Y-108136627D01*
X228126443Y-108306466D01*
X228042778Y-108462991D01*
X228013448Y-108498729D01*
X227930186Y-108600186D01*
X227828729Y-108683448D01*
X227792991Y-108712778D01*
X227636466Y-108796443D01*
X227466627Y-108847963D01*
X227400442Y-108854482D01*
X227334260Y-108861000D01*
X227245740Y-108861000D01*
X227179558Y-108854482D01*
X227113373Y-108847963D01*
X226943534Y-108796443D01*
X226787009Y-108712778D01*
X226751271Y-108683448D01*
X226649814Y-108600186D01*
X226566552Y-108498729D01*
X226537222Y-108462991D01*
X226453557Y-108306466D01*
X226402037Y-108136627D01*
X226384641Y-107960000D01*
X226402037Y-107783373D01*
X226453557Y-107613534D01*
X226537222Y-107457009D01*
X226566552Y-107421271D01*
X226649814Y-107319814D01*
X226751271Y-107236552D01*
X226787009Y-107207222D01*
X226943534Y-107123557D01*
X227113373Y-107072037D01*
X227179558Y-107065518D01*
X227245740Y-107059000D01*
X227334260Y-107059000D01*
X227400442Y-107065518D01*
X227400442Y-107065518D01*
G37*
G36*
X224860442Y-107065518D02*
G01*
X224926627Y-107072037D01*
X225096466Y-107123557D01*
X225252991Y-107207222D01*
X225288729Y-107236552D01*
X225390186Y-107319814D01*
X225473448Y-107421271D01*
X225502778Y-107457009D01*
X225586443Y-107613534D01*
X225637963Y-107783373D01*
X225655359Y-107960000D01*
X225637963Y-108136627D01*
X225586443Y-108306466D01*
X225502778Y-108462991D01*
X225473448Y-108498729D01*
X225390186Y-108600186D01*
X225288729Y-108683448D01*
X225252991Y-108712778D01*
X225096466Y-108796443D01*
X224926627Y-108847963D01*
X224860442Y-108854482D01*
X224794260Y-108861000D01*
X224705740Y-108861000D01*
X224639558Y-108854482D01*
X224573373Y-108847963D01*
X224403534Y-108796443D01*
X224247009Y-108712778D01*
X224211271Y-108683448D01*
X224109814Y-108600186D01*
X224026552Y-108498729D01*
X223997222Y-108462991D01*
X223913557Y-108306466D01*
X223862037Y-108136627D01*
X223844641Y-107960000D01*
X223862037Y-107783373D01*
X223913557Y-107613534D01*
X223997222Y-107457009D01*
X224026552Y-107421271D01*
X224109814Y-107319814D01*
X224211271Y-107236552D01*
X224247009Y-107207222D01*
X224403534Y-107123557D01*
X224573373Y-107072037D01*
X224639558Y-107065518D01*
X224705740Y-107059000D01*
X224794260Y-107059000D01*
X224860442Y-107065518D01*
X224860442Y-107065518D01*
G37*
M02*
