M48
; DRILL file {KiCad (5.1.4)-1} date 16/09/2020 17:38:32
; FORMAT={-:-/ absolute / inch / decimal}
; #@! TF.CreationDate,2020-09-16T17:38:32+01:00
; #@! TF.GenerationSoftware,Kicad,Pcbnew,(5.1.4)-1
; #@! TF.FileFunction,Plated,1,4,PTH
FMAT,2
INCH
T1C0.0157
T2C0.0299
T3C0.0315
T4C0.0362
T5C0.0394
T6C0.0433
T7C0.0917
%
G90
G05
T1
X4.0453Y-4.6555
X4.2913Y-4.439
X4.2913Y-4.6555
X4.3406Y-4.6457
X4.5249Y-4.2628
X4.5965Y-4.6555
X4.622Y-4.2205
X4.6457Y-4.6654
X4.6555Y-4.5768
X5.0295Y-4.6555
X5.0645Y-4.5812
X5.1378Y-4.7539
X5.1575Y-4.2618
X5.3346Y-4.6358
X5.374Y-4.5669
X5.4232Y-4.2717
X5.4626Y-4.2717
X5.5413Y-5.0591
X5.6201Y-4.6555
X5.6475Y-5.0263
X5.6693Y-4.5768
X5.6693Y-5.0591
X5.748Y-4.4094
X5.7972Y-4.4085
X6.1654Y-4.6457
X6.1895Y-4.5822
X6.2894Y-4.4094
X6.3287Y-5.0197
X6.4724Y-4.6457
X6.5039Y-4.5827
X6.5551Y-4.4045
X6.6043Y-4.3996
X6.6437Y-5.0787
X6.7606Y-5.0394
X6.7638Y-4.6457
X6.7913Y-5.0689
X6.8057Y-4.5801
X6.8504Y-4.2254
X6.8819Y-4.252
X6.8976Y-4.4016
X6.9488Y-4.4094
X7.0965Y-4.6457
X7.126Y-4.5768
X7.1496Y-4.2362
X7.1557Y-4.4124
X7.189Y-4.2362
X7.2126Y-4.4104
X7.389Y-4.2409
X7.4016Y-4.6457
X7.4213Y-4.5768
X7.4646Y-4.4173
X7.5118Y-4.4173
X7.6969Y-4.6457
X7.7312Y-4.5818
X7.7559Y-5.0689
X7.7854Y-5.0984
X7.7854Y-5.2067
X7.7854Y-5.2559
X7.8189Y-4.4026
X7.8702Y-4.4043
X7.9921Y-4.3002
X8.0512Y-4.4094
X8.0906Y-5.0197
X8.1004Y-5.1476
X8.1112Y-4.9409
X8.1112Y-5.0891
X8.1162Y-5.0496
X8.1398Y-5.2067
X8.1683Y-5.0886
X8.1693Y-4.9705
X8.1732Y-4.8583
X8.1828Y-5.1843
X8.189Y-4.7835
X8.189Y-4.9114
X8.1926Y-5.1462
X8.1988Y-4.5965
X8.1988Y-4.6555
X8.2115Y-4.3392
X8.2383Y-5.183
X8.2579Y-5.0689
X8.2752Y-4.8353
X8.3169Y-5.0689
X8.3563Y-4.9902
X8.376Y-4.5669
X8.3767Y-5.0699
X8.3829Y-5.1644
X8.3944Y-4.8013
X8.3952Y-4.7226
X8.3957Y-4.7619
X8.4037Y-4.8527
X8.4173Y-4.324
X8.4202Y-5.1519
X8.4257Y-4.9316
X8.4453Y-4.8083
X8.4495Y-5.1811
X8.457Y-4.3235
X8.4637Y-5.0507
X8.4744Y-5.0886
X8.4792Y-4.8283
X8.489Y-4.8664
X8.4963Y-4.3228
X8.5138Y-4.9409
X8.5345Y-4.8642
X8.5531Y-4.9409
X8.5956Y-4.9271
X8.7205Y-4.9705
X8.7402Y-4.5866
X8.7402Y-4.6457
X8.7402Y-5.0197
X8.7402Y-5.0787
X8.75Y-5.3248
X8.7598Y-4.9213
X8.7697Y-4.6161
X8.7697Y-5.2559
X8.7861Y-5.0415
X8.798Y-4.7284
X8.8091Y-4.6161
X8.8091Y-5.0984
X8.8091Y-5.315
X8.8131Y-4.7648
X8.8141Y-4.6925
X8.8189Y-5.0197
X8.8469Y-4.6053
X8.8484Y-5.314
X8.878Y-4.5669
X8.885Y-4.8819
X8.8888Y-5.314
X8.9075Y-5.4075
X8.9272Y-5.2559
X8.937Y-4.9991
X8.9461Y-4.9409
X8.9567Y-5.3209
X8.9606Y-4.8976
X9.0423Y-5.4075
X9.0423Y-5.4075
X9.0453Y-5.3209
X9.0846Y-5.4075
X9.2421Y-4.4882
X9.2421Y-4.5571
X9.2421Y-4.626
X9.7244Y-5.1181
X9.7539Y-5.1476
X9.7835Y-5.1772
T2
X7.5394Y-4.9213
X7.5894Y-4.8213
X7.6394Y-4.9213
X7.6894Y-4.8213
X7.7394Y-4.9213
X7.7894Y-4.8213
X7.8394Y-4.9213
X7.8894Y-4.8213
X4.1732Y-4.9213
X4.2232Y-4.8213
X4.2732Y-4.9213
X4.3232Y-4.8213
X4.3732Y-4.9213
X4.4232Y-4.8213
X4.4732Y-4.9213
X4.5232Y-4.8213
X6.4173Y-4.9213
X6.4673Y-4.8213
X6.5173Y-4.9213
X6.5673Y-4.8213
X6.6173Y-4.9213
X6.6673Y-4.8213
X6.7173Y-4.9213
X6.7673Y-4.8213
X5.2953Y-4.9213
X5.3453Y-4.8213
X5.3953Y-4.9213
X5.4453Y-4.8213
X5.4953Y-4.9213
X5.5453Y-4.8213
X5.5953Y-4.9213
X5.6453Y-4.8213
T4
X9.5472Y-4.7244
X9.5472Y-4.8031
X9.6457Y-4.7244
X9.6457Y-4.8031
T5
X8.8484Y-4.2504
X8.8484Y-4.3504
X8.9484Y-4.2504
X8.9484Y-4.3504
X9.0484Y-4.2504
X9.0484Y-4.3504
X9.1484Y-4.2504
X9.1484Y-4.3504
X8.1988Y-5.2642
X8.1988Y-5.3642
X8.2988Y-5.2642
X8.2988Y-5.3642
X8.3988Y-5.2642
X8.3988Y-5.3642
X8.4988Y-5.2642
X8.4988Y-5.3642
X8.5988Y-5.2642
X8.5988Y-5.3642
T6
X9.626Y-5.2559
X9.626Y-5.4331
X9.8819Y-5.2559
X9.8819Y-5.4331
X9.2323Y-5.2559
X9.2323Y-5.4331
X9.4882Y-5.2559
X9.4882Y-5.4331
T7
X9.3594Y-4.6177
X9.8335Y-4.6177
T3
G00X1.9075Y-4.9409
M15
G01X2.0098Y-4.9409
M16
G05
G00X1.9154Y-5.1693
M15
G01X2.002Y-5.1693
M16
G05
G00X2.1476Y-5.1024
M15
G01X2.1476Y-5.0157
M16
G05
G00X3.0197Y-4.9409
M15
G01X3.122Y-4.9409
M16
G05
G00X3.0276Y-5.1693
M15
G01X3.1142Y-5.1693
M16
G05
G00X3.2598Y-5.1024
M15
G01X3.2598Y-5.0157
M16
G05
G00X2.4685Y-4.9409
M15
G01X2.5709Y-4.9409
M16
G05
G00X2.4764Y-5.1693
M15
G01X2.563Y-5.1693
M16
G05
G00X2.7087Y-5.1024
M15
G01X2.7087Y-5.0157
M16
G05
G00X3.5709Y-4.9409
M15
G01X3.6732Y-4.9409
M16
G05
G00X3.5787Y-5.1693
M15
G01X3.6654Y-5.1693
M16
G05
G00X3.811Y-5.1024
M15
G01X3.811Y-5.0157
M16
G05
G00X2.6063Y-4.5827
M15
G01X2.6063Y-4.6693
M16
G05
G00X2.8386Y-4.5157
M15
G01X2.752Y-4.5157
M16
G05
G00X2.8465Y-4.7441
M15
G01X2.7441Y-4.7441
M16
G05
T0
M30
